<svg xmlns="http://www.w3.org/2000/svg" version="1.1" xmlns:xlink="http://www.w3.org/1999/xlink" width="100%" height="187"><svg xmlns="http://www.w3.org/2000/svg" version="1.1" xmlns:xlink="http://www.w3.org/1999/xlink" width="100%" height="187"><svg version="1.1" id="Layer_1" xmlns="http://www.w3.org/2000/svg" xmlns:xlink="http://www.w3.org/1999/xlink" x="0px" y="0px" width="100%" viewBox="0 0 187 187" enable-background="new 0 0 187 187" xml:space="preserve"><defs>
                <linearGradient id="grad-152" gradientTransform="rotate(31 0.5 0.5)">
                
                        <stop stop-color="#cc2ed2" offset="0"></stop>
                    ,
                        <stop stop-color="#cc2ed2" offset="0.2"></stop>
                    ,
                        <stop stop-color="#cc2ed2" offset="0.4"></stop>
                    ,
                        <stop stop-color="#cc2ed2" offset="0.6"></stop>
                    ,
                        <stop stop-color="#A832D9" offset="0.8"></stop>
                    
                </linearGradient>
          </defs>

<path fill="#606FE1" opacity="1.000000" stroke="none" d="
M178.966293,31.012100 
	C179.297928,31.108467 179.566025,31.295784 179.851578,32.165543 
	C179.988022,33.494461 180.043457,34.231884 179.954132,35.234428 
	C181.568848,40.704418 182.937454,45.447029 178.080826,50.364582 
	C175.636673,52.839401 175.301392,57.396973 173.815735,61.286350 
	C167.288712,67.606392 165.193832,68.074944 161.246857,64.054710 
	C158.394928,61.149860 155.716934,58.074245 152.884888,54.690796 
	C150.792892,47.212078 148.805954,40.109051 146.747375,33.026855 
	C145.964172,30.332369 144.306091,27.689035 144.293732,25.016624 
	C144.269241,19.721291 143.864273,15.061388 138.454437,13.012123 
	C143.442490,13.578165 148.013565,13.931359 152.484619,14.799644 
	C155.801590,15.443805 158.988678,16.756882 162.427399,17.818089 
	C162.621185,17.864180 163.008484,17.957518 163.125793,18.241133 
	C163.893982,18.962721 164.544876,19.400692 165.494095,19.991768 
	C170.183716,23.767281 174.574997,27.389690 178.966293,31.012100 
z" data-index="1"></path>
<path fill="#2069C6" opacity="1.000000" stroke="none" d="
M180.763672,142.983673 
	C180.810440,143.149017 180.857193,143.314362 180.976273,144.129913 
	C183.425125,150.512527 182.518784,156.237976 181.012375,161.962173 
	C181.012375,161.962173 181.021378,162.025635 180.804443,162.150742 
	C180.357559,162.473053 180.174072,162.706741 180.037064,162.976898 
	C179.981583,163.140610 179.926102,163.304337 179.546143,163.826523 
	C178.820938,164.768280 178.420212,165.351578 178.019485,165.934891 
	C178.019485,165.934891 178.007675,166.029953 177.767303,166.130325 
	C177.284882,166.411179 177.099258,166.637863 176.970047,166.910767 
	C176.970047,166.910767 176.985733,166.972565 176.676758,167.069534 
	C175.912048,167.776886 175.456314,168.387268 175.000580,168.997635 
	C168.279892,178.751236 159.132736,184.019989 147.156509,184.006714 
	C142.367493,184.001404 137.578598,183.916580 132.218994,183.494354 
	C131.424515,182.425003 131.200714,181.729248 131.423279,181.025085 
	C134.242569,181.010529 136.615494,181.004349 139.393494,181.040039 
	C144.173050,180.792694 148.734100,181.169037 152.864960,180.010971 
	C156.390045,179.022705 159.355331,176.152054 162.682922,174.322693 
	C171.621307,169.408768 176.476852,161.570007 179.013092,151.628479 
	C179.020020,150.508408 179.022125,149.761688 179.179993,148.752731 
	C178.554749,147.330460 177.773758,146.170425 176.800919,144.802643 
	C176.071625,144.066147 175.534180,143.537384 174.999496,142.625488 
	C175.021286,141.474884 175.040298,140.707413 175.373550,140.079987 
	C176.795609,140.475723 177.903427,140.731430 179.011246,140.987137 
	C179.011246,140.987137 179.000000,141.000000 179.127045,141.197052 
	C179.452347,141.648285 179.697403,141.843796 179.989273,141.980621 
	C179.989273,141.980621 180.021362,141.976532 180.111374,142.178391 
	C180.356888,142.611130 180.544327,142.812271 180.763672,142.983673 
z" data-index="2" style="opacity: 1;"></path>
<path fill="#5862BE" opacity="1.000000" stroke="none" d="
M152.961380,55.074791 
	C155.716934,58.074245 158.394928,61.149860 161.246857,64.054710 
	C165.193832,68.074944 167.288712,67.606392 174.077087,61.285881 
	C174.709473,61.014378 174.883759,61.016972 175.058044,61.019566 
	C172.163132,65.752960 169.268219,70.486359 165.791351,76.171288 
	C164.052277,73.697670 162.770859,72.288406 161.958008,70.647072 
	C158.489349,63.643215 152.523270,59.300339 145.603836,56.728092 
	C142.882645,55.716515 139.130890,57.477238 135.195496,57.915024 
	C134.362869,57.805855 134.183151,57.757149 134.004456,57.423225 
	C134.004807,56.752701 134.004150,56.367397 134.337891,55.957672 
	C135.782730,55.301365 136.893204,54.669472 138.401001,53.993729 
	C141.187790,53.646851 143.577240,53.343830 146.276031,53.226933 
	C148.710724,53.966969 150.836044,54.520878 152.961380,55.074791 
z" data-index="3"></path>
<path fill="#5D65C6" opacity="1.000000" stroke="none" d="
M162.233612,17.771996 
	C158.988678,16.756882 155.801590,15.443805 152.484619,14.799644 
	C148.013565,13.931359 143.442490,13.578165 138.107361,13.037319 
	C136.184464,14.039006 135.068527,15.007295 133.532349,15.979778 
	C125.559746,16.144089 123.562660,17.398970 121.645355,23.001240 
	C120.207855,23.352741 119.113754,23.676422 117.725555,23.913784 
	C116.898094,23.524349 116.364723,23.221233 115.999146,22.634087 
	C117.469612,20.649424 118.772285,18.948790 120.074951,17.248152 
	C124.924271,15.166403 129.605087,12.402542 134.660187,11.153786 
	C143.483246,8.974231 152.212997,10.281977 160.800644,14.640757 
	C161.144913,15.005657 161.536331,15.109958 161.536331,15.109958 
	C161.536331,15.109958 161.749130,15.073228 161.849152,15.462778 
	C162.043991,16.492218 162.138794,17.132109 162.233612,17.771996 
z" data-index="4"></path>
<path fill="#2D52B8" opacity="1.000000" stroke="none" d="
M135.983353,137.953094 
	C143.475937,140.644562 149.673141,138.053375 155.878906,132.973709 
	C156.669250,132.282043 156.899200,131.828506 157.129166,131.374985 
	C157.129166,131.374985 157.272690,131.201172 157.529007,131.108185 
	C157.985275,130.890396 158.090393,130.710266 158.100693,130.474808 
	C158.100693,130.474808 158.235687,130.228104 158.513123,130.048416 
	C159.002090,129.684387 159.101807,129.452026 159.089737,129.171631 
	C159.089737,129.171631 159.059219,129.098785 159.265961,128.923340 
	C159.696777,128.527039 159.862366,128.268723 159.969498,127.972939 
	C160.044968,127.820854 160.120438,127.668762 160.462448,127.198578 
	C160.935745,126.716698 161.050400,126.503410 161.072968,126.240616 
	C161.072968,126.240616 161.101517,126.135231 161.434784,125.990585 
	C162.194931,124.960686 162.621826,124.075439 163.048706,123.190186 
	C163.048706,123.190186 163.055267,123.089249 163.442780,123.115417 
	C165.856888,124.092247 167.883514,125.042915 169.910126,125.993584 
	C169.910126,125.993584 169.990601,126.024765 170.037964,126.262405 
	C170.201324,126.756538 170.388657,126.940392 170.647324,127.051605 
	C171.009445,127.803230 171.371582,128.554855 171.571625,129.637283 
	C171.220001,129.987625 171.030457,130.007187 170.509827,129.936829 
	C167.648041,129.356201 164.656616,126.032211 162.776978,131.236908 
	C160.696198,133.319321 158.853958,135.176620 156.653625,137.121979 
	C149.975281,138.913544 144.211029,143.465286 136.728897,140.771057 
	C134.275024,140.384323 132.162018,140.189789 130.044296,139.615570 
	C130.034851,138.475174 130.030121,137.714447 130.425934,136.954559 
	C132.159256,136.974854 133.492035,136.994308 134.824799,137.013763 
	C134.824799,137.013763 135.131439,137.227844 135.314545,137.473999 
	C135.644989,137.828033 135.806885,137.905670 135.983353,137.953094 
z" data-index="5" style="opacity: 1;"></path>
<path fill="#B538BC" opacity="1.000000" stroke="none" d="
M46.010902,14.143103 
	C49.374969,13.095104 52.739040,12.047105 56.985035,11.023060 
	C62.251301,11.032604 66.635643,11.018195 71.019981,11.003786 
	C71.457153,11.021462 71.894318,11.039139 72.817001,11.415663 
	C75.516129,12.524209 77.729752,13.273907 79.943367,14.023603 
	C80.119896,14.033611 80.296425,14.043617 80.869812,14.414268 
	C83.870720,17.454531 86.474770,20.134151 88.915215,23.030968 
	C88.500931,23.503931 88.250237,23.759695 87.721939,23.828777 
	C82.629028,20.773582 77.813721,17.905067 72.659340,15.033173 
	C71.868156,15.024644 71.416061,15.019496 70.722977,14.721573 
	C66.535149,12.485224 62.638264,11.667097 58.506828,14.941085 
	C53.496956,16.382416 48.926357,17.906981 44.291744,19.202547 
	C43.266960,19.489016 42.015743,18.965458 41.051605,18.544239 
	C42.826584,16.896759 44.418743,15.519931 46.010902,14.143103 
z" data-index="6"></path>
<path fill="#6C29B3" opacity="1.000000" stroke="none" d="
M55.051544,183.811646 
	C43.816429,182.953262 36.116787,176.213562 29.236599,168.188263 
	C27.747450,166.451248 26.580553,164.437943 25.566650,162.235229 
	C26.485886,161.944107 27.103693,161.969666 27.963600,162.211777 
	C29.130949,163.294968 30.056196,164.161606 31.151785,165.311813 
	C33.892990,168.065384 36.463852,170.535370 39.274796,173.246368 
	C41.008343,173.998764 42.501808,174.510162 44.219307,175.038956 
	C44.443340,175.056335 44.892426,175.073349 45.028042,175.382584 
	C48.459621,178.398422 51.755585,181.105026 55.051544,183.811646 
z" data-index="7" style="opacity: 1;"></path>
<path fill="#A034B4" opacity="1.000000" stroke="none" d="
M11.073219,66.101982 
	C13.502463,59.161957 15.931707,52.221931 18.837452,45.255764 
	C19.538248,45.456993 19.754591,45.691692 19.929876,46.319542 
	C19.576155,48.463768 19.255541,50.222176 18.802414,52.223770 
	C18.439434,52.970421 18.208971,53.473892 17.708303,54.176105 
	C16.960546,55.581539 16.482990,56.788231 15.984346,58.326729 
	C15.956014,59.101723 15.948770,59.544907 15.748305,60.299118 
	C14.356394,67.067154 13.157701,73.524155 11.770509,80.297119 
	C11.387211,82.075447 11.192413,83.537819 10.981325,85.369415 
	C10.957766,86.477722 10.950496,87.216789 10.663444,87.986671 
	C10.015728,88.085426 9.647795,88.153381 9.231981,87.819931 
	C8.876543,85.615585 8.568985,83.812653 8.261427,82.009720 
	C8.229789,81.571396 8.198151,81.133072 8.508524,80.214775 
	C8.969962,78.173378 9.089389,76.611946 9.208817,75.050522 
	C9.176830,74.868187 9.144844,74.685860 9.344173,73.976067 
	C9.731555,72.645668 9.887621,71.842735 10.043688,71.039803 
	C10.061012,70.857384 10.078339,70.674965 10.335333,70.011513 
	C10.741074,68.387650 10.907146,67.244820 11.073219,66.101982 
z" data-index="8"></path>
<path fill="#7D27A5" opacity="1.000000" stroke="none" d="
M23.881163,160.047653 
	C17.885042,149.534485 12.567820,138.740585 10.474338,126.367271 
	C11.216576,125.993362 11.601927,126.013443 12.072716,126.387314 
	C14.398687,131.848236 16.639219,136.955353 18.920429,142.437225 
	C19.672495,146.671585 20.614056,150.387253 24.771059,152.531616 
	C24.870291,155.292953 24.964930,157.617615 25.043818,159.957550 
	C25.028067,159.972809 24.996613,160.003387 24.717537,160.009064 
	C24.252697,160.025726 24.066931,160.036682 23.881163,160.047653 
z" data-index="9" style="opacity: 1;"></path>
<path fill="#4338A9" opacity="1.000000" stroke="none" d="
M134.705826,136.703308 
	C133.492035,136.994308 132.159256,136.974854 130.204330,136.749878 
	C128.740616,135.990509 127.899055,135.436646 127.018280,134.550629 
	C126.042633,133.142349 125.106194,132.066238 124.127701,130.976349 
	C124.085655,130.962540 123.997154,130.962860 123.933968,130.641510 
	C122.616196,128.862854 121.361610,127.405556 120.068939,125.593201 
	C119.059380,123.141731 118.087898,121.045303 117.121704,118.555130 
	C117.089027,117.113197 117.051064,116.065018 117.012436,114.594894 
	C117.029579,110.111740 117.047386,106.050537 117.065193,101.989326 
	C117.379425,103.356537 117.944405,104.719345 117.968544,106.091660 
	C118.176392,117.911774 123.910660,127.011719 132.039764,134.936462 
	C132.717743,135.597382 133.729935,135.915482 134.705826,136.703308 
z" data-index="10"></path>
<path fill="#4F20A5" opacity="1.000000" stroke="none" d="
M98.877235,166.809128 
	C93.839897,173.534760 88.358032,179.701569 79.645081,181.724487 
	C80.388779,180.363037 81.279182,179.268005 82.474174,178.054916 
	C84.547813,176.317642 86.316864,174.698395 88.371613,172.935257 
	C89.136009,171.881454 89.614716,170.971558 90.405411,169.922028 
	C91.830414,167.532364 92.943436,165.282349 94.322861,162.953217 
	C95.058815,162.584747 95.528351,162.295349 96.334717,162.003448 
	C97.120842,161.991760 97.570152,161.982574 98.197128,162.279388 
	C98.542274,163.993286 98.709755,165.401199 98.877235,166.809128 
z" data-index="11"></path>
<path fill="#2B58BA" opacity="1.000000" stroke="none" d="
M130.976898,181.033478 
	C131.200714,181.729248 131.424515,182.425003 131.755386,183.372253 
	C128.792206,182.435638 125.721977,181.247528 122.202820,179.617279 
	C118.543610,176.760818 115.333313,174.346481 112.123016,171.932144 
	C112.123016,171.932144 112.062881,171.960571 111.981262,171.589233 
	C109.925545,169.148849 107.951447,167.079773 105.977348,165.010712 
	C105.977348,165.010712 106.006340,165.001083 105.903336,164.804718 
	C105.629112,164.345856 105.403900,164.143402 105.124687,164.001022 
	C105.124687,164.001022 105.018097,163.970596 104.972107,163.650604 
	C104.606407,162.903259 104.286690,162.475891 103.966972,162.048523 
	C103.966972,162.048523 103.952934,162.033768 104.005814,161.794250 
	C104.058693,161.554733 104.146301,161.081924 104.501862,161.059235 
	C105.572815,161.015930 106.288223,160.995316 107.259674,161.167267 
	C108.324074,161.608963 109.132416,161.858124 109.988441,162.454971 
	C112.690254,166.201889 115.344391,169.601135 118.360489,173.037292 
	C120.136147,173.407761 121.549820,173.741287 122.965675,174.315506 
	C122.967850,174.556198 122.981606,175.039124 123.033531,175.374374 
	C124.053734,176.471619 125.022011,177.233597 125.994766,177.998505 
	C125.999245,178.001419 126.007721,178.008133 126.191849,178.289886 
	C127.908173,179.387924 129.440353,180.204208 130.979584,181.016571 
	C130.986603,181.012680 130.976898,181.033478 130.976898,181.033478 
z" data-index="12" style="opacity: 1;"></path>
<path fill="#5D69C5" opacity="1.000000" stroke="none" d="
M175.349915,60.841198 
	C174.883759,61.016972 174.709473,61.014378 174.273834,61.012253 
	C175.301392,57.396973 175.636673,52.839401 178.080826,50.364582 
	C182.937454,45.447029 181.568848,40.704418 180.256027,35.244453 
	C181.107956,35.003487 181.513199,35.017609 181.918457,35.031731 
	C182.172791,35.303482 182.427109,35.575233 182.812347,36.352371 
	C183.239914,37.258663 183.536545,37.659576 183.833191,38.060493 
	C183.833191,38.060493 183.914108,38.064713 183.924988,38.369942 
	C184.195694,39.125256 184.455505,39.575340 184.715317,40.025425 
	C185.992188,45.171661 183.813431,49.109001 180.601669,52.911991 
	C178.639801,55.235004 177.274826,58.062122 175.349915,60.841198 
z" data-index="13"></path>
<path fill="#B33AB8" opacity="1.000000" stroke="none" d="
M19.962986,45.933723 
	C19.754591,45.691692 19.538248,45.456993 19.136200,45.069031 
	C20.109507,42.414696 21.260565,39.920944 22.893948,37.016640 
	C23.601866,36.091465 23.827461,35.576847 24.053055,35.062229 
	C24.053057,35.062229 23.995674,35.018429 24.331249,34.895622 
	C25.816513,32.905132 26.966202,31.037443 28.115891,29.169754 
	C28.266800,28.865507 28.417707,28.561258 29.130466,28.069424 
	C32.746284,25.506783 35.800251,23.131731 38.879135,21.153885 
	C38.097107,23.057566 37.396439,24.634027 36.460358,26.055458 
	C34.692791,28.739491 32.789799,31.334339 30.669556,34.148071 
	C28.929321,35.878777 27.462620,37.427670 25.721058,39.180305 
	C23.618460,41.567276 21.790722,43.750500 19.962986,45.933723 
z" data-index="14"></path>
<path fill="#952DA7" opacity="1.000000" stroke="none" d="
M89.078812,22.813770 
	C86.474770,20.134151 83.870720,17.454531 81.125053,14.486357 
	C85.739456,17.480177 90.786980,20.421892 95.154045,24.158817 
	C98.324448,26.871744 100.594330,30.637043 103.564461,34.358772 
	C103.924675,35.222683 103.986168,35.660931 104.021423,36.417938 
	C103.970940,37.164581 103.946693,37.592464 103.715401,37.955803 
	C102.996597,38.230061 102.484840,38.568863 101.799164,38.653023 
	C100.787315,37.237709 99.949371,36.077034 99.020126,34.568851 
	C96.619011,30.824348 94.309204,27.427353 91.722031,23.875011 
	C90.656044,23.417700 89.867432,23.115736 89.078812,22.813770 
z" data-index="15"></path>
<path fill="#7D27A5" opacity="1.000000" stroke="none" d="
M8.057043,82.373161 
	C8.568985,83.812653 8.876543,85.615585 9.198803,88.257217 
	C9.256380,92.400673 9.299254,95.705444 9.273930,99.448296 
	C9.213696,102.524162 9.221664,105.161934 9.179945,108.230789 
	C9.456244,110.786026 9.782232,112.910179 10.137888,115.380692 
	C10.212988,116.420807 10.258419,117.114555 10.302542,118.104065 
	C10.516483,118.938774 10.731734,119.477715 10.971896,120.378006 
	C11.046226,121.460533 11.095643,122.181717 10.970815,123.104538 
	C10.530420,123.540268 10.264272,123.774361 9.998123,124.008453 
	C9.050903,118.045853 7.550495,112.106903 7.294247,106.114754 
	C6.961946,98.344208 7.620595,90.531281 8.057043,82.373161 
z" data-index="16"></path>
<path fill="#3C338E" opacity="1.000000" stroke="none" d="
M104.047661,36.099174 
	C103.986168,35.660931 103.924675,35.222683 103.901039,34.454597 
	C107.452370,26.970266 112.231651,20.963362 119.724625,17.173611 
	C118.772285,18.948790 117.469612,20.649424 115.713470,22.788399 
	C113.804115,24.814428 112.348236,26.402119 110.664017,28.255650 
	C109.932800,30.340443 109.429916,32.159393 108.752663,34.194817 
	C108.348953,34.914001 108.119606,35.416710 107.504761,35.926414 
	C106.095390,35.988663 105.071526,36.043919 104.047661,36.099174 
z" data-index="17"></path>
<path fill="#7A28DB" opacity="1.000000" stroke="none" d="
M55.489037,183.867859 
	C51.755585,181.105026 48.459621,178.398422 45.468399,175.361053 
	C47.516304,175.018768 49.259468,175.007278 51.272705,175.211716 
	C53.695240,176.619034 55.847698,177.810425 58.205589,179.260925 
	C59.942081,180.343719 61.473145,181.167389 63.002762,182.295593 
	C62.999947,183.006149 62.998577,183.412170 62.997208,183.818207 
	C60.640316,183.853485 58.283424,183.888779 55.489037,183.867859 
z" data-index="18" style="opacity: 1;"></path>
<path fill="#31169F" opacity="1.000000" stroke="none" d="
M99.162560,166.646729 
	C98.709755,165.401199 98.542274,163.993286 98.270363,161.932724 
	C97.376495,158.427017 96.451210,155.602570 95.841736,152.711563 
	C95.375755,150.501236 95.309273,148.206680 95.271454,146.114548 
	C95.909271,146.583267 96.340714,146.887054 96.854004,147.537201 
	C98.943718,151.601608 100.951591,155.319626 103.019661,159.322906 
	C103.201195,159.977219 103.322533,160.346313 103.314774,160.810852 
	C103.185692,160.906311 102.934860,161.106781 102.934860,161.106781 
	C101.772537,162.899292 100.610207,164.691803 99.162560,166.646729 
z" data-index="19" style="opacity: 1;"></path>
<path fill="#4551A4" opacity="1.000000" stroke="none" d="
M162.427399,17.818089 
	C162.138794,17.132109 162.043991,16.492218 161.936142,15.526728 
	C169.703033,17.847338 174.156128,24.204418 178.887451,30.675596 
	C174.574997,27.389690 170.183716,23.767281 165.361237,19.719687 
	C164.289520,18.848843 163.649002,18.403181 163.008484,17.957520 
	C163.008484,17.957518 162.621185,17.864180 162.427399,17.818089 
z" data-index="20"></path>
<path fill="#37258F" opacity="1.000000" stroke="none" d="
M123.717056,69.865898 
	C122.038025,73.507423 120.359001,77.148956 118.309372,80.617783 
	C117.699356,78.924400 117.459930,77.403709 117.204094,75.478714 
	C117.158226,73.718971 117.128777,72.363533 117.293030,70.763672 
	C118.979126,70.029984 120.471512,69.540718 122.154564,69.205994 
	C122.802505,69.528976 123.259781,69.697441 123.717056,69.865898 
z" data-index="21" style="opacity: 1;"></path>
<path fill="#811F86" opacity="1.000000" stroke="none" d="
M38.854221,20.756678 
	C35.800251,23.131731 32.746284,25.506783 29.358173,27.943846 
	C33.075932,21.782042 38.072983,16.666847 45.646202,14.144354 
	C44.418743,15.519931 42.826584,16.896759 40.801262,18.682976 
	C39.863476,19.647137 39.358849,20.201906 38.854221,20.756678 
z" data-index="22"></path>
<path fill="#423E9D" opacity="1.000000" stroke="none" d="
M123.814682,69.518829 
	C123.259781,69.697441 122.802505,69.528976 122.162552,68.784233 
	C121.981766,66.809319 121.983658,65.410683 122.257126,63.877800 
	C123.358353,63.183697 124.188004,62.623844 125.328522,61.977253 
	C126.757179,60.954079 127.874977,60.017643 129.382950,59.069427 
	C131.047211,58.890484 132.321320,58.723312 133.696228,58.666424 
	C133.797043,58.776703 133.999191,58.996780 133.999191,58.996780 
	C130.636902,62.388435 127.274597,65.780090 123.814682,69.518829 
z" data-index="23"></path>
<path fill="#2058AB" opacity="1.000000" stroke="none" d="
M181.335022,161.821350 
	C182.518784,156.237976 183.425125,150.512527 181.029312,144.382141 
	C186.441391,148.946976 186.613037,153.637009 181.335022,161.821350 
z" data-index="24" style="opacity: 1;"></path>
<path fill="#6C40CD" opacity="1.000000" stroke="none" d="
M117.004868,101.666428 
	C117.047386,106.050537 117.029579,110.111740 116.760010,114.466408 
	C116.004677,114.502899 115.501099,114.245934 114.989578,113.619904 
	C114.321693,111.498260 113.661743,109.745682 113.005661,107.592712 
	C113.938004,104.814102 114.866478,102.435883 116.047272,100.055893 
	C116.467735,100.048874 116.635872,100.043640 116.804008,100.038406 
	C116.850845,100.473450 116.897690,100.908485 117.004868,101.666428 
z" data-index="25" style="opacity: 1;"></path>
<path fill="#2058AB" opacity="1.000000" stroke="none" d="
M170.840942,130.026733 
	C171.030457,130.007187 171.220001,129.987625 171.692627,129.931976 
	C174.296310,133.357330 176.616913,136.818802 178.974380,140.633698 
	C177.903427,140.731430 176.795609,140.475723 175.287582,139.748535 
	C173.592819,137.180283 172.298264,135.083496 170.997345,132.616150 
	C170.940948,131.505966 170.890945,130.766342 170.840942,130.026733 
z" data-index="26"></path>
<path fill="#6C40CD" opacity="1.000000" stroke="none" d="
M117.220505,75.883026 
	C117.459930,77.403709 117.699356,78.924400 117.977943,80.754623 
	C117.985558,83.100334 117.954010,85.136497 117.703201,87.797455 
	C116.999313,88.956528 116.514671,89.490814 115.839996,89.759766 
	C115.423813,88.664337 115.197678,87.834244 115.007904,86.641907 
	C115.769684,82.814125 116.495094,79.348572 117.220505,75.883026 
z" data-index="27" style="opacity: 1;"></path>
<path fill="#6728C8" opacity="1.000000" stroke="none" d="
M82.169586,178.172958 
	C81.279182,179.268005 80.388779,180.363037 79.260101,181.653503 
	C76.924911,182.545609 74.828011,183.242249 72.359123,183.529480 
	C71.992554,182.420563 71.997963,181.721085 72.005035,181.012665 
	C72.006691,181.003738 72.020638,181.003036 72.401993,180.991058 
	C75.849411,179.979156 78.915474,178.979233 82.028580,178.027679 
	C82.075638,178.076050 82.169586,178.172958 82.169586,178.172958 
z" data-index="28" style="opacity: 1;"></path>
<path fill="#203D9B" opacity="1.000000" stroke="none" d="
M112.241486,172.249786 
	C115.333313,174.346481 118.543610,176.760818 121.873039,179.472198 
	C118.781433,177.368622 115.570694,174.968018 112.241486,172.249786 
z" data-index="29"></path>
<path fill="#4338A9" opacity="1.000000" stroke="none" d="
M116.030029,90.025101 
	C116.514671,89.490814 116.999313,88.956528 117.678848,88.234680 
	C117.579582,91.826256 117.285439,95.605385 116.897652,99.711456 
	C116.635872,100.043640 116.467735,100.048874 116.096085,99.612289 
	C115.875267,97.113014 115.857964,95.055550 115.893250,92.628357 
	C115.973907,91.514130 116.001976,90.769615 116.030029,90.025101 
z" data-index="30" style="opacity: 1;"></path>
<path fill="#6C22D9" opacity="1.000000" stroke="none" d="
M72.003372,181.021591 
	C71.997963,181.721085 71.992554,182.420563 71.981247,183.469666 
	C69.278358,183.866837 66.581383,183.914398 63.440804,183.890076 
	C62.998577,183.412170 62.999947,183.006149 63.426960,182.297760 
	C66.569527,181.670807 69.286446,181.346191 72.003372,181.021591 
z" data-index="31" style="opacity: 1;"></path>
<path fill="#1A3883" opacity="1.000000" stroke="none" d="
M169.864197,125.656807 
	C167.883514,125.042915 165.856888,124.092247 163.488098,123.092995 
	C163.806152,122.043777 164.466400,121.043159 165.490387,119.491264 
	C167.199921,121.793663 168.509079,123.556847 169.864197,125.656807 
z" data-index="32"></path>
<path fill="#203D9B" opacity="1.000000" stroke="none" d="
M106.051056,165.354752 
	C107.951447,167.079773 109.925545,169.148849 111.977768,171.556168 
	C110.078850,169.829208 108.101807,167.764008 106.051056,165.354752 
z" data-index="33"></path>
<path fill="#9523A1" opacity="1.000000" stroke="none" d="
M70.705093,10.728342 
	C66.635643,11.018195 62.251301,11.032604 57.398643,11.008686 
	C61.416954,10.797871 65.903580,10.625384 70.705093,10.728342 
z" data-index="34"></path>
<path fill="#9523A1" opacity="1.000000" stroke="none" d="
M79.680946,13.794582 
	C77.729752,13.273907 75.516129,12.524209 73.140564,11.470315 
	C75.125259,11.965933 77.271889,12.765746 79.680946,13.794582 
z" data-index="35"></path>
<path fill="#811F86" opacity="1.000000" stroke="none" d="
M27.812298,29.313171 
	C26.966202,31.037443 25.816513,32.905132 24.364281,34.908535 
	C25.210726,33.181698 26.359715,31.319145 27.812298,29.313171 
z" data-index="36"></path>
<path fill="#7D27A5" opacity="1.000000" stroke="none" d="
M9.089357,75.394577 
	C9.089389,76.611946 8.969962,78.173378 8.572683,79.890381 
	C8.519853,78.610184 8.744875,77.174408 9.089357,75.394577 
z" data-index="37"></path>
<path fill="#A034B4" opacity="1.000000" stroke="none" d="
M10.029309,124.338203 
	C10.264272,123.774361 10.530420,123.540268 11.223009,123.241974 
	C12.098429,123.784073 12.547407,124.390358 12.838617,125.179276 
	C12.466640,125.603310 12.235449,125.827179 11.987277,126.033524 
	C11.601927,126.013443 11.216576,125.993362 10.541862,125.974228 
	C10.188499,125.539429 10.124496,125.103691 10.029309,124.338203 
z" data-index="38"></path>
<path fill="#7D27A5" opacity="1.000000" stroke="none" d="
M27.721500,161.995209 
	C27.103693,161.969666 26.485886,161.944107 25.559937,161.889755 
	C25.251797,161.860962 25.082390,161.481476 25.037605,161.011566 
	C24.994085,160.362228 24.995350,160.182816 24.996613,160.003387 
	C24.996613,160.003387 25.028067,159.972809 25.348944,160.012329 
	C26.353714,160.699631 27.037605,161.347427 27.721500,161.995209 
z" data-index="39"></path>
<path fill="#7D27A5" opacity="1.000000" stroke="none" d="
M10.819765,66.336571 
	C10.907146,67.244820 10.741074,68.387650 10.395375,69.743286 
	C10.332603,68.827782 10.449456,67.699471 10.819765,66.336571 
z" data-index="40"></path>
<path fill="#4551A4" opacity="1.000000" stroke="none" d="
M181.910645,34.710300 
	C181.513199,35.017609 181.107956,35.003487 180.400803,34.979340 
	C180.043457,34.231884 179.988022,33.494461 179.963348,32.387833 
	C180.630356,32.808708 181.266602,33.598789 181.910645,34.710300 
z" data-index="41"></path>
<path fill="#1A3883" opacity="1.000000" stroke="none" d="
M162.751282,123.298218 
	C162.621826,124.075439 162.194931,124.960686 161.486511,125.973145 
	C161.621277,125.202316 162.037567,124.304283 162.751282,123.298218 
z" data-index="42"></path>
<path fill="#2058AB" opacity="1.000000" stroke="none" d="
M175.330978,168.957367 
	C175.456314,168.387268 175.912048,167.776886 176.645294,167.064423 
	C176.502319,167.613922 176.081848,168.265518 175.330978,168.957367 
z" data-index="43"></path>
<path fill="#7D27A5" opacity="1.000000" stroke="none" d="
M9.780357,71.235519 
	C9.887621,71.842735 9.731555,72.645668 9.401205,73.704315 
	C9.323624,73.117104 9.420326,72.274170 9.780357,71.235519 
z" data-index="44"></path>
<path fill="#2058AB" opacity="1.000000" stroke="none" d="
M178.299988,165.866211 
	C178.420212,165.351578 178.820938,164.768280 179.475311,164.075958 
	C179.346130,164.577133 178.963318,165.187332 178.299988,165.866211 
z" data-index="45"></path>
<path fill="#203D9B" opacity="1.000000" stroke="none" d="
M103.995689,162.327576 
	C104.286690,162.475891 104.606407,162.903259 104.971329,163.595200 
	C104.685829,163.442062 104.355118,163.024338 103.995689,162.327576 
z" data-index="46"></path>
<path fill="#1A3883" opacity="1.000000" stroke="none" d="
M156.893631,131.488190 
	C156.899200,131.828506 156.669250,132.282043 156.211060,132.865570 
	C156.207916,132.530838 156.433014,132.066116 156.893631,131.488190 
z" data-index="47"></path>
<path fill="#811F86" opacity="1.000000" stroke="none" d="
M23.806248,35.220093 
	C23.827461,35.576847 23.601866,36.091465 23.151217,36.788399 
	C23.137253,36.439793 23.348347,35.908875 23.806248,35.220093 
z" data-index="48"></path>
<path fill="#4551A4" opacity="1.000000" stroke="none" d="
M183.831924,37.795391 
	C183.536545,37.659576 183.239914,37.258663 182.935059,36.604351 
	C183.228119,36.744064 183.529388,37.137177 183.831924,37.795391 
z" data-index="49"></path>
<path fill="#4551A4" opacity="1.000000" stroke="none" d="
M184.779129,39.733688 
	C184.455505,39.575340 184.195694,39.125256 183.922287,38.410362 
	C184.220108,38.577686 184.531525,39.009819 184.779129,39.733688 
z" data-index="50"></path>
<path fill="#2058AB" opacity="1.000000" stroke="none" d="
M177.198120,166.850082 
	C177.099258,166.637863 177.284882,166.411179 177.719742,166.124603 
	C177.883545,166.359421 177.721436,166.616394 177.198120,166.850082 
z" data-index="51"></path>
<path fill="#4551A4" opacity="1.000000" stroke="none" d="
M161.527771,14.986671 
	C161.536331,15.109958 161.144913,15.005657 161.113525,14.903364 
	C161.082138,14.801070 161.519226,14.863385 161.527771,14.986671 
z" data-index="52"></path>
<path fill="#423E9D" opacity="1.000000" stroke="none" d="
M134.003448,57.708447 
	C134.183151,57.757149 134.362869,57.805855 134.808075,57.942375 
	C134.871078,58.291454 134.668564,58.552711 134.232620,58.905376 
	C133.999191,58.996780 133.797043,58.776703 133.805725,58.458641 
	C133.814407,58.140575 134.003448,57.708447 134.003448,57.708447 
z" data-index="53"></path>
<path fill="#203D9B" opacity="1.000000" stroke="none" d="
M105.184265,164.231079 
	C105.403900,164.143402 105.629112,164.345856 105.894943,164.817871 
	C105.670113,164.931915 105.421547,164.743164 105.184265,164.231079 
z" data-index="54"></path>
<path fill="#2058AB" opacity="1.000000" stroke="none" d="
M180.274185,162.915283 
	C180.174072,162.706741 180.357559,162.473053 180.772400,162.150269 
	C180.968216,162.386902 180.819565,162.663223 180.274185,162.915283 
z" data-index="55"></path>
<path fill="#203D9B" opacity="1.000000" stroke="none" d="
M104.146301,161.081924 
	C104.146301,161.081924 104.058693,161.554733 103.998596,161.787048 
	C103.612724,161.955261 103.350975,161.789886 103.044052,161.315002 
	C102.934860,161.106781 103.185692,160.906311 103.492455,160.897644 
	C103.799217,160.888992 104.146301,161.081924 104.146301,161.081924 
z" data-index="56"></path>
<path fill="#6C29B3" opacity="1.000000" stroke="none" d="
M24.717537,160.009064 
	C24.995350,160.182816 24.994085,160.362228 24.983185,160.811035 
	C24.683283,160.895538 24.393017,160.710678 23.991957,160.286743 
	C24.066931,160.036682 24.252697,160.025726 24.717537,160.009064 
z" data-index="57"></path>
<path fill="#1A3883" opacity="1.000000" stroke="none" d="
M157.942139,130.514008 
	C158.090393,130.710266 157.985275,130.890396 157.629974,131.058136 
	C157.475998,130.861145 157.578964,130.678528 157.942139,130.514008 
z" data-index="58"></path>
<path fill="#2058AB" opacity="1.000000" stroke="none" d="
M180.785065,142.742767 
	C180.544327,142.812271 180.356888,142.611130 180.110931,142.194550 
	C180.379440,142.018631 180.641434,142.182953 180.785065,142.742767 
z" data-index="59"></path>
<path fill="#2058AB" opacity="1.000000" stroke="none" d="
M179.910095,141.744858 
	C179.697403,141.843796 179.452347,141.648285 179.132645,141.190582 
	C179.361572,141.039963 179.634827,141.213974 179.910095,141.744858 
z" data-index="60"></path>
<path fill="#4338A9" opacity="1.000000" stroke="none" d="
M135.908386,137.830551 
	C135.806885,137.905670 135.644989,137.828033 135.423553,137.625946 
	C135.549210,137.483810 135.710541,137.542572 135.908386,137.830551 
z" data-index="61"></path>
<path fill="#1A3883" opacity="1.000000" stroke="none" d="
M160.866821,126.277695 
	C161.050400,126.503410 160.935745,126.716698 160.563141,126.964645 
	C160.292847,126.735062 160.380646,126.490387 160.866821,126.277695 
z" data-index="62"></path>
<path fill="#1A3883" opacity="1.000000" stroke="none" d="
M170.652420,126.835381 
	C170.388657,126.940392 170.201324,126.756538 170.043213,126.305237 
	C170.316635,126.155266 170.535431,126.324844 170.652420,126.835381 
z" data-index="63"></path>
<path fill="#1A3883" opacity="1.000000" stroke="none" d="
M159.725616,128.056046 
	C159.862366,128.268723 159.696777,128.527039 159.296875,128.898773 
	C159.241257,128.746140 159.361496,128.442657 159.725616,128.056046 
z" data-index="64"></path>
<path fill="#1A3883" opacity="1.000000" stroke="none" d="
M158.919586,129.263748 
	C159.101807,129.452026 159.002090,129.684387 158.617188,129.953857 
	C158.435089,129.761810 158.536957,129.534103 158.919586,129.263748 
z" data-index="65"></path>
<path fill="#5F68DF" opacity="1.000000" stroke="none" d="
M133.952591,15.975585 
	C135.068527,15.007295 136.184464,14.039006 137.647476,13.045523 
	C143.864273,15.061388 144.269241,19.721291 144.293732,25.016624 
	C144.306091,27.689035 145.964172,30.332369 146.747375,33.026855 
	C148.805954,40.109051 150.792892,47.212078 152.884888,54.690796 
	C150.836044,54.520878 148.710724,53.966969 146.246826,52.857727 
	C144.658859,50.236320 142.993530,48.311615 142.234589,46.078819 
	C139.474777,37.959488 136.698135,29.913132 130.013351,23.626675 
	C131.333603,20.828783 132.643097,18.402185 133.952591,15.975585 
z" data-index="66"></path>
<path fill="#5D65C6" opacity="1.000000" stroke="none" d="
M163.125793,18.241135 
	C163.649002,18.403181 164.289520,18.848843 165.062912,19.566582 
	C164.544876,19.400692 163.893982,18.962721 163.125793,18.241135 
z" data-index="67"></path>
<path fill="#1B65DC" opacity="1.000000" stroke="none" d="
M179.024231,149.014954 
	C179.022125,149.761688 179.020020,150.508408 178.615753,151.631470 
	C173.638489,154.290695 166.740784,155.471725 165.016220,159.106934 
	C162.218994,165.003250 158.378372,165.628693 153.390762,165.998749 
	C150.864838,166.186142 139.959534,175.254700 138.621765,177.987396 
	C136.397980,177.306320 134.546921,176.636032 133.999344,176.437744 
	C133.999344,172.049347 133.999344,169.026199 134.100433,165.670624 
	C139.757828,161.155304 144.851425,156.401733 151.887482,154.368454 
	C154.740143,153.544113 157.584839,151.192978 159.449768,148.777390 
	C162.822174,144.409195 169.301727,141.591156 174.996719,143.008636 
	C175.534180,143.537384 176.071625,144.066147 176.872284,145.121552 
	C177.765060,146.770462 178.394653,147.892700 179.024231,149.014954 
z" data-index="68" style="opacity: 1;"></path>
<path fill="#2160D9" opacity="1.000000" stroke="none" d="
M174.999496,142.625488 
	C169.301727,141.591156 162.822174,144.409195 159.449768,148.777390 
	C157.584839,151.192978 154.740143,153.544113 151.887482,154.368454 
	C144.851425,156.401733 139.757828,161.155304 133.717484,165.754303 
	C128.647781,167.295029 122.795547,166.774002 122.963501,174.074814 
	C121.549820,173.741287 120.136147,173.407761 118.372635,172.652176 
	C118.769493,170.253708 119.369225,168.205734 120.290108,166.314117 
	C123.188202,160.361023 129.383987,158.959412 134.587662,156.226639 
	C138.857605,153.984222 142.562683,151.362167 143.371399,145.921783 
	C149.622711,145.097549 154.005005,142.102036 157.011703,137.033920 
	C158.853958,135.176620 160.696198,133.319321 163.150330,131.270508 
	C166.176056,131.714905 168.589890,132.350800 171.003723,132.986694 
	C172.298264,135.083496 173.592819,137.180283 174.973343,139.608521 
	C175.040298,140.707413 175.021286,141.474884 174.999496,142.625488 
z" data-index="69" style="opacity: 1;"></path>
<path fill="#166BDC" opacity="1.000000" stroke="none" d="
M138.994507,177.998169 
	C139.959534,175.254700 150.864838,166.186142 153.390762,165.998749 
	C158.378372,165.628693 162.218994,165.003250 165.016220,159.106934 
	C166.740784,155.471725 173.638489,154.290695 178.610962,152.004822 
	C176.476852,161.570007 171.621307,169.408768 162.682922,174.322693 
	C159.355331,176.152054 156.390045,179.022705 152.864960,180.010971 
	C148.734100,181.169037 144.173050,180.792694 139.396530,180.665100 
	C138.994476,179.498260 138.994492,178.748215 138.994507,177.998169 
z" data-index="70" style="opacity: 1;"></path>
<path fill="#1B64D7" opacity="1.000000" stroke="none" d="
M138.621765,177.987396 
	C138.994492,178.748215 138.994476,179.498260 138.991425,180.623230 
	C136.615494,181.004349 134.242569,181.010529 131.423279,181.025085 
	C130.976898,181.033478 130.986603,181.012680 130.855164,180.700027 
	C129.151733,179.594299 127.579727,178.801208 126.007721,178.008118 
	C126.007721,178.008133 125.999245,178.001419 125.887596,177.706924 
	C124.844505,176.621323 123.913055,175.830215 122.981606,175.039124 
	C122.981606,175.039124 122.967850,174.556198 122.965675,174.315506 
	C122.795547,166.774002 128.647781,167.295029 133.616394,166.086731 
	C133.999344,169.026199 133.999344,172.049347 133.999344,176.437744 
	C134.546921,176.636032 136.397980,177.306320 138.621765,177.987396 
z" data-index="71"></path>
<path fill="#2160D9" opacity="1.000000" stroke="none" d="
M179.179993,148.752731 
	C178.394653,147.892700 177.765060,146.770462 177.064117,145.329285 
	C177.773758,146.170425 178.554749,147.330460 179.179993,148.752731 
z" data-index="72"></path>
<path fill="#5559CF" opacity="1.000000" stroke="none" d="
M118.019646,24.000103 
	C119.113754,23.676422 120.207855,23.352741 121.876053,23.249790 
	C124.963097,26.650099 127.476051,29.829679 130.023926,33.383659 
	C132.707108,40.517899 135.355392,47.277740 138.003662,54.037579 
	C136.893204,54.669472 135.782730,55.301365 134.181305,55.647556 
	C129.173462,47.340981 124.984093,39.105854 119.956001,31.419382 
	C118.273331,28.847075 116.846916,26.979025 118.019646,24.000103 
z" data-index="73"></path>
<path fill="#5B62DA" opacity="1.000000" stroke="none" d="
M138.401001,53.993729 
	C135.355392,47.277740 132.707108,40.517899 129.942535,32.998924 
	C129.885025,29.492517 129.943802,26.745241 130.002594,23.997967 
	C136.698135,29.913132 139.474777,37.959488 142.234589,46.078819 
	C142.993530,48.311615 144.658859,50.236320 145.937485,52.671604 
	C143.577240,53.343830 141.187790,53.646851 138.401001,53.993729 
z" data-index="74"></path>
<path fill="#5051C3" opacity="1.000000" stroke="none" d="
M117.725555,23.913786 
	C116.846916,26.979025 118.273331,28.847075 119.956001,31.419382 
	C124.984093,39.105854 129.173462,47.340981 133.846924,55.671974 
	C134.004150,56.367397 134.004807,56.752701 134.004456,57.423225 
	C134.003448,57.708447 133.814407,58.140575 133.704910,58.348358 
	C132.321320,58.723312 131.047211,58.890484 129.380829,58.799538 
	C128.986694,58.362061 128.984833,58.182693 128.902924,57.619713 
	C128.089722,54.041111 127.730782,50.697144 126.532494,47.687344 
	C124.886055,43.551888 123.776001,38.621918 117.763504,37.749710 
	C115.317429,34.329453 113.104897,31.159632 110.892349,27.989807 
	C112.348236,26.402119 113.804115,24.814428 115.545677,23.072430 
	C116.364723,23.221233 116.898094,23.524349 117.725555,23.913786 
z" data-index="75"></path>
<path fill="#5C60D5" opacity="1.000000" stroke="none" d="
M130.013336,23.626675 
	C129.943802,26.745241 129.885025,29.492517 129.907623,32.624527 
	C127.476051,29.829679 124.963097,26.650099 122.219452,23.221970 
	C123.562660,17.398970 125.559746,16.144089 133.532349,15.979780 
	C132.643097,18.402185 131.333603,20.828783 130.013336,23.626675 
z" data-index="76"></path>
<path fill="#3F50D9" opacity="1.000000" stroke="none" d="
M104.501862,161.059235 
	C104.146301,161.081924 103.799217,160.888992 103.621536,160.802185 
	C103.322533,160.346313 103.201195,159.977219 103.029930,158.881195 
	C102.930229,156.670380 103.240807,155.058594 102.767441,153.725082 
	C100.858185,148.346512 103.162560,145.044006 107.547211,142.225830 
	C110.985680,140.015808 114.660683,137.738602 117.152061,134.627533 
	C119.155724,132.125473 120.915863,130.728668 123.997154,130.962860 
	C123.997154,130.962860 124.085655,130.962540 124.168716,131.290894 
	C125.187019,132.707092 126.122261,133.794952 127.057503,134.882797 
	C127.899055,135.436646 128.740616,135.990509 129.803772,136.749054 
	C130.030121,137.714447 130.034851,138.475174 129.712708,139.531250 
	C125.358246,136.519333 123.114166,137.918762 120.616402,142.149658 
	C118.781616,145.257538 115.670746,148.137543 112.446304,149.778305 
	C107.412918,152.339569 105.517639,155.629700 107.003624,160.974701 
	C106.288223,160.995316 105.572815,161.015930 104.501862,161.059235 
z" data-index="77" style="opacity: 1;"></path>
<path fill="#3356D9" opacity="1.000000" stroke="none" d="
M107.259674,161.167267 
	C105.517639,155.629700 107.412918,152.339569 112.446304,149.778305 
	C115.670746,148.137543 118.781616,145.257538 120.616402,142.149658 
	C123.114166,137.918762 125.358246,136.519333 129.717407,139.910934 
	C132.162018,140.189789 134.275024,140.384323 136.541870,140.996399 
	C136.464005,141.943039 136.232315,142.472137 135.730759,143.201752 
	C133.358902,145.188232 131.446655,147.287537 129.117386,148.698242 
	C123.364319,152.182556 117.370644,155.268921 111.603989,158.732224 
	C110.699989,159.275162 110.478065,160.953781 109.940758,162.107285 
	C109.132416,161.858124 108.324074,161.608963 107.259674,161.167267 
z" data-index="78"></path>
<path fill="#2C5BCF" opacity="1.000000" stroke="none" d="
M136.000610,143.001221 
	C136.232315,142.472137 136.464005,141.943039 136.882721,141.188614 
	C144.211029,143.465286 149.975281,138.913544 156.653625,137.121979 
	C154.005005,142.102036 149.622711,145.097549 143.062958,145.768723 
	C140.254395,144.799164 138.127502,143.900192 136.000610,143.001221 
z" data-index="79" style="opacity: 1;"></path>
<path fill="#2C5BCF" opacity="1.000000" stroke="none" d="
M170.997345,132.616135 
	C168.589890,132.350800 166.176056,131.714905 163.388855,131.045395 
	C164.656616,126.032211 167.648041,129.356201 170.509827,129.936829 
	C170.890945,130.766342 170.940948,131.505966 170.997345,132.616135 
z" data-index="80"></path>
<path fill="#CC2ED2" opacity="1.000000" stroke="none" d="
M38.879135,21.153885 
	C39.358849,20.201906 39.863476,19.647137 40.618446,18.953627 
	C42.015743,18.965458 43.266960,19.489016 44.291744,19.202547 
	C48.926357,17.906981 53.496956,16.382416 58.975262,14.956353 
	C63.561260,14.986369 67.262611,15.000359 70.963959,15.014349 
	C71.416061,15.019496 71.868156,15.024644 72.791443,15.340647 
	C76.242332,17.682848 79.320961,19.585762 82.173004,21.782818 
	C84.853493,23.847713 85.423431,25.968607 81.603889,27.632809 
	C80.437286,28.141108 79.264618,28.913141 78.430962,29.860327 
	C74.642479,34.164726 71.272552,38.888466 67.141464,42.819729 
	C64.944145,44.910759 61.623226,46.119942 58.596909,46.973579 
	C53.580315,48.388615 48.324791,48.958237 43.311401,50.382141 
	C41.461979,50.907413 39.897144,52.721886 38.404572,54.158314 
	C34.987320,57.447014 32.154388,61.626556 28.215187,64.005280 
	C24.646906,66.160019 20.594461,67.075775 19.518934,71.905144 
	C19.360138,72.618179 17.655607,73.567726 16.888237,73.398880 
	C16.141432,73.234566 15.132783,71.723030 15.210948,70.894753 
	C15.356685,69.350433 16.056971,67.793579 16.797977,66.384758 
	C18.062685,63.980255 18.896646,61.768600 15.941525,59.988094 
	C15.948770,59.544907 15.956014,59.101723 16.285782,58.171082 
	C17.065041,56.448208 17.521772,55.212784 17.978506,53.977360 
	C18.208971,53.473892 18.439434,52.970421 19.146767,52.139008 
	C25.349001,49.819431 24.791561,44.431889 26.347157,40.117249 
	C27.427149,41.227085 28.155163,42.230534 28.908533,43.214561 
	C29.782114,44.355606 30.677965,45.479603 31.564148,46.610996 
	C32.681976,45.192997 34.947807,43.513107 34.695621,42.407658 
	C34.023582,39.461811 32.267937,36.763168 30.943089,33.966251 
	C32.789799,31.334339 34.692791,28.739491 36.460358,26.055458 
	C37.396439,24.634027 38.097107,23.057566 38.879135,21.153885 
z" data-index="81" style="opacity: 1; visibility: visible; display: block;"></path>
<path fill="#C52FD1" opacity="1.000000" stroke="none" d="
M15.748305,60.299118 
	C18.896646,61.768600 18.062685,63.980255 16.797977,66.384758 
	C16.056971,67.793579 15.356685,69.350433 15.210948,70.894753 
	C15.132783,71.723030 16.141432,73.234566 16.888237,73.398880 
	C17.655607,73.567726 19.360138,72.618179 19.518934,71.905144 
	C20.594461,67.075775 24.646906,66.160019 28.215187,64.005280 
	C32.154388,61.626556 34.987320,57.447014 38.404572,54.158314 
	C39.897144,52.721886 41.461979,50.907413 43.311401,50.382141 
	C48.324791,48.958237 53.580315,48.388615 58.596909,46.973579 
	C61.623226,46.119942 64.944145,44.910759 67.141464,42.819729 
	C71.272552,38.888466 74.642479,34.164726 78.430962,29.860327 
	C79.264618,28.913141 80.437286,28.141108 81.603889,27.632809 
	C85.423431,25.968607 84.853493,23.847713 82.173004,21.782818 
	C79.320961,19.585762 76.242332,17.682848 73.130524,15.344028 
	C77.813721,17.905067 82.629028,20.773582 87.801117,24.188910 
	C89.343094,27.739611 88.659767,30.181330 86.187622,32.308594 
	C83.187271,34.890373 80.332794,37.641804 77.418289,40.323185 
	C74.275375,43.214706 71.136017,46.110096 67.620377,49.086433 
	C54.516209,51.057968 45.691799,58.509895 38.629707,69.078957 
	C34.246189,69.659279 31.552551,71.530037 30.948774,75.842606 
	C30.825212,76.725166 30.210083,77.923584 29.482203,78.276466 
	C23.223383,81.310905 18.728811,86.037933 15.685415,92.958649 
	C13.819737,90.990448 12.381481,89.473160 10.943226,87.955864 
	C10.950496,87.216789 10.957766,86.477722 11.276222,85.219025 
	C11.711277,83.126656 11.835143,81.553909 11.959009,79.981163 
	C13.157701,73.524155 14.356394,67.067154 15.748305,60.299118 
z" data-index="82" style="opacity: 1; visibility: visible; display: block;"></path>
<path fill="#BE30D4" opacity="1.000000" stroke="none" d="
M67.995110,49.003799 
	C71.136017,46.110096 74.275375,43.214706 77.418289,40.323185 
	C80.332794,37.641804 83.187271,34.890373 86.187622,32.308594 
	C88.659767,30.181330 89.343094,27.739611 88.078735,24.375591 
	C88.250237,23.759695 88.500931,23.503931 88.915215,23.030968 
	C89.867432,23.115736 90.656044,23.417700 91.755905,24.253963 
	C93.710854,28.201332 95.354561,31.614401 96.945328,35.368633 
	C94.864418,37.771362 92.138313,39.494667 90.943802,41.960052 
	C87.785736,48.478085 81.668686,50.885845 75.612457,53.930801 
	C73.497520,53.560986 71.751266,53.274548 69.895508,52.687538 
	C69.189034,51.259247 68.592072,50.131523 67.995110,49.003799 
z" data-index="83" style="opacity: 1; visibility: visible; display: block;"></path>
<path fill="#C52FD1" opacity="1.000000" stroke="none" d="
M70.722977,14.721572 
	C67.262611,15.000359 63.561260,14.986369 59.391479,14.957111 
	C62.638264,11.667097 66.535149,12.485224 70.722977,14.721572 
z" data-index="84"></path>
<path fill="#922BDE" opacity="1.000000" stroke="none" d="
M27.963600,162.211777 
	C27.037605,161.347427 26.353714,160.699631 25.364695,159.997055 
	C24.964930,157.617615 24.870291,155.292953 25.171787,152.497864 
	C27.559864,150.756790 29.735624,149.697845 31.500343,148.165512 
	C34.098846,145.909195 36.001877,142.431030 38.938889,141.094604 
	C42.418247,139.511383 44.040009,137.282516 45.259087,134.178528 
	C47.025452,135.901230 48.517647,137.450287 49.992020,139.367188 
	C48.059639,143.111359 45.574318,146.294449 44.351883,149.905090 
	C41.965183,156.954544 37.380238,161.705551 30.981443,165.028229 
	C30.056196,164.161606 29.130949,163.294968 27.963600,162.211777 
z" data-index="85" style="opacity: 1;"></path>
<path fill="#892ADE" opacity="1.000000" stroke="none" d="
M31.151785,165.311813 
	C37.380238,161.705551 41.965183,156.954544 44.351883,149.905090 
	C45.574318,146.294449 48.059639,143.111359 50.324047,139.509888 
	C53.535984,141.070908 58.266663,140.112946 58.715836,145.110550 
	C57.317738,146.849274 56.283493,148.488358 55.142746,150.049622 
	C54.014542,151.593704 53.076855,153.760529 51.530151,154.417892 
	C47.956669,155.936691 46.936909,158.687164 45.990417,162.013947 
	C45.014565,165.443939 43.364120,168.682007 41.699707,172.067520 
	C40.605301,172.422455 39.820007,172.713913 39.034714,173.005371 
	C36.463852,170.535370 33.892990,168.065384 31.151785,165.311813 
z" data-index="86" style="opacity: 1;"></path>
<path fill="#8228E4" opacity="1.000000" stroke="none" d="
M42.008823,172.004044 
	C43.364120,168.682007 45.014565,165.443939 45.990417,162.013947 
	C46.936909,158.687164 47.956669,155.936691 51.530151,154.417892 
	C53.076855,153.760529 54.014542,151.593704 55.142746,150.049622 
	C56.283493,148.488358 57.317738,146.849274 58.959995,145.106384 
	C59.521351,144.968460 60.010494,144.965317 60.008858,145.303223 
	C60.008480,146.091248 60.009731,146.541351 59.969070,147.399124 
	C56.952316,156.869797 53.977474,165.932785 51.002632,174.995789 
	C49.259468,175.007278 47.516304,175.018768 45.332783,175.051819 
	C44.892426,175.073349 44.443340,175.056335 44.125465,174.748734 
	C43.208004,173.628769 42.608414,172.816406 42.008823,172.004044 
z" data-index="87" style="opacity: 1;"></path>
<path fill="#7A28DB" opacity="1.000000" stroke="none" d="
M41.699707,172.067520 
	C42.608414,172.816406 43.208004,173.628769 43.901436,174.731354 
	C42.501808,174.510162 41.008343,173.998764 39.274796,173.246368 
	C39.820007,172.713913 40.605301,172.422455 41.699707,172.067520 
z" data-index="88"></path>
<path fill="#BD30D2" opacity="1.000000" stroke="none" d="
M10.663443,87.986671 
	C12.381481,89.473160 13.819737,90.990448 15.685415,92.958649 
	C18.728811,86.037933 23.223383,81.310905 29.482203,78.276466 
	C30.210083,77.923584 30.825212,76.725166 30.948774,75.842606 
	C31.552551,71.530037 34.246189,69.659279 38.675186,69.490364 
	C39.164337,70.367035 39.239353,70.913696 39.301868,71.849640 
	C38.762375,75.799171 38.235386,79.359406 37.476509,83.063950 
	C37.196144,84.167824 37.147663,85.127411 37.071716,86.433762 
	C36.765934,87.891960 36.487614,89.003403 35.840401,90.086121 
	C34.980286,90.040627 34.489063,90.023842 33.710571,89.815567 
	C26.325451,83.701233 23.109919,84.706100 21.005381,93.754608 
	C20.193325,97.246048 18.262093,98.882172 14.810841,98.955223 
	C12.988365,98.993797 11.165059,98.993149 9.342129,99.010208 
	C9.299254,95.705444 9.256380,92.400673 9.246683,88.658623 
	C9.647795,88.153381 10.015728,88.085426 10.663443,87.986671 
z" data-index="89" style="opacity: 1;"></path>
<path fill="#C52FD1" opacity="1.000000" stroke="none" d="
M26.006386,40.002274 
	C24.791561,44.431889 25.349001,49.819431 19.279282,51.895821 
	C19.255541,50.222176 19.576155,48.463768 19.929876,46.319542 
	C21.790722,43.750500 23.618460,41.567276 25.724106,39.436867 
	C26.003473,39.660549 26.004930,39.831413 26.006386,40.002274 
z" data-index="90"></path>
<path fill="#BD30D2" opacity="1.000000" stroke="none" d="
M11.770510,80.297119 
	C11.835143,81.553909 11.711277,83.126656 11.292513,84.849792 
	C11.192413,83.537819 11.387211,82.075447 11.770510,80.297119 
z" data-index="91"></path>
<path fill="#C52FD1" opacity="1.000000" stroke="none" d="
M17.708303,54.176105 
	C17.521772,55.212784 17.065041,56.448208 16.306870,57.839275 
	C16.482990,56.788231 16.960546,55.581539 17.708303,54.176105 
z" data-index="92"></path>
<path fill="#A82DD9" opacity="1.000000" stroke="none" d="
M12.072716,126.387314 
	C12.235449,125.827179 12.466640,125.603310 13.222436,125.144768 
	C16.355339,123.991623 20.284348,123.799721 21.294331,121.984062 
	C24.715834,115.833206 30.422474,115.848671 36.032700,115.390289 
	C37.051861,120.177246 38.030739,124.577888 38.620552,129.018311 
	C31.678782,130.825897 24.408300,131.457748 22.415743,140.009613 
	C22.203823,140.919159 20.103838,141.388763 18.879751,142.062469 
	C16.639219,136.955353 14.398687,131.848236 12.072716,126.387314 
z" data-index="93" style="opacity: 1;"></path>
<path fill="#9C2BDD" opacity="1.000000" stroke="none" d="
M18.920429,142.437225 
	C20.103838,141.388763 22.203823,140.919159 22.415743,140.009613 
	C24.408300,131.457748 31.678782,130.825897 38.945457,129.110107 
	C41.409649,130.115601 43.159874,131.069077 44.926559,132.352753 
	C44.956982,133.123611 44.970947,133.564240 44.984913,134.004883 
	C44.040009,137.282516 42.418247,139.511383 38.938889,141.094604 
	C36.001877,142.431030 34.098846,145.909195 31.500343,148.165512 
	C29.735624,149.697845 27.559864,150.756790 25.167194,152.061188 
	C20.614056,150.387253 19.672495,146.671585 18.920429,142.437225 
z" data-index="94" style="opacity: 1;"></path>
<path fill="#4A49D8" opacity="1.000000" stroke="none" d="
M123.933968,130.641510 
	C120.915863,130.728668 119.155724,132.125473 117.152061,134.627533 
	C114.660683,137.738602 110.985680,140.015808 107.547211,142.225830 
	C103.162560,145.044006 100.858185,148.346512 102.767441,153.725082 
	C103.240807,155.058594 102.930229,156.670380 102.969734,158.595947 
	C100.951591,155.319626 98.943718,151.601608 97.109665,147.265457 
	C99.650192,144.074509 102.036232,141.519058 104.373611,138.919861 
	C105.243973,137.952011 106.409782,136.998901 106.741592,135.839035 
	C108.684052,129.049149 113.864418,126.822914 120.107025,125.948250 
	C121.361610,127.405556 122.616196,128.862854 123.933968,130.641510 
z" data-index="95" style="opacity: 1;"></path>
<path fill="#5C43DA" opacity="1.000000" stroke="none" d="
M114.997520,113.988968 
	C115.501099,114.245934 116.004677,114.502899 116.760681,114.888351 
	C117.051064,116.065018 117.089027,117.113197 116.855133,118.786385 
	C113.198303,121.902946 109.464745,124.042503 106.510086,126.968582 
	C102.081299,131.354507 98.199371,136.292618 93.912407,140.678040 
	C93.105309,138.279938 92.470673,136.199692 92.089607,133.844742 
	C93.896347,129.897339 95.459663,126.273354 100.429985,126.379692 
	C100.945839,126.390732 101.503281,125.676582 101.998352,125.249039 
	C106.336967,121.502121 110.665794,117.743866 114.997520,113.988968 
z" data-index="96" style="opacity: 1;"></path>
<path fill="#5346D9" opacity="1.000000" stroke="none" d="
M94.084869,140.995895 
	C98.199371,136.292618 102.081299,131.354507 106.510086,126.968582 
	C109.464745,124.042503 113.198303,121.902946 116.849854,119.180130 
	C118.087898,121.045303 119.059380,123.141731 120.068939,125.593201 
	C113.864418,126.822914 108.684052,129.049149 106.741592,135.839035 
	C106.409782,136.998901 105.243973,137.952011 104.373611,138.919861 
	C102.036232,141.519058 99.650192,144.074509 97.027817,146.919083 
	C96.340714,146.887054 95.909271,146.583267 95.241501,145.755127 
	C94.698410,143.819122 94.391640,142.407516 94.084869,140.995895 
z" data-index="97" style="opacity: 1;"></path>
<path fill="#2D52B8" opacity="1.000000" stroke="none" d="
M127.018280,134.550629 
	C126.122261,133.794952 125.187019,132.707092 124.210770,131.304688 
	C125.106194,132.066238 126.042633,133.142349 127.018280,134.550629 
z" data-index="98"></path>
<path fill="#3E14AC" opacity="1.000000" stroke="none" d="
M93.912407,140.678040 
	C94.391640,142.407516 94.698410,143.819122 95.035141,145.590179 
	C95.309273,148.206680 95.375755,150.501236 95.841736,152.711563 
	C96.451210,155.602570 97.376495,158.427017 98.092697,161.626740 
	C97.570152,161.982574 97.120842,161.991760 96.253738,161.628723 
	C95.282501,159.185715 94.909264,157.045410 94.142036,155.057129 
	C91.791016,148.964371 89.556503,142.800156 86.713860,136.936584 
	C85.573166,134.583649 82.966637,132.941345 81.201584,130.694733 
	C83.790672,127.917374 86.205460,125.420860 88.732758,123.310951 
	C89.842186,127.171516 90.839111,130.645477 91.836037,134.119446 
	C92.470673,136.199692 93.105309,138.279938 93.912407,140.678040 
z" data-index="99" style="opacity: 1;"></path>
<path fill="#4D17B5" opacity="1.000000" stroke="none" d="
M81.027283,130.975586 
	C82.966637,132.941345 85.573166,134.583649 86.713860,136.936584 
	C89.556503,142.800156 91.791016,148.964371 94.142036,155.057129 
	C94.909264,157.045410 95.282501,159.185715 95.916908,161.631226 
	C95.528351,162.295349 95.058815,162.584747 94.127625,162.670898 
	C88.608223,155.872009 84.630669,148.839737 83.867577,140.296326 
	C83.726929,138.721664 82.671593,136.405045 81.487427,135.985260 
	C80.364708,135.587280 78.518799,137.229446 76.630707,137.949890 
	C75.797890,137.832703 75.325272,137.740036 74.947891,137.335449 
	C77.037849,135.007538 79.032562,132.991562 81.027283,130.975586 
z" data-index="100" style="opacity: 1;"></path>
<path fill="#581AC5" opacity="1.000000" stroke="none" d="
M76.990921,137.974426 
	C78.518799,137.229446 80.364708,135.587280 81.487427,135.985260 
	C82.671593,136.405045 83.726929,138.721664 83.867577,140.296326 
	C84.630669,148.839737 88.608223,155.872009 93.861221,162.750000 
	C92.943436,165.282349 91.830414,167.532364 90.372955,169.905975 
	C90.028526,170.029556 89.964149,169.996429 89.971207,169.596115 
	C89.005226,166.647217 88.063995,164.085846 87.047081,161.554886 
	C86.444862,160.056046 85.690872,158.618896 85.060745,157.130447 
	C82.359550,150.749863 79.678993,144.360565 76.990921,137.974426 
z" data-index="101" style="opacity: 1;"></path>
<path fill="#6728C8" opacity="1.000000" stroke="none" d="
M88.085922,173.079163 
	C86.316864,174.698395 84.547813,176.317642 82.474174,178.054916 
	C82.169586,178.172958 82.075638,178.076050 82.125504,177.697815 
	C84.099052,175.861893 86.022743,174.404205 87.981148,172.979858 
	C88.015862,173.013184 88.085922,173.079163 88.085922,173.079163 
z" data-index="102"></path>
<path fill="#6728C8" opacity="1.000000" stroke="none" d="
M90.060974,170.045609 
	C89.614716,170.971558 89.136009,171.881454 88.371613,172.935257 
	C88.085922,173.079163 88.015862,173.013184 88.022858,172.665802 
	C88.348053,171.545303 88.666245,170.772186 89.229462,169.998993 
	C89.474487,169.998917 89.964149,169.996429 89.964149,169.996429 
	C89.964149,169.996429 90.028526,170.029556 90.060974,170.045609 
z" data-index="103"></path>
<path fill="#295BD9" opacity="1.000000" stroke="none" d="
M135.730759,143.201752 
	C138.127502,143.900192 140.254395,144.799164 142.689728,145.851196 
	C142.562683,151.362167 138.857605,153.984222 134.587662,156.226639 
	C129.383987,158.959412 123.188202,160.361023 120.290108,166.314117 
	C119.369225,168.205734 118.769493,170.253708 118.010658,172.615234 
	C115.344391,169.601135 112.690254,166.201889 109.988441,162.454971 
	C110.478065,160.953781 110.699989,159.275162 111.603989,158.732224 
	C117.370644,155.268921 123.364319,152.182556 129.117386,148.698242 
	C131.446655,147.287537 133.358902,145.188232 135.730759,143.201752 
z" data-index="104" style="opacity: 1;"></path>
<path fill="#2069C6" opacity="1.000000" stroke="none" d="
M126.191856,178.289886 
	C127.579727,178.801208 129.151733,179.594299 130.848145,180.703918 
	C129.440353,180.204208 127.908173,179.387924 126.191856,178.289886 
z" data-index="105"></path>
<path fill="#2069C6" opacity="1.000000" stroke="none" d="
M123.033531,175.374374 
	C123.913055,175.830215 124.844505,176.621323 125.883118,177.704010 
	C125.022011,177.233597 124.053734,176.471619 123.033531,175.374374 
z" data-index="106"></path>
<path fill="#D02FCC" opacity="1.000000" stroke="none" d="
M26.347157,40.117249 
	C26.004930,39.831413 26.003473,39.660549 25.998966,39.233120 
	C27.462620,37.427670 28.929321,35.878777 30.669554,34.148071 
	C32.267937,36.763168 34.023582,39.461811 34.695621,42.407658 
	C34.947807,43.513107 32.681976,45.192997 31.564148,46.610996 
	C30.677965,45.479603 29.782114,44.355606 28.908533,43.214561 
	C28.155163,42.230534 27.427149,41.227085 26.347157,40.117249 
z" data-index="107"></path>
<path fill="#B430D6" opacity="1.000000" stroke="none" d="
M75.981133,54.014179 
	C81.668686,50.885845 87.785736,48.478085 90.943802,41.960052 
	C92.138313,39.494667 94.864418,37.771362 97.297150,35.355282 
	C98.171761,34.972630 98.641594,34.944496 99.111435,34.916359 
	C99.949371,36.077034 100.787315,37.237709 101.807236,39.079258 
	C102.002518,41.167835 102.015823,42.575535 101.870850,44.288761 
	C96.999786,51.595871 91.512665,57.656387 82.673019,59.857052 
	C80.240250,57.806797 78.110687,55.910488 75.981133,54.014179 
z" data-index="108" style="opacity: 1; visibility: visible; display: block;"></path>
<path fill="#4A2DAB" opacity="1.000000" stroke="none" d="
M121.985550,64.012054 
	C121.983658,65.410683 121.981766,66.809319 121.971886,68.629700 
	C120.471512,69.540718 118.979126,70.029984 117.074333,70.474167 
	C115.537659,67.824203 114.413399,65.219307 113.283966,62.257118 
	C112.663467,60.161644 112.048149,58.423454 111.430618,56.399384 
	C111.339516,55.743771 111.250633,55.374031 111.150665,54.622612 
	C110.178978,52.340183 109.218376,50.439438 108.280472,48.402863 
	C108.303169,48.267040 108.243393,47.998188 108.248749,47.613693 
	C106.810219,44.159584 105.366325,41.089966 103.922440,38.020348 
	C103.946693,37.592464 103.970940,37.164581 104.021423,36.417938 
	C105.071526,36.043919 106.095390,35.988663 107.677635,36.237579 
	C111.862450,43.779655 115.489632,51.017181 119.114784,58.255726 
	C120.074921,60.172890 121.028801,62.093193 121.985550,64.012054 
z" data-index="109" style="opacity: 1;"></path>
<path fill="#B538BC" opacity="1.000000" stroke="none" d="
M99.020126,34.568851 
	C98.641594,34.944496 98.171761,34.972630 97.350098,35.014118 
	C95.354561,31.614401 93.710854,28.201332 92.033279,24.409309 
	C94.309204,27.427353 96.619011,30.824348 99.020126,34.568851 
z" data-index="110"></path>
<path fill="#9C36D5" opacity="1.000000" stroke="none" d="
M103.715393,37.955803 
	C105.366325,41.089966 106.810219,44.159584 107.913742,47.508072 
	C105.725296,46.519043 103.877213,45.251141 102.029129,43.983238 
	C102.015823,42.575535 102.002518,41.167835 101.981140,39.333900 
	C102.484840,38.568863 102.996597,38.230061 103.715393,37.955803 
z" data-index="111"></path>
<path fill="#B82ED7" opacity="1.000000" stroke="none" d="
M9.273929,99.448296 
	C11.165059,98.993149 12.988365,98.993797 14.810841,98.955223 
	C18.262093,98.882172 20.193325,97.246048 21.005381,93.754608 
	C23.109919,84.706100 26.325451,83.701233 33.827301,90.092598 
	C34.845531,91.038681 35.459755,91.516243 36.086266,92.422775 
	C36.029671,94.566483 35.960789,96.281235 35.554771,98.011223 
	C34.397938,98.446609 33.578243,98.866760 32.758553,99.286911 
	C33.589134,99.870781 34.419720,100.454659 35.262863,101.436638 
	C35.252586,102.897385 35.229759,103.960014 34.794640,105.053154 
	C31.520065,105.714706 27.801628,105.428574 25.957302,107.150154 
	C20.595963,112.154701 15.494473,110.250771 9.877909,107.935684 
	C9.660850,107.895103 9.229632,107.799713 9.229633,107.799713 
	C9.221664,105.161934 9.213696,102.524162 9.273929,99.448296 
z" data-index="112" style="opacity: 1;"></path>
<path fill="#B22ED6" opacity="1.000000" stroke="none" d="
M10.094967,107.976273 
	C15.494473,110.250771 20.595963,112.154701 25.957302,107.150154 
	C27.801628,105.428574 31.520065,105.714706 34.821304,105.335014 
	C35.266014,105.964684 35.271770,106.342987 35.224167,107.148117 
	C35.444675,110.051285 35.718548,112.527634 35.992420,115.003975 
	C30.422474,115.848671 24.715834,115.833206 21.294331,121.984062 
	C20.284348,123.799721 16.355339,123.991623 13.380204,124.962143 
	C12.547407,124.390358 12.098429,123.784073 11.397255,123.040344 
	C11.095643,122.181717 11.046226,121.460533 11.093018,120.185349 
	C10.894103,119.023682 10.598977,118.415993 10.303851,117.808311 
	C10.258419,117.114555 10.212988,116.420807 10.302105,115.063980 
	C10.322759,112.259361 10.208862,110.117813 10.094967,107.976273 
z" data-index="113" style="opacity: 1;"></path>
<path fill="#A034B4" opacity="1.000000" stroke="none" d="
M9.877909,107.935684 
	C10.208862,110.117813 10.322759,112.259361 10.272437,114.717621 
	C9.782232,112.910179 9.456244,110.786026 9.179944,108.230789 
	C9.229632,107.799713 9.660850,107.895103 9.877909,107.935684 
z" data-index="114"></path>
<path fill="#A034B4" opacity="1.000000" stroke="none" d="
M10.302542,118.104065 
	C10.598977,118.415993 10.894103,119.023682 11.068106,119.824013 
	C10.731734,119.477715 10.516483,118.938774 10.302542,118.104065 
z" data-index="115"></path>
<path fill="#463DB4" opacity="1.000000" stroke="none" d="
M122.257126,63.877800 
	C121.028801,62.093193 120.074921,60.172890 119.114784,58.255726 
	C115.489632,51.017181 111.862450,43.779655 108.063141,36.230587 
	C108.119606,35.416710 108.348953,34.914001 109.091240,34.286537 
	C115.286880,38.022243 118.836357,43.471973 121.076912,49.827671 
	C122.501045,53.867470 123.711426,57.982628 125.017654,62.063992 
	C124.188004,62.623844 123.358353,63.183697 122.257126,63.877800 
z" data-index="116"></path>
<path fill="#4A47B9" opacity="1.000000" stroke="none" d="
M125.328522,61.977253 
	C123.711426,57.982628 122.501045,53.867470 121.076912,49.827671 
	C118.836357,43.471973 115.286880,38.022243 109.265602,34.070065 
	C109.429916,32.159393 109.932800,30.340443 110.664024,28.255650 
	C113.104897,31.159632 115.317429,34.329453 117.844589,38.099419 
	C120.434792,43.788734 122.567558,48.949665 125.068138,53.925762 
	C125.876549,55.534473 127.650627,56.657909 128.982971,58.003326 
	C128.984833,58.182693 128.986694,58.362061 128.990662,58.811317 
	C127.874977,60.017643 126.757179,60.954079 125.328522,61.977253 
z" data-index="117"></path>
<path fill="#7525E1" opacity="1.000000" stroke="none" d="
M72.005035,181.012665 
	C69.286446,181.346191 66.569527,181.670807 63.428406,181.993225 
	C61.473145,181.167389 59.942081,180.343719 58.509480,179.221161 
	C59.139271,178.404663 60.221195,177.609909 60.120735,177.410355 
	C58.062115,173.320709 60.847221,171.843353 63.655411,170.008484 
	C65.035080,169.106995 66.702736,167.280182 66.704239,165.870499 
	C66.710983,159.553558 68.920998,152.964691 65.175537,146.750839 
	C66.235374,145.669479 67.119385,144.836685 68.294495,144.203918 
	C69.326691,145.458878 70.338043,146.415436 70.763702,147.585129 
	C73.015930,153.774139 75.014313,160.056259 77.303734,166.230820 
	C80.166542,173.951813 80.239372,173.904419 73.968544,178.790756 
	C73.206993,179.384140 72.664604,180.258759 72.020645,181.003036 
	C72.020638,181.003036 72.006691,181.003738 72.005035,181.012665 
z" data-index="118" style="opacity: 1;"></path>
<path fill="#7B27E4" opacity="1.000000" stroke="none" d="
M64.999695,146.999390 
	C68.920998,152.964691 66.710983,159.553558 66.704239,165.870499 
	C66.702736,167.280182 65.035080,169.106995 63.655411,170.008484 
	C60.847221,171.843353 58.062115,173.320709 60.120735,177.410355 
	C60.221195,177.609909 59.139271,178.404663 58.304047,178.962036 
	C55.847698,177.810425 53.695240,176.619034 51.272705,175.211716 
	C53.977474,165.932785 56.952316,156.869797 60.384384,147.401047 
	C62.227642,146.996658 63.613667,146.998032 64.999695,146.999390 
z" data-index="119" style="opacity: 1;"></path>
<path fill="#813AD8" opacity="1.000000" stroke="none" d="
M113.289139,62.614407 
	C114.413399,65.219307 115.537659,67.824203 116.880630,70.718597 
	C117.128777,72.363533 117.158226,73.718971 117.204094,75.478714 
	C116.495094,79.348572 115.769684,82.814125 114.645386,86.673576 
	C111.428627,88.958542 107.739098,90.259636 105.975998,92.864594 
	C102.405380,98.140106 97.878532,99.731834 91.688370,99.020111 
	C90.948547,99.018578 90.525795,99.018913 90.045601,98.559601 
	C89.882256,94.174973 89.776344,90.250000 89.785683,85.983398 
	C89.968163,85.412590 90.035393,85.183403 90.339256,85.086899 
	C91.051743,85.480103 91.527603,85.740631 92.036667,86.373962 
	C92.385460,90.927330 95.340668,92.819160 98.788239,92.371956 
	C101.056831,92.077667 103.491905,89.917999 105.033463,87.951614 
	C107.033890,85.399887 108.634865,82.346397 109.650284,79.259705 
	C110.868988,75.555061 115.277527,72.730072 112.993645,67.558434 
	C113.093605,65.614464 113.191368,64.114433 113.289139,62.614407 
z" data-index="120" style="opacity: 1;"></path>
<path fill="#6F3ED9" opacity="1.000000" stroke="none" d="
M90.103027,99.019241 
	C90.525795,99.018913 90.948547,99.018578 91.686050,99.473633 
	C92.000793,103.286148 92.000793,106.643280 92.000793,110.293877 
	C100.491577,107.680664 107.740463,102.189072 111.448952,96.546516 
	C112.433426,95.048607 114.351334,94.164185 115.840660,92.998077 
	C115.857964,95.055550 115.875267,97.113014 115.843758,99.614075 
	C114.866478,102.435883 113.938004,104.814102 112.659485,107.674576 
	C106.756973,111.526833 100.787170,114.393425 95.840561,118.494247 
	C93.604942,120.347626 92.083687,122.294777 88.911743,121.586853 
	C89.249359,113.797241 89.676193,106.408241 90.103027,99.019241 
z" data-index="121" style="opacity: 1;"></path>
<path fill="#6440DA" opacity="1.000000" stroke="none" d="
M89.000977,121.987465 
	C92.083687,122.294777 93.604942,120.347626 95.840561,118.494247 
	C100.787170,114.393425 106.756973,111.526833 112.655617,108.074966 
	C113.661743,109.745682 114.321693,111.498260 114.989578,113.619904 
	C110.665794,117.743866 106.336967,121.502121 101.998352,125.249039 
	C101.503281,125.676582 100.945839,126.390732 100.429985,126.379692 
	C95.459663,126.273354 93.896347,129.897339 92.089607,133.844742 
	C90.839111,130.645477 89.842186,127.171516 88.827271,123.076057 
	C88.873177,122.298866 88.937080,122.143166 89.000977,121.987465 
z" data-index="122"></path>
<path fill="#793BDB" opacity="1.000000" stroke="none" d="
M115.893250,92.628357 
	C114.351334,94.164185 112.433426,95.048607 111.448952,96.546516 
	C107.740463,102.189072 100.491577,107.680664 92.000793,110.293877 
	C92.000793,106.643280 92.000793,103.286148 92.003113,99.475494 
	C97.878532,99.731834 102.405380,98.140106 105.975998,92.864594 
	C107.739098,90.259636 111.428627,88.958542 114.609016,87.035812 
	C115.197678,87.834244 115.423813,88.664337 115.839996,89.759766 
	C116.001976,90.769615 115.973907,91.514130 115.893250,92.628357 
z" data-index="123" style="opacity: 1;"></path>
<path fill="#6C22D9" opacity="1.000000" stroke="none" d="
M72.402000,180.991058 
	C72.664604,180.258759 73.206993,179.384140 73.968544,178.790756 
	C80.239372,173.904419 80.166542,173.951813 77.303734,166.230820 
	C75.014313,160.056259 73.015930,153.774139 70.763702,147.585129 
	C70.338043,146.415436 69.326691,145.458878 68.292526,143.873718 
	C67.993973,142.903671 67.988487,142.463867 68.108521,141.750168 
	C68.489952,140.717224 68.745888,139.958176 69.263855,139.081009 
	C69.766975,138.672180 70.008057,138.381454 70.537704,138.138916 
	C71.213585,138.232666 71.600899,138.278259 72.004921,138.663605 
	C74.710098,143.595230 77.826462,147.874161 77.564133,153.754623 
	C77.334923,158.892532 81.029114,161.974426 84.899803,164.839752 
	C86.601776,166.099655 87.643135,168.251938 88.984436,169.999054 
	C88.666245,170.772186 88.348053,171.545303 87.988144,172.632477 
	C86.022743,174.404205 84.099052,175.861893 82.078445,177.649445 
	C78.915474,178.979233 75.849411,179.979156 72.402000,180.991058 
z" data-index="124"></path>
<path fill="#4C4BC1" opacity="1.000000" stroke="none" d="
M128.902924,57.619713 
	C127.650627,56.657909 125.876549,55.534473 125.068138,53.925762 
	C122.567558,48.949665 120.434792,43.788734 118.078140,38.349857 
	C123.776001,38.621918 124.886055,43.551888 126.532494,47.687344 
	C127.730782,50.697144 128.089722,54.041111 128.902924,57.619713 
z" data-index="125"></path>
<path fill="#BC34CB" opacity="1.000000" stroke="none" d="
M39.314373,71.460358 
	C39.239353,70.913696 39.164337,70.367035 39.043839,69.408966 
	C45.691799,58.509895 54.516209,51.057968 67.620377,49.086433 
	C68.592072,50.131523 69.189034,51.259247 69.535568,52.768921 
	C66.885262,55.176216 62.555374,51.333637 60.978935,55.916763 
	C60.972900,55.952667 60.900848,55.942898 60.566235,55.850071 
	C53.778000,55.456841 49.710594,58.213863 48.012970,64.014763 
	C48.003353,63.996601 48.034958,64.024643 47.714149,64.085670 
	C46.588093,65.090912 45.782845,66.035126 44.924908,67.284302 
	C44.886509,67.998375 44.900791,68.407494 44.912621,68.871918 
	C44.910168,68.927216 44.799568,68.922394 44.456215,68.931656 
	C42.513363,69.780739 40.913868,70.620544 39.314373,71.460358 
z" data-index="126"></path>
<path fill="#AF36C8" opacity="1.000000" stroke="none" d="
M60.984966,55.880863 
	C62.555374,51.333637 66.885262,55.176216 69.645065,53.069489 
	C71.751266,53.274548 73.497520,53.560986 75.612457,53.930801 
	C78.110687,55.910488 80.240250,57.806797 82.676910,60.230179 
	C82.987526,61.504192 82.991035,62.251129 82.697464,63.021400 
	C82.202293,63.060051 82.004219,63.075359 81.515823,62.926327 
	C79.316750,61.452675 77.460381,60.057400 75.486816,58.854389 
	C72.598923,57.094051 70.011169,54.179413 65.607590,56.007545 
	C63.786095,55.958027 62.385532,55.919445 60.984966,55.880863 
z" data-index="127"></path>
<path fill="#7B30CA" opacity="1.000000" stroke="none" d="
M69.001823,139.199127 
	C68.745888,139.958176 68.489952,140.717224 67.729919,141.756134 
	C64.820717,143.012451 62.415604,143.988876 60.010494,144.965317 
	C60.010494,144.965317 59.521351,144.968460 59.277191,144.972626 
	C58.266663,140.112946 53.535984,141.070908 50.341866,139.142029 
	C48.517647,137.450287 47.025452,135.901230 45.259087,134.178528 
	C44.970947,133.564240 44.956982,133.123611 45.127018,132.170975 
	C45.777924,131.401077 46.244827,131.143173 46.927086,131.182648 
	C49.138279,135.476349 52.360958,137.669983 56.862244,138.029358 
	C56.913486,137.998535 56.974960,138.101135 57.130711,138.384613 
	C58.845249,138.795883 60.404034,138.923691 62.404839,139.047638 
	C64.898514,139.095566 66.950165,139.147339 69.001823,139.199127 
z" data-index="128" style="opacity: 1;"></path>
<path fill="#7829DA" opacity="1.000000" stroke="none" d="
M60.008858,145.303223 
	C62.415604,143.988876 64.820717,143.012451 67.604416,142.030029 
	C67.988487,142.463867 67.993973,142.903671 68.001419,143.673676 
	C67.119385,144.836685 66.235374,145.669479 65.175537,146.750839 
	C63.613667,146.998032 62.227642,146.996658 60.426300,146.993378 
	C60.009731,146.541351 60.008480,146.091248 60.008858,145.303223 
z" data-index="129"></path>
<path fill="#8527A1" opacity="1.000000" stroke="none" d="
M35.277527,106.721298 
	C35.271770,106.342987 35.266014,105.964684 35.233593,105.304512 
	C35.229759,103.960014 35.252586,102.897385 35.415707,101.160599 
	C35.667965,99.656288 35.779938,98.826141 35.891907,97.995987 
	C35.960789,96.281235 36.029671,94.566483 36.121658,92.110123 
	C36.166275,90.950623 36.187782,90.532730 36.209293,90.114838 
	C36.487614,89.003403 36.765934,87.891960 37.349777,86.409592 
	C38.027557,86.007736 38.399803,85.976814 38.887936,86.367584 
	C38.639816,91.626503 38.190422,96.459435 37.946430,101.302727 
	C37.816898,103.874016 38.043671,106.463249 37.881325,108.836449 
	C36.861206,107.992775 36.069366,107.357033 35.277527,106.721298 
z" data-index="130"></path>
<path fill="#8527A1" opacity="1.000000" stroke="none" d="
M39.301868,71.849640 
	C40.913868,70.620544 42.513363,69.780739 44.437996,69.297028 
	C42.784206,74.436501 40.805275,79.219879 38.609688,83.857864 
	C38.164822,83.448196 37.936607,83.183922 37.708397,82.919647 
	C38.235386,79.359406 38.762375,75.799171 39.301868,71.849640 
z" data-index="131"></path>
<path fill="#AA38C2" opacity="1.000000" stroke="none" d="
M37.476509,83.063950 
	C37.936607,83.183922 38.164822,83.448196 38.602074,84.181435 
	C38.798092,85.082230 38.785072,85.514061 38.772057,85.945892 
	C38.399803,85.976814 38.027557,86.007736 37.377247,86.062820 
	C37.147663,85.127411 37.196144,84.167824 37.476509,83.063950 
z" data-index="132"></path>
<path fill="#B22ED6" opacity="1.000000" stroke="none" d="
M35.840397,90.086121 
	C36.187782,90.532730 36.166275,90.950623 36.109375,91.681168 
	C35.459755,91.516243 34.845531,91.038681 34.114574,90.284088 
	C34.489063,90.023842 34.980286,90.040627 35.840397,90.086121 
z" data-index="133"></path>
<path fill="#9B34CB" opacity="1.000000" stroke="none" d="
M35.224163,107.148117 
	C36.069366,107.357033 36.861206,107.992775 37.841751,109.224106 
	C38.345810,110.887779 38.544044,112.008423 38.995853,113.015274 
	C41.577190,118.767761 44.218868,124.493187 46.806789,130.391937 
	C46.773525,130.556076 46.711731,130.885269 46.711731,130.885269 
	C46.244827,131.143173 45.777924,131.401077 45.110558,131.840759 
	C43.159874,131.069077 41.409649,130.115601 39.334518,129.070328 
	C38.030739,124.577888 37.051861,120.177246 36.032700,115.390289 
	C35.718548,112.527634 35.444675,110.051285 35.224163,107.148117 
z" data-index="134"></path>
<path fill="#3C1888" opacity="1.000000" stroke="none" d="
M71.988213,138.323837 
	C71.600899,138.278259 71.213585,138.232666 70.556610,137.802704 
	C70.986839,136.749954 71.617432,135.984436 72.397324,135.428284 
	C80.146782,129.902069 85.976875,123.090263 86.453033,113.095306 
	C86.934494,102.989311 87.064575,92.866585 87.566719,82.969711 
	C88.413383,84.233841 89.041908,85.279427 89.670433,86.325020 
	C89.776344,90.250000 89.882256,94.174973 90.045593,98.559601 
	C89.676193,106.408241 89.249359,113.797241 88.911743,121.586853 
	C88.937080,122.143166 88.873177,122.298866 88.714767,122.689461 
	C86.205460,125.420860 83.790672,127.917374 81.201584,130.694733 
	C79.032562,132.991562 77.037849,135.007538 74.583572,137.393616 
	C73.412079,137.950439 72.700150,138.137131 71.988213,138.323837 
z" data-index="135" style="opacity: 1;"></path>
<path fill="#621FD1" opacity="1.000000" stroke="none" d="
M72.004921,138.663605 
	C72.700150,138.137131 73.412079,137.950439 74.488342,137.705551 
	C75.325272,137.740036 75.797890,137.832703 76.630707,137.949890 
	C79.678993,144.360565 82.359550,150.749863 85.060745,157.130447 
	C85.690872,158.618896 86.444862,160.056046 87.047081,161.554886 
	C88.063995,164.085846 89.005226,166.647217 89.971207,169.596115 
	C89.964149,169.996429 89.474487,169.998917 89.229462,169.998993 
	C87.643135,168.251938 86.601776,166.099655 84.899803,164.839752 
	C81.029114,161.974426 77.334923,158.892532 77.564133,153.754623 
	C77.826462,147.874161 74.710098,143.595230 72.004921,138.663605 
z" data-index="136" style="opacity: 1;"></path>
<path fill="#A832D9" opacity="1.000000" stroke="none" d="
M82.994553,62.998066 
	C82.991035,62.251129 82.987526,61.504192 82.980125,60.384125 
	C91.512665,57.656387 96.999786,51.595871 101.870850,44.288761 
	C103.877213,45.251141 105.725296,46.519043 107.908386,47.892567 
	C108.243393,47.998188 108.303169,48.267040 108.218735,48.837234 
	C108.084763,50.269592 108.035233,51.131760 107.760040,52.247459 
	C104.355171,58.035538 101.183327,63.136658 95.343864,66.912201 
	C91.257751,69.554108 89.439545,70.186012 86.570511,66.446907 
	C85.573570,65.147636 84.197479,64.139290 82.994553,62.998066 
z" data-index="137" style="opacity: 1; display: block;"></path>
<path fill="#9C36D5" opacity="1.000000" stroke="none" d="
M82.697464,63.021400 
	C84.197479,64.139290 85.573570,65.147636 86.570511,66.446907 
	C89.439545,70.186012 91.257751,69.554108 95.343864,66.912201 
	C101.183327,63.136658 104.355171,58.035538 107.960243,52.498524 
	C109.311317,53.332138 110.236534,54.168217 111.161751,55.004295 
	C111.250633,55.374031 111.339516,55.743771 111.175087,56.704849 
	C108.741486,61.148155 106.947754,65.300987 104.258179,68.756561 
	C102.119797,71.503975 98.980667,73.528381 96.105164,75.626129 
	C94.247093,76.981636 92.063103,77.890396 89.974159,78.640762 
	C88.620071,76.512497 87.316994,74.742821 85.970009,72.610687 
	C84.552780,69.195694 83.179459,66.143181 81.806137,63.090660 
	C82.004219,63.075359 82.202293,63.060051 82.697464,63.021400 
z" data-index="138" style="opacity: 1; visibility: visible;"></path>
<path fill="#9237D8" opacity="1.000000" stroke="none" d="
M90.025169,78.999359 
	C92.063103,77.890396 94.247093,76.981636 96.105164,75.626129 
	C98.980667,73.528381 102.119797,71.503975 104.258179,68.756561 
	C106.947754,65.300987 108.741486,61.148155 111.177292,56.990726 
	C112.048149,58.423454 112.663467,60.161644 113.283966,62.257118 
	C113.191368,64.114433 113.093605,65.614464 112.686356,67.680710 
	C110.838943,69.744492 109.376579,71.330330 107.749146,72.723328 
	C102.533463,77.187675 97.256668,81.580643 92.003456,86.001160 
	C91.527603,85.740631 91.051743,85.480103 90.309952,84.664032 
	C90.037735,82.405449 90.031448,80.702400 90.025169,78.999359 
z" data-index="139" style="opacity: 1;"></path>
<path fill="#9237D8" opacity="1.000000" stroke="none" d="
M111.150665,54.622612 
	C110.236534,54.168217 109.311317,53.332138 108.185898,52.244995 
	C108.035233,51.131760 108.084763,50.269592 108.196037,48.973057 
	C109.218376,50.439438 110.178978,52.340183 111.150665,54.622612 
z" data-index="140"></path>
<path fill="#B22ED6" opacity="1.000000" stroke="none" d="
M35.554771,98.011223 
	C35.779938,98.826141 35.667965,99.656288 35.403152,100.762482 
	C34.419720,100.454659 33.589134,99.870781 32.758553,99.286911 
	C33.578243,98.866760 34.397938,98.446609 35.554771,98.011223 
z" data-index="141"></path>
<path fill="#8A38DB" opacity="1.000000" stroke="none" d="
M92.036667,86.373962 
	C97.256668,81.580643 102.533463,77.187675 107.749146,72.723328 
	C109.376579,71.330330 110.838943,69.744492 112.684158,68.124649 
	C115.277527,72.730072 110.868988,75.555061 109.650284,79.259705 
	C108.634865,82.346397 107.033890,85.399887 105.033463,87.951614 
	C103.491905,89.917999 101.056831,92.077667 98.788239,92.371956 
	C95.340668,92.819160 92.385460,90.927330 92.036667,86.373962 
z" data-index="142" style="opacity: 1; visibility: visible;"></path>
<path fill="#7A38B1" opacity="1.000000" stroke="none" d="
M89.974159,78.640762 
	C90.031448,80.702400 90.037735,82.405449 90.073318,84.531357 
	C90.035393,85.183403 89.968163,85.412590 89.785683,85.983398 
	C89.041908,85.279427 88.413383,84.233841 87.539619,82.947525 
	C87.294380,82.706810 87.310600,82.636635 87.375961,82.307327 
	C87.088631,80.956802 86.735939,79.935585 86.251167,78.571426 
	C85.776970,77.058342 85.434853,75.888206 85.160324,74.477234 
	C85.489914,73.815323 85.751915,73.394241 86.013916,72.973152 
	C87.316994,74.742821 88.620071,76.512497 89.974159,78.640762 
z" data-index="143"></path>

<path fill="#9F2EAD" opacity="1.000000" stroke="none" d="
M60.566231,55.850067 
	C56.843693,58.614227 52.786541,61.285564 48.375988,63.994911 
	C49.710594,58.213863 53.778000,55.456841 60.566231,55.850067 
z" data-index="145"></path>
<path fill="#9F2EAD" opacity="1.000000" stroke="none" d="
M47.714149,64.085670 
	C47.552944,64.920555 47.070927,65.816475 46.043587,66.853027 
	C45.324703,66.988899 45.151150,66.984123 44.977592,66.979347 
	C45.782845,66.035126 46.588093,65.090912 47.714149,64.085670 
z" data-index="146"></path>
<path fill="#8527A1" opacity="1.000000" stroke="none" d="
M44.924911,67.284302 
	C45.151150,66.984123 45.324703,66.988899 45.758316,67.005325 
	C45.846405,67.580711 45.674435,68.144447 45.208771,68.762405 
	C44.900791,68.407494 44.886509,67.998375 44.924911,67.284302 
z" data-index="147"></path>
<path fill="#8930A6" opacity="1.000000" stroke="none" d="
M85.160324,74.477234 
	C81.001335,66.426216 75.017860,60.114235 66.140488,56.365868 
	C70.011169,54.179413 72.598923,57.094051 75.486816,58.854389 
	C77.460381,60.057400 79.316750,61.452675 81.515831,62.926323 
	C83.179459,66.143181 84.552780,69.195694 85.970009,72.610687 
	C85.751915,73.394241 85.489914,73.815323 85.160324,74.477234 
z" data-index="148"></path>
<path fill="#692BAE" opacity="1.000000" stroke="none" d="
M46.806789,130.391937 
	C50.029362,132.661682 53.218670,135.095581 56.609489,137.794830 
	C52.360958,137.669983 49.138279,135.476349 46.927086,131.182648 
	C46.711731,130.885269 46.773525,130.556076 46.806789,130.391937 
z" data-index="149" style="opacity: 1;"></path>
<path fill="#692BAE" opacity="1.000000" stroke="none" d="
M57.130711,138.384613 
	C58.444607,138.266754 59.914257,138.432373 61.673363,138.824738 
	C60.404034,138.923691 58.845249,138.795883 57.130711,138.384613 
z" data-index="150"></path>
<path fill="#3C1888" opacity="1.000000" stroke="none" d="
M87.375961,82.307327 
	C86.979584,81.616379 86.648567,80.596115 86.350403,79.245110 
	C86.735939,79.935585 87.088631,80.956802 87.375961,82.307327 
z" data-index="151"></path>
<path d="M170.99735,132.61614c-2.40745,-0.26534 -4.82129,-0.90123 -7.60849,-1.57074c1.26776,-5.01318 4.25919,-1.68919 7.12097,-1.10857c0.38112,0.82951 0.43112,1.56914 0.48752,2.67931zM38.87914,21.15389c0.47971,-0.95198 0.98434,-1.50675 1.73931,-2.20026c1.3973,0.01183 2.64851,0.53539 3.6733,0.24892c4.63461,-1.29557 9.20521,-2.82013 14.68352,-4.24619c4.586,0.03002 8.28735,0.04401 11.9887,0.058c0.4521,0.00515 0.9042,0.0103 1.82748,0.3263c3.45089,2.3422 6.52952,4.24511 9.38156,6.44217c-2.85204,-2.19706 -5.93067,-4.09997 -9.04248,-6.43879c4.6832,2.56104 9.4985,5.42955 14.67059,8.84488c1.54198,3.5507 0.85865,5.99242 -1.6135,8.11968c-3.00035,2.58178 -5.85483,5.33321 -8.76933,8.01459c-3.14291,2.89152 -6.28227,5.78691 -9.79791,8.76325c-13.10417,1.97154 -21.92858,9.42346 -28.99067,19.99252c-4.38352,0.58032 -7.07716,2.45108 -7.68093,6.76365c-0.12356,0.88256 -0.73869,2.08098 -1.46657,2.43386c-6.25882,3.03444 -10.75339,7.76147 -13.79679,14.68218c-1.86568,-1.9682 -3.30393,-3.48549 -4.74219,-5.00278c0.00727,-0.73907 0.01454,-1.47814 0.333,-2.73684c0.43506,-2.09237 0.55892,-3.66512 0.68279,-5.23786c1.19869,-6.45701 2.39739,-12.91401 3.7893,-19.68204c3.14834,1.46948 2.31438,3.68114 1.04967,6.08564c1.26471,-2.4045 2.09867,-4.61616 -0.85645,-6.39666c0.00724,-0.44319 0.01449,-0.88637 0.34426,-1.81701c0.77926,-1.72287 1.23599,-2.9583 1.69272,-4.19372c0.23046,-0.50347 0.46093,-1.00694 1.16826,-1.83835c6.20223,-2.31958 5.64479,-7.70712 7.20039,-12.02176c-0.34223,-0.28584 -0.34368,-0.4567 -0.34819,-0.88413c1.46365,-1.80545 2.93036,-3.35434 4.67059,-5.08505c1.59838,2.6151 3.35403,5.31374 4.02607,8.25959c-0.67204,-2.94585 -2.42768,-5.64449 -3.75253,-8.44141c1.84671,-2.63191 3.7497,-5.22676 5.51727,-7.91079c0.93608,-1.42143 1.63675,-2.99789 2.41878,-4.90157zM72.00492,138.6636c0.69523,-0.52647 1.40716,-0.71317 2.48342,-0.95805c0.83693,0.03448 1.30955,0.12715 2.14236,0.24434c3.04829,6.41067 5.72884,12.79997 8.43004,19.18056c0.63013,1.48845 1.38412,2.9256 1.98634,4.42444c1.01691,2.53096 1.95814,5.09233 2.92413,8.04123c-0.00706,0.40031 -0.49672,0.4028 -0.74175,0.40288c-1.58633,-1.74706 -2.62769,-3.89934 -4.32966,-5.15924c-3.87069,-2.86533 -7.56488,-5.94722 -7.33567,-11.08513c0.26233,-5.88046 -2.85403,-10.15939 -5.55921,-15.09102z" id="path-81 1" fill="url(#grad-152)" fill-rule="nonzero" stroke="url(#grad-152)" stroke-width="0.25" stroke-linecap="butt" stroke-linejoin="miter" stroke-miterlimit="10" stroke-dasharray="" stroke-dashoffset="0" font-family="none" font-weight="none" font-size="none" text-anchor="none" style="mix-blend-mode: normal; display: none;" data-index="152"></path></svg></svg><style>@media (prefers-color-scheme: light) { :root { filter: none; } }
@media (prefers-color-scheme: dark) { :root { filter: none; } }
</style></svg>