<svg version="1.1" id="Layer_1" xmlns="http://www.w3.org/2000/svg" xmlns:xlink="http://www.w3.org/1999/xlink" x="0px" y="0px"
	 width="100%" viewBox="0 0 1280 716" enable-background="new 0 0 1280 716" xml:space="preserve">
<path fill="#0C102D" opacity="1.000000" stroke="none" 
	d="
M863.000000,717.000000 
	C575.369263,717.000000 288.238556,717.000000 1.053917,717.000000 
	C1.053917,478.399170 1.053917,239.798309 1.053917,1.098728 
	C427.547424,1.098728 854.094910,1.098728 1280.821167,1.098728 
	C1280.821167,239.666565 1280.821167,478.333282 1280.821167,717.000000 
	C1141.798218,717.000000 1002.649109,717.000000 863.000000,717.000000 
M791.983337,407.420410 
	C791.660461,407.253143 791.337646,407.085876 791.126770,406.963409 
	C791.126770,406.963409 791.171692,406.851471 790.963135,406.221649 
	C788.989258,404.483795 787.015381,402.745972 785.043884,400.947388 
	C785.043884,400.947388 784.984802,400.961823 784.743896,400.346375 
	C780.514160,396.190582 776.284363,392.034790 771.115417,386.956207 
	C769.472778,389.182587 768.432739,390.900970 767.098267,392.347809 
	C761.162109,398.783600 754.235535,403.788452 745.981812,406.924896 
	C736.189148,410.646210 726.148010,410.389648 715.394897,408.745850 
	C709.071106,405.782196 702.747253,402.818512 696.104370,399.236847 
	C693.133179,396.456879 690.161987,393.676910 686.979614,390.372314 
	C686.649536,390.222534 686.319519,390.072754 686.081116,390.034698 
	C686.081116,390.034698 686.192993,389.943054 686.078491,389.220795 
	C684.067383,385.471100 682.056213,381.721375 680.070679,377.414825 
	C679.883545,377.101715 679.696411,376.788605 679.449646,375.964752 
	C679.333313,375.643188 679.216980,375.321625 679.346069,374.232727 
	C679.568298,363.201416 679.790527,352.170105 680.035767,340.471436 
	C679.958374,340.262756 679.880920,340.054077 680.379395,339.478699 
	C685.291870,332.721069 690.204346,325.963470 695.670959,318.890137 
	C696.781555,317.946045 697.892151,317.001984 699.491089,315.940674 
	C699.614441,315.827515 699.737854,315.714355 700.325134,315.513702 
	C700.625610,315.368256 700.830017,315.137695 701.549133,314.720490 
	C702.122864,314.173462 702.696655,313.626434 703.185913,313.123199 
	C703.185913,313.123199 703.218994,313.212494 703.985840,313.259064 
	C712.002869,311.453735 720.019958,309.648376 728.875916,307.981720 
	C746.539978,308.763000 760.702271,316.318573 771.759094,331.055176 
	C785.116333,318.086700 798.049744,305.529755 810.901550,293.052032 
	C810.284058,291.922974 810.007629,291.313599 809.637695,290.767548 
	C809.172607,290.081024 808.669861,289.411652 808.117126,288.794098 
	C791.216003,269.909821 770.455261,257.778320 745.310059,253.961182 
	C729.415588,251.548355 713.494690,251.614075 697.226135,256.990997 
	C689.501526,260.459473 681.776917,263.927979 673.411682,267.598511 
	C669.416565,270.385223 665.421448,273.171936 660.773865,275.972595 
	C658.065002,278.606171 655.356201,281.239746 651.931763,283.543274 
	C646.121277,278.918884 640.724426,273.615875 634.432617,269.781128 
	C595.953430,246.328552 556.822998,245.544632 518.358032,269.160675 
	C492.779083,284.865143 477.030823,308.274170 471.033051,337.840515 
	C471.033051,337.840515 470.814087,338.175171 470.814087,338.175171 
	C470.814087,338.175171 471.107819,338.298889 470.846436,339.400085 
	C470.595032,340.887146 470.343628,342.374176 469.971344,343.730316 
	C469.971344,343.730316 469.779999,344.072479 469.779999,344.072479 
	C469.779999,344.072479 470.063873,344.210419 469.830627,345.581848 
	C469.651733,346.961212 469.472870,348.340546 469.008728,350.132568 
	C469.057831,355.673340 469.106934,361.214142 469.211853,367.991302 
	C469.457947,369.622894 469.704041,371.254517 469.741333,373.125793 
	C469.913605,373.849823 470.085907,374.573883 470.514648,376.223938 
	C470.667053,376.505646 470.819458,376.787323 470.897095,377.544495 
	C470.897095,377.544495 471.096985,377.982391 471.015808,378.496979 
	C471.091003,378.653534 471.166199,378.810059 471.241486,380.025482 
	C471.304718,380.372742 471.367981,380.719971 471.204163,381.495117 
	C471.952454,384.196930 472.700775,386.898712 473.464539,389.909454 
	C473.511353,390.135040 473.648468,390.264771 474.136475,391.445404 
	C474.401489,392.182892 474.666504,392.920380 474.703430,393.928131 
	C475.156036,394.883514 475.608643,395.838898 476.334198,397.784271 
	C476.865631,399.041351 477.397064,400.298431 477.725311,401.800049 
	C478.176453,402.533112 478.627563,403.266144 479.424438,404.710266 
	C479.576843,404.925232 479.729248,405.140228 479.828003,405.984772 
	C481.852936,409.461731 483.877869,412.938660 486.322144,417.146698 
	C486.971649,418.080658 487.621155,419.014618 488.268524,420.555084 
	C497.143494,434.939453 509.819061,445.568726 524.380188,453.234100 
	C557.789307,470.821381 591.944580,471.253845 625.714905,453.917389 
	C632.769348,450.295898 638.805725,444.691345 646.398621,439.400391 
	C647.733948,438.448181 649.069275,437.495972 650.468140,436.399414 
	C650.580322,436.392639 650.706909,436.351532 650.799683,436.390717 
	C650.865845,436.418610 650.886353,436.554443 650.927246,436.642151 
	C650.843567,436.597473 650.759888,436.552826 651.731628,435.981812 
	C652.101868,435.849579 652.472107,435.717316 653.327515,436.108917 
	C656.612000,438.713074 659.896423,441.317200 663.520386,444.484680 
	C666.613037,446.399963 669.705627,448.315247 672.964600,450.176727 
	C672.964600,450.176727 672.910889,450.010376 672.983459,450.572693 
	C673.300598,450.750427 673.617676,450.928192 674.364380,451.622955 
	C712.970337,472.450836 750.928589,471.075104 787.566406,447.200439 
	C795.701294,441.899384 802.017395,433.807281 809.593323,426.827759 
	C809.890503,426.637756 810.000610,426.370392 810.103577,425.532562 
	C810.046631,425.367126 809.989746,425.201660 809.848511,424.375000 
	C808.243713,422.923523 806.638855,421.472046 804.818604,419.537415 
	C804.528076,419.349396 804.237488,419.161407 803.717529,418.392242 
	C802.476318,417.310028 801.235046,416.227844 799.705505,414.538818 
	C797.579102,412.657257 795.452637,410.775726 793.049622,408.372009 
	C792.699219,408.224396 792.348755,408.076813 792.017822,408.001251 
	C792.017822,408.001251 792.089844,407.981598 791.983337,407.420410 
z"/>
<path fill="#5F6EDD" opacity="1.000000" stroke="none" 
	d="
M698.018494,257.036377 
	C713.494690,251.614075 729.415588,251.548355 745.310059,253.961182 
	C770.455261,257.778320 791.216003,269.909821 808.117126,288.794098 
	C808.669861,289.411652 809.172607,290.081024 809.637695,290.767548 
	C810.007629,291.313599 810.284058,291.922974 810.901550,293.052032 
	C798.049744,305.529755 785.116333,318.086700 771.759094,331.055176 
	C760.702271,316.318573 746.539978,308.763000 728.668335,307.659912 
	C729.826660,305.539734 732.683350,303.297485 732.302673,302.019104 
	C730.578552,296.228088 728.474426,290.407074 725.507263,285.162476 
	C720.940308,277.090057 714.863159,270.139374 707.746033,264.022919 
	C704.661865,261.372498 702.605896,257.535431 698.018494,257.036377 
z"/>
<path fill="#2261D5" opacity="1.000000" stroke="none" 
	d="
M793.326233,408.894196 
	C795.452637,410.775726 797.579102,412.657257 799.959534,415.142273 
	C801.458008,416.821594 802.702454,417.897522 803.946960,418.973450 
	C804.237488,419.161407 804.528076,419.349396 805.020142,420.094849 
	C805.809631,422.081665 806.397583,423.511017 806.668457,424.885864 
	C804.439819,423.564514 801.989807,422.688110 800.729187,420.949371 
	C798.123901,417.355865 788.738098,413.407532 785.345032,416.103912 
	C780.552551,419.912354 775.846741,422.071869 769.715698,423.636810 
	C758.953003,426.383881 748.989441,432.156189 738.543518,436.287933 
	C731.763611,438.969604 724.533142,440.548157 717.843567,443.412842 
	C708.851746,447.263428 701.187683,454.407593 690.552917,454.105621 
	C690.446716,454.102570 690.324707,454.657104 690.119141,455.184540 
	C690.522583,455.555969 690.919861,456.232269 691.454224,456.367706 
	C701.572083,458.932739 711.607117,463.006622 721.855408,463.651306 
	C751.739380,465.531342 777.645569,455.140076 799.436890,434.692902 
	C802.397095,431.915283 804.535400,428.261810 807.413940,425.014374 
	C808.493408,425.021973 809.213135,425.029083 809.932800,425.036194 
	C809.989746,425.201660 810.046631,425.367126 809.877686,425.935089 
	C809.477539,426.548370 809.317261,426.769257 809.170959,427.000275 
	C802.017395,433.807281 795.701294,441.899384 787.566406,447.200439 
	C750.928589,471.075104 712.970337,472.450836 673.986206,451.175873 
	C673.375671,450.489319 673.143250,450.249847 672.910889,450.010376 
	C672.910889,450.010376 672.964600,450.176727 672.861145,449.846710 
	C672.028564,445.735809 673.691284,443.570862 677.246887,442.377289 
	C679.756592,441.534790 682.129761,440.287781 684.570374,439.236511 
	C690.657715,436.614380 696.684814,433.836670 702.857178,431.432190 
	C708.531006,429.221924 714.408447,427.539001 720.114807,425.406189 
	C729.384277,421.941589 738.616760,418.372040 747.785950,414.652161 
	C749.129028,414.107300 750.500732,412.680847 751.053528,411.332092 
	C752.317993,408.246490 754.223633,407.173309 757.568115,407.236542 
	C763.727173,407.352966 767.560608,403.761902 768.582703,398.091736 
	C768.729614,397.276489 770.625061,396.776459 771.711304,396.130524 
	C774.747620,401.554779 780.759705,398.803528 784.984802,400.961823 
	C784.984802,400.961823 785.043884,400.947388 785.144897,401.298889 
	C787.221191,403.384094 789.196411,405.117767 791.171692,406.851471 
	C791.171692,406.851471 791.126770,406.963409 791.242676,407.125671 
	C791.602356,407.519165 791.846130,407.750397 792.089844,407.981598 
	C792.089844,407.981598 792.017822,408.001251 792.222046,408.136566 
	C792.726196,408.479309 793.026245,408.686768 793.326233,408.894196 
z"/>
<path fill="#7C3ADB" opacity="1.000000" stroke="none" 
	d="
M679.803406,339.845398 
	C679.880920,340.054077 679.958374,340.262756 679.733765,340.990173 
	C678.689697,344.340942 677.947632,347.172974 677.049255,350.218933 
	C676.885315,351.254700 676.877747,352.076538 676.840576,353.304138 
	C676.861023,358.794586 676.910950,363.879303 676.606812,369.018982 
	C659.506042,377.281311 641.708313,383.316345 625.707764,393.098328 
	C624.305359,389.823364 623.086304,386.894196 621.886963,383.546326 
	C622.337585,380.507446 622.728455,377.879944 623.208130,375.268738 
	C624.105774,370.382233 625.612305,365.534668 625.872498,360.618347 
	C626.515503,348.470886 623.094055,337.321655 616.486816,327.384094 
	C619.193665,330.369324 621.609436,333.241272 624.112305,336.451904 
	C627.021301,344.174866 632.706970,345.380493 639.017090,340.659088 
	C644.263916,336.733246 650.047729,333.487396 655.762695,330.237671 
	C659.744995,327.973267 664.142883,326.438171 668.116882,324.161407 
	C672.051208,321.907379 672.644775,318.436035 670.862915,314.255432 
	C669.984924,312.195374 669.834595,309.825195 669.601257,307.841064 
	C670.827454,309.814117 671.866089,311.511108 672.777222,313.274017 
	C677.084473,321.607513 679.179810,330.533752 679.803406,339.845398 
z"/>
<path fill="#9D36CC" opacity="1.000000" stroke="none" 
	d="
M624.025208,336.113220 
	C621.609436,333.241272 619.193665,330.369324 616.185608,327.173218 
	C607.910828,318.415161 598.939758,312.102264 587.602417,309.540741 
	C563.689819,304.138000 540.024414,315.016174 529.298157,336.662292 
	C519.790771,355.848541 522.755249,382.635803 542.960754,398.364563 
	C545.138489,400.059753 547.060852,402.082947 548.733765,403.979309 
	C547.874817,404.032684 547.383789,404.060730 546.634033,403.876465 
	C542.594238,400.764923 538.813171,397.865631 534.831055,394.695129 
	C531.091614,388.289642 527.553223,382.155426 524.009766,375.616272 
	C523.992981,374.133362 523.981323,373.055389 523.877258,371.719147 
	C523.537537,370.971588 523.290161,370.482330 523.036499,369.577484 
	C522.703735,365.780579 522.377380,362.399292 522.048584,358.577087 
	C521.447327,348.044739 526.307495,339.321136 529.333252,329.894470 
	C530.098206,328.832977 530.607605,327.950806 531.348694,326.880371 
	C532.411072,325.834717 533.241699,324.977356 534.329773,323.902222 
	C539.425415,319.827087 544.263672,315.969788 549.451660,312.072449 
	C551.563354,311.096222 553.325195,310.159973 555.458862,309.196960 
	C556.572021,309.092072 557.313416,309.014008 558.307495,308.859436 
	C559.030334,308.544769 559.500366,308.306580 560.363770,307.976440 
	C565.850586,307.235321 570.944153,306.586090 576.472900,305.961884 
	C583.935608,307.340820 590.963074,308.694733 598.218811,310.300354 
	C598.820496,310.881561 599.163513,311.255981 599.572144,311.533844 
	C604.967407,315.202057 612.299438,315.709961 616.293701,321.794159 
	C616.549744,322.184204 618.886658,321.841583 619.661438,321.162292 
	C630.469482,311.686127 643.041504,305.463440 656.431824,300.606110 
	C657.439209,300.240692 658.715088,297.398834 658.333069,296.912354 
	C654.068481,291.482910 649.502136,286.290558 644.704956,280.880432 
	C641.990417,279.429810 639.588013,278.133026 637.018982,276.542389 
	C630.925659,268.251251 621.680420,265.655090 612.879517,261.589355 
	C608.071838,260.156555 603.678955,258.653381 599.176392,257.635132 
	C573.044617,251.725372 548.006226,254.430542 524.728943,268.171753 
	C516.075745,273.279968 508.324097,279.600861 500.719940,286.406769 
	C490.705078,295.370331 485.792389,306.815643 479.779175,318.373718 
	C477.064697,328.839478 474.492584,338.958862 471.906372,349.504242 
	C471.959595,358.635376 472.026947,367.340576 471.907227,376.216187 
	C471.470734,376.614105 471.221344,376.841583 470.971924,377.069031 
	C470.819458,376.787323 470.667053,376.505646 470.447327,375.607117 
	C470.236694,374.288879 470.093384,373.587494 469.950134,372.886108 
	C469.704041,371.254517 469.457947,369.622894 469.239868,367.035828 
	C469.276581,360.626892 469.285278,355.173401 469.294006,349.719910 
	C469.472870,348.340546 469.651733,346.961212 470.007935,344.875671 
	C470.185211,344.169464 470.092224,343.861237 470.092224,343.861237 
	C470.343628,342.374176 470.595032,340.887146 471.039154,338.835144 
	C471.231873,338.270233 471.154144,337.976105 471.154144,337.976105 
	C477.030823,308.274170 492.779083,284.865143 518.358032,269.160675 
	C556.822998,245.544632 595.953430,246.328552 634.432617,269.781128 
	C640.724426,273.615875 646.121277,278.918884 652.357666,283.954590 
	C655.907288,288.486206 659.031067,292.606476 662.187988,297.107941 
	C663.405579,300.206879 664.638000,302.904938 665.763611,305.646881 
	C667.479309,309.826111 666.333313,311.560760 661.991211,312.879425 
	C658.583191,313.914429 654.886597,315.016937 652.197327,317.181610 
	C647.122620,321.266449 642.109070,324.987946 635.662415,326.786743 
	C633.618530,327.357025 631.603455,329.822296 630.602478,331.912354 
	C629.153076,334.939056 627.130127,336.137451 624.025208,336.113220 
z"/>
<path fill="#2B59D4" opacity="1.000000" stroke="none" 
	d="
M784.864380,400.654114 
	C780.759705,398.803528 774.747620,401.554779 771.711304,396.130524 
	C770.625061,396.776459 768.729614,397.276489 768.582703,398.091736 
	C767.560608,403.761902 763.727173,407.352966 757.568115,407.236542 
	C754.223633,407.173309 752.317993,408.246490 751.053528,411.332092 
	C750.500732,412.680847 749.129028,414.107300 747.785950,414.652161 
	C738.616760,418.372040 729.384277,421.941589 720.114807,425.406189 
	C714.408447,427.539001 708.531006,429.221924 702.857178,431.432190 
	C696.684814,433.836670 690.657715,436.614380 684.570374,439.236511 
	C682.129761,440.287781 679.756592,441.534790 677.246887,442.377289 
	C673.691284,443.570862 672.028564,445.735809 672.777954,449.873596 
	C669.705627,448.315247 666.613037,446.399963 663.408386,443.922302 
	C662.207214,440.879211 661.118042,438.398499 659.599487,434.939758 
	C672.637695,429.152588 685.552185,423.371155 698.510864,417.690399 
	C704.468506,415.078705 708.741455,409.035919 716.012085,409.124969 
	C726.148010,410.389648 736.189148,410.646210 745.981812,406.924896 
	C754.235535,403.788452 761.162109,398.783600 767.098267,392.347809 
	C768.432739,390.900970 769.472778,389.182587 771.115417,386.956207 
	C776.284363,392.034790 780.514160,396.190582 784.864380,400.654114 
z"/>
<path fill="#5A61D6" opacity="1.000000" stroke="none" 
	d="
M697.622314,257.013672 
	C702.605896,257.535431 704.661865,261.372498 707.746033,264.022919 
	C714.863159,270.139374 720.940308,277.090057 725.507263,285.162476 
	C728.474426,290.407074 730.578552,296.228088 732.302673,302.019104 
	C732.683350,303.297485 729.826660,305.539734 728.248840,307.590576 
	C720.019958,309.648376 712.002869,311.453735 703.684387,312.895996 
	C704.589294,311.530579 705.973999,310.675201 706.953796,309.486176 
	C708.013062,308.200806 709.767273,306.125946 709.364319,305.220947 
	C706.906921,299.701630 704.301270,294.166656 700.982666,289.140320 
	C698.675110,285.645294 694.926758,283.138794 692.210510,279.868103 
	C687.302856,273.958710 681.099304,270.104614 674.052307,267.396484 
	C681.776917,263.927979 689.501526,260.459473 697.622314,257.013672 
z"/>
<path fill="#531CB9" opacity="1.000000" stroke="none" 
	d="
M645.311218,440.000610 
	C638.805725,444.691345 632.769348,450.295898 625.714905,453.917389 
	C591.944580,471.253845 557.789307,470.821381 524.380188,453.234100 
	C509.819061,445.568726 497.143494,434.939453 488.470886,420.222168 
	C489.081665,419.951691 489.490051,420.014099 489.926331,420.088745 
	C489.954163,420.101044 489.988983,420.050598 490.054016,420.388123 
	C491.760986,422.731262 493.402893,424.736877 495.219299,427.045654 
	C498.591034,430.619934 501.788239,433.891083 505.155151,437.441833 
	C509.571930,440.865906 513.534790,444.532928 518.132080,447.033478 
	C525.200317,450.878082 532.704346,453.921600 540.355164,457.435913 
	C547.378174,459.139984 554.069397,460.713135 560.931030,462.502899 
	C561.711487,463.098633 562.321655,463.477814 563.393921,463.889404 
	C567.246521,463.967194 570.637146,464.012573 574.255920,464.172241 
	C574.977600,464.385590 575.471008,464.484589 576.396851,464.617920 
	C588.822449,463.269775 600.945679,462.493561 612.451782,457.068115 
	C618.811279,453.933899 624.871704,450.956329 630.742493,447.642792 
	C633.385132,446.151245 632.781250,444.304321 630.434204,442.660950 
	C628.980408,441.643066 627.518311,440.425262 626.540344,438.973572 
	C619.833313,429.016754 610.885010,420.475372 607.213318,408.588470 
	C607.117920,408.279541 606.952454,407.837311 606.714355,407.752350 
	C605.041138,407.155304 603.155823,405.872467 601.681335,406.228729 
	C596.397522,407.505341 591.249695,409.345276 585.641724,410.967346 
	C583.179016,410.687469 581.125061,410.412445 579.438354,409.989014 
	C592.427063,408.392426 603.469421,403.483582 613.171753,394.863159 
	C615.382935,396.780853 617.740173,398.339081 618.932861,400.530975 
	C622.237244,406.603912 624.376099,413.405396 628.235901,419.058472 
	C633.296448,426.470184 639.563232,433.058258 645.311218,440.000610 
z"/>
<path fill="#A22ED3" opacity="1.000000" stroke="none" 
	d="
M489.898468,420.076477 
	C489.490051,420.014099 489.081665,419.951691 488.471924,419.918945 
	C487.621155,419.014618 486.971649,418.080658 486.091858,416.487671 
	C483.868286,412.337524 481.875000,408.846405 479.881683,405.355255 
	C479.729248,405.140228 479.576843,404.925232 479.282288,404.161438 
	C478.736237,402.926910 478.332336,402.241211 477.928467,401.555542 
	C477.397064,400.298431 476.865631,399.041351 476.246460,397.093079 
	C475.749695,395.487244 475.340607,394.572540 474.931519,393.657867 
	C474.666504,392.920380 474.401489,392.182892 474.065918,390.596313 
	C474.000488,389.554565 474.005615,389.361877 474.059937,388.967651 
	C474.169159,388.486298 474.242218,388.209961 474.576202,388.148285 
	C475.375153,389.180939 476.016327,389.956299 476.463135,390.830933 
	C480.854156,399.426361 482.045441,399.733002 490.197052,394.075256 
	C492.104218,392.751556 493.808838,391.129486 495.747192,389.859161 
	C497.384552,388.786163 499.210876,387.993988 500.978912,387.129272 
	C506.874634,384.245850 512.778992,381.379852 518.686218,378.520020 
	C520.451843,377.665283 522.238037,376.852966 524.014832,376.021240 
	C527.553223,382.155426 531.091614,388.289642 534.444519,394.681854 
	C525.170654,393.377502 518.942078,399.572083 512.272827,403.718750 
	C505.389618,407.998474 500.835327,415.761444 492.054321,417.478027 
	C491.199066,417.645233 490.610687,419.177704 489.898468,420.076477 
z"/>
<path fill="#4C49D7" opacity="1.000000" stroke="none" 
	d="
M687.190796,390.896912 
	C690.161987,393.676910 693.133179,396.456879 695.881470,399.645874 
	C682.838806,404.738953 670.580078,410.544495 659.085388,417.961151 
	C656.908386,419.365814 654.333252,420.282166 651.821655,421.008057 
	C648.430969,421.987946 647.665710,423.860413 648.914429,426.988892 
	C649.701111,428.959686 650.286804,431.010712 650.689026,432.838959 
	C645.284363,426.104858 640.153320,419.557526 635.183960,412.697571 
	C637.101807,410.121033 638.387207,406.978912 640.694031,405.742218 
	C651.789429,399.793945 663.325439,394.660126 674.357117,388.603638 
	C679.127686,385.984589 682.624756,386.097626 686.192993,389.943054 
	C686.192993,389.943054 686.081116,390.034698 686.235962,390.141449 
	C686.657471,390.464447 686.924133,390.680664 687.190796,390.896912 
z"/>
<path fill="#4030A2" opacity="1.000000" stroke="none" 
	d="
M662.154907,296.726746 
	C659.031067,292.606476 655.907288,288.486206 652.715454,284.119629 
	C655.356201,281.239746 658.065002,278.606171 661.478271,276.018372 
	C665.584900,278.340851 669.356567,280.218658 672.323303,282.965759 
	C683.129211,292.971771 691.959961,304.336212 695.116821,319.205841 
	C690.204346,325.963470 685.291870,332.721069 680.091431,339.662048 
	C679.179810,330.533752 677.084473,321.607513 672.777222,313.274017 
	C671.866089,311.511108 670.827454,309.814117 669.504517,307.517029 
	C666.826050,303.540405 664.490417,300.133575 662.154907,296.726746 
z"/>
<path fill="#3952D5" opacity="1.000000" stroke="none" 
	d="
M650.962646,433.025757 
	C650.286804,431.010712 649.701111,428.959686 648.914429,426.988892 
	C647.665710,423.860413 648.430969,421.987946 651.821655,421.008057 
	C654.333252,420.282166 656.908386,419.365814 659.085388,417.961151 
	C670.580078,410.544495 682.838806,404.738953 696.041016,399.954865 
	C702.747253,402.818512 709.071106,405.782196 715.703491,408.935425 
	C708.741455,409.035919 704.468506,415.078705 698.510864,417.690399 
	C685.552185,423.371155 672.637695,429.152588 659.599487,434.939758 
	C661.118042,438.398499 662.207214,440.879211 663.238647,443.640625 
	C659.896423,441.317200 656.612000,438.713074 653.034302,435.616364 
	C652.504578,434.701263 652.268005,434.278717 651.976440,433.729858 
	C651.606689,433.411438 651.291992,433.219391 650.980469,433.018494 
	C650.983643,433.009705 650.962646,433.025757 650.962646,433.025757 
z"/>
<path fill="#5E41D5" opacity="1.000000" stroke="none" 
	d="
M686.135742,389.581909 
	C682.624756,386.097626 679.127686,385.984589 674.357117,388.603638 
	C663.325439,394.660126 651.789429,399.793945 640.694031,405.742218 
	C638.387207,406.978912 637.101807,410.121033 634.949829,412.452087 
	C631.666382,406.160797 628.778748,399.802460 625.891052,393.444092 
	C641.708313,383.316345 659.506042,377.281311 676.784424,369.334503 
	C677.911011,371.396698 678.505798,373.198364 679.100586,375.000061 
	C679.216980,375.321625 679.333313,375.643188 679.498535,376.491943 
	C679.713318,377.336639 679.879211,377.654144 680.045105,377.971680 
	C682.056213,381.721375 684.067383,385.471100 686.135742,389.581909 
z"/>
<path fill="#4C49D7" opacity="1.000000" stroke="none" 
	d="
M695.393921,319.047974 
	C691.959961,304.336212 683.129211,292.971771 672.323303,282.965759 
	C669.356567,280.218658 665.584900,278.340851 661.804504,276.011414 
	C665.421448,273.171936 669.416565,270.385223 673.731995,267.497498 
	C681.099304,270.104614 687.302856,273.958710 692.210510,279.868103 
	C694.926758,283.138794 698.675110,285.645294 700.982666,289.140320 
	C704.301270,294.166656 706.906921,299.701630 709.364319,305.220947 
	C709.767273,306.125946 708.013062,308.200806 706.953796,309.486176 
	C705.973999,310.675201 704.589294,311.530579 703.300964,312.872711 
	C703.218994,313.212494 703.185913,313.123199 702.954041,313.220032 
	C702.127563,313.818573 701.532959,314.320251 700.938354,314.821960 
	C700.830017,315.137695 700.625610,315.368256 699.979614,315.599487 
	C699.410156,315.785797 699.199646,315.910004 699.002686,316.057922 
	C697.892151,317.001984 696.781555,317.946045 695.393921,319.047974 
z"/>
<path fill="#4030A2" opacity="1.000000" stroke="none" 
	d="
M625.707764,393.098328 
	C628.778748,399.802460 631.666382,406.160797 634.788147,412.764679 
	C640.153320,419.557526 645.284363,426.104858 650.689026,432.838959 
	C650.962646,433.025757 650.983643,433.009705 651.136780,433.181305 
	C651.512451,433.556976 651.759644,433.724731 652.031433,433.856171 
	C652.268005,434.278717 652.504578,434.701263 652.791748,435.354431 
	C652.472107,435.717316 652.101868,435.849579 651.239685,436.248657 
	C650.747742,436.515472 650.404602,436.543732 650.404602,436.543732 
	C649.069275,437.495972 647.733948,438.448181 645.854919,439.700500 
	C639.563232,433.058258 633.296448,426.470184 628.235901,419.058472 
	C624.376099,413.405396 622.237244,406.603912 618.932861,400.530975 
	C617.740173,398.339081 615.382935,396.780853 613.331909,394.571381 
	C616.026855,390.794556 618.947021,387.379791 621.867188,383.965027 
	C623.086304,386.894196 624.305359,389.823364 625.707764,393.098328 
z"/>
<path fill="#4030A2" opacity="1.000000" stroke="none" 
	d="
M679.223389,374.616394 
	C678.505798,373.198364 677.911011,371.396698 677.138550,369.279510 
	C676.910950,363.879303 676.861023,358.794586 676.995605,353.097443 
	C677.188660,351.658325 677.197083,350.831665 677.205566,350.005005 
	C677.947632,347.172974 678.689697,344.340942 679.722290,341.323853 
	C679.790527,352.170105 679.568298,363.201416 679.223389,374.616394 
z"/>
<path fill="#531CB9" opacity="1.000000" stroke="none" 
	d="
M479.854858,405.670013 
	C481.875000,408.846405 483.868286,412.337524 485.882202,416.122131 
	C483.877869,412.938660 481.852936,409.461731 479.854858,405.670013 
z"/>
<path fill="#531CB9" opacity="1.000000" stroke="none" 
	d="
M469.151367,349.926239 
	C469.285278,355.173401 469.276581,360.626892 469.211945,366.417664 
	C469.106934,361.214142 469.057831,355.673340 469.151367,349.926239 
z"/>
<path fill="#A22ED3" opacity="1.000000" stroke="none" 
	d="
M470.934509,377.306763 
	C471.221344,376.841583 471.470734,376.614105 472.078552,376.509308 
	C472.965210,378.418915 473.493469,380.205841 474.016022,382.382111 
	C474.003448,383.809082 473.996552,384.846741 473.796173,385.880676 
	C473.602661,385.876953 473.216187,385.855255 473.079102,385.577454 
	C472.438446,383.888855 471.934845,382.478027 471.431244,381.067230 
	C471.367981,380.719971 471.304718,380.372742 471.269714,379.370422 
	C471.311432,378.449677 471.244446,378.205353 471.096985,377.982391 
	C471.096985,377.982391 470.897095,377.544495 470.934509,377.306763 
z"/>
<path fill="#2B59D4" opacity="1.000000" stroke="none" 
	d="
M791.067383,406.536560 
	C789.196411,405.117767 787.221191,403.384094 785.143677,401.329285 
	C787.015381,402.745972 788.989258,404.483795 791.067383,406.536560 
z"/>
<path fill="#531CB9" opacity="1.000000" stroke="none" 
	d="
M471.317688,381.281189 
	C471.934845,382.478027 472.438446,383.888855 472.992371,385.724792 
	C473.042725,386.149963 472.862488,386.437805 472.837769,386.459015 
	C472.813019,386.480225 472.860504,386.457947 472.974304,386.806702 
	C473.304382,387.848846 473.520599,388.542206 473.663574,389.325775 
	C473.590302,389.415955 473.449066,389.600525 473.449066,389.600525 
	C472.700775,386.898712 471.952454,384.196930 471.317688,381.281189 
z"/>
<path fill="#2B59D4" opacity="1.000000" stroke="none" 
	d="
M806.985535,424.940369 
	C806.397583,423.511017 805.809631,422.081665 805.127808,420.336426 
	C806.638855,421.472046 808.243713,422.923523 809.890625,424.705597 
	C809.213135,425.029083 808.493408,425.021973 807.395630,424.997131 
	C807.017456,424.979370 806.985535,424.940369 806.985535,424.940369 
z"/>
<path fill="#2B59D4" opacity="1.000000" stroke="none" 
	d="
M803.832275,418.682861 
	C802.702454,417.897522 801.458008,416.821594 800.103699,415.445679 
	C801.235046,416.227844 802.476318,417.310028 803.832275,418.682861 
z"/>
<path fill="#531CB9" opacity="1.000000" stroke="none" 
	d="
M474.817505,393.792999 
	C475.340607,394.572540 475.749695,395.487244 476.109985,396.598083 
	C475.608643,395.838898 475.156036,394.883514 474.817505,393.792999 
z"/>
<path fill="#531CB9" opacity="1.000000" stroke="none" 
	d="
M469.845703,373.005951 
	C470.093384,373.587494 470.236694,374.288879 470.319092,375.144104 
	C470.085907,374.573883 469.913605,373.849823 469.845703,373.005951 
z"/>
<path fill="#531CB9" opacity="1.000000" stroke="none" 
	d="
M650.436401,436.471558 
	C650.404602,436.543732 650.747742,436.515472 650.711975,436.511810 
	C650.759888,436.552826 650.843567,436.597473 650.927246,436.642151 
	C650.886353,436.554443 650.865845,436.418610 650.799683,436.390717 
	C650.706909,436.351532 650.580322,436.392639 650.436401,436.471558 
z"/>
<path fill="#531CB9" opacity="1.000000" stroke="none" 
	d="
M477.826904,401.677795 
	C478.332336,402.241211 478.736237,402.926910 479.109406,403.805908 
	C478.627563,403.266144 478.176453,402.533112 477.826904,401.677795 
z"/>
<path fill="#531CB9" opacity="1.000000" stroke="none" 
	d="
M470.031799,343.795776 
	C470.092224,343.861237 470.185211,344.169464 470.124542,344.189941 
	C470.063873,344.210419 469.779999,344.072479 469.779999,344.072479 
	C469.779999,344.072479 469.971344,343.730316 470.031799,343.795776 
z"/>
<path fill="#5A61D6" opacity="1.000000" stroke="none" 
	d="
M701.243774,314.771240 
	C701.532959,314.320251 702.127563,313.818573 702.996338,313.198120 
	C702.696655,313.626434 702.122864,314.173462 701.243774,314.771240 
z"/>
<path fill="#531CB9" opacity="1.000000" stroke="none" 
	d="
M471.093597,337.908325 
	C471.154144,337.976105 471.231873,338.270233 471.169861,338.284546 
	C471.107819,338.298889 470.814087,338.175171 470.814087,338.175171 
	C470.814087,338.175171 471.033051,337.840515 471.093597,337.908325 
z"/>
<path fill="#2B59D4" opacity="1.000000" stroke="none" 
	d="
M793.187927,408.633118 
	C793.026245,408.686768 792.726196,408.479309 792.212280,408.100555 
	C792.348755,408.076813 792.699219,408.224396 793.187927,408.633118 
z"/>
<path fill="#2B59D4" opacity="1.000000" stroke="none" 
	d="
M792.036621,407.700989 
	C791.846130,407.750397 791.602356,407.519165 791.186707,407.103271 
	C791.337646,407.085876 791.660461,407.253143 792.036621,407.700989 
z"/>
<path fill="#5A61D6" opacity="1.000000" stroke="none" 
	d="
M699.246887,315.999268 
	C699.199646,315.910004 699.410156,315.785797 699.747681,315.643250 
	C699.737854,315.714355 699.614441,315.827515 699.246887,315.999268 
z"/>
<path fill="#4030A2" opacity="1.000000" stroke="none" 
	d="
M680.057861,377.693237 
	C679.879211,377.654144 679.713318,377.336639 679.528320,376.747314 
	C679.696411,376.788605 679.883545,377.101715 680.057861,377.693237 
z"/>
<path fill="#9D36CC" opacity="1.000000" stroke="none" 
	d="
M471.056396,378.239685 
	C471.244446,378.205353 471.311432,378.449677 471.269653,378.840942 
	C471.166199,378.810059 471.091003,378.653534 471.056396,378.239685 
z"/>
<path fill="#2B59D4" opacity="1.000000" stroke="none" 
	d="
M809.382141,426.914001 
	C809.317261,426.769257 809.477539,426.548370 809.787720,426.181671 
	C810.000610,426.370392 809.890503,426.637756 809.382141,426.914001 
z"/>
<path fill="#2B59D4" opacity="1.000000" stroke="none" 
	d="
M672.947144,450.291534 
	C673.143250,450.249847 673.375671,450.489319 673.771423,450.917358 
	C673.617676,450.928192 673.300598,450.750427 672.947144,450.291534 
z"/>
<path fill="#5E41D5" opacity="1.000000" stroke="none" 
	d="
M687.085205,390.634613 
	C686.924133,390.680664 686.657471,390.464447 686.190125,390.085571 
	C686.319519,390.072754 686.649536,390.222534 687.085205,390.634613 
z"/>
<path fill="#531CB9" opacity="1.000000" stroke="none" 
	d="
M474.010773,389.169220 
	C474.005615,389.361877 474.000488,389.554565 473.935608,390.022888 
	C473.648468,390.264771 473.511353,390.135040 473.456787,389.755005 
	C473.449066,389.600525 473.590302,389.415955 473.734863,389.321472 
	C473.879456,389.227020 474.010773,389.169220 474.010773,389.169220 
z"/>
<path fill="#186ADB" opacity="1.000000" stroke="none" 
	d="
M807.035828,424.996643 
	C804.535400,428.261810 802.397095,431.915283 799.436890,434.692902 
	C777.645569,455.140076 751.739380,465.531342 721.855408,463.651306 
	C711.607117,463.006622 701.572083,458.932739 691.454224,456.367706 
	C690.919861,456.232269 690.522583,455.555969 690.119141,455.184540 
	C690.324707,454.657104 690.446716,454.102570 690.552917,454.105621 
	C701.187683,454.407593 708.851746,447.263428 717.843567,443.412842 
	C724.533142,440.548157 731.763611,438.969604 738.543518,436.287933 
	C748.989441,432.156189 758.953003,426.383881 769.715698,423.636810 
	C775.846741,422.071869 780.552551,419.912354 785.345032,416.103912 
	C788.738098,413.407532 798.123901,417.355865 800.729187,420.949371 
	C801.989807,422.688110 804.439819,423.564514 806.668457,424.885864 
	C806.985535,424.940369 807.017456,424.979370 807.035828,424.996643 
z"/>
<path fill="#0E102F" opacity="1.000000" stroke="none" 
	d="
M621.886963,383.546326 
	C618.947021,387.379791 616.026855,390.794556 612.946472,394.501099 
	C603.469421,403.483582 592.427063,408.392426 579.087036,409.948303 
	C577.903564,410.106537 577.438782,410.157166 576.584778,410.086670 
	C574.863708,410.041351 573.531799,410.117157 571.776245,410.121826 
	C570.494873,410.026886 569.637085,410.003082 568.531677,409.775208 
	C566.211548,409.390564 564.139099,409.209991 561.692200,408.970520 
	C557.245728,407.259094 553.173706,405.606537 549.101685,403.953979 
	C547.060852,402.082947 545.138489,400.059753 542.960754,398.364563 
	C522.755249,382.635803 519.790771,355.848541 529.298157,336.662292 
	C540.024414,315.016174 563.689819,304.138000 587.602417,309.540741 
	C598.939758,312.102264 607.910828,318.415161 615.894531,327.059906 
	C623.094055,337.321655 626.515503,348.470886 625.872498,360.618347 
	C625.612305,365.534668 624.105774,370.382233 623.208130,375.268738 
	C622.728455,377.879944 622.337585,380.507446 621.886963,383.546326 
z"/>
<path fill="#982BDA" opacity="1.000000" stroke="none" 
	d="
M662.187927,297.107971 
	C664.490417,300.133575 666.826050,303.540405 669.258301,307.271301 
	C669.834595,309.825195 669.984924,312.195374 670.862915,314.255432 
	C672.644775,318.436035 672.051208,321.907379 668.116882,324.161407 
	C664.142883,326.438171 659.744995,327.973267 655.762695,330.237671 
	C650.047729,333.487396 644.263916,336.733246 639.017090,340.659088 
	C632.706970,345.380493 627.021301,344.174866 624.112305,336.451904 
	C627.130127,336.137451 629.153076,334.939056 630.602478,331.912354 
	C631.603455,329.822296 633.618530,327.357025 635.662415,326.786743 
	C642.109070,324.987946 647.122620,321.266449 652.197327,317.181610 
	C654.886597,315.016937 658.583191,313.914429 661.991211,312.879425 
	C666.333313,311.560760 667.479309,309.826111 665.763611,305.646881 
	C664.638000,302.904938 663.405579,300.206879 662.187927,297.107971 
z"/>
<path fill="#5E41D5" opacity="1.000000" stroke="none" 
	d="
M677.049194,350.218933 
	C677.197083,350.831665 677.188660,351.658325 677.025146,352.691711 
	C676.877747,352.076538 676.885315,351.254700 677.049194,350.218933 
z"/>
<path fill="#CD2ED1" opacity="1.000000" stroke="none" 
	d="
M479.921509,318.027374 
	C485.792389,306.815643 490.705078,295.370331 500.719940,286.406769 
	C508.324097,279.600861 516.075745,273.279968 524.728943,268.171753 
	C548.006226,254.430542 573.044617,251.725372 599.176392,257.635132 
	C603.678955,258.653381 608.071838,260.156555 612.678589,261.887085 
	C612.683044,264.764557 612.524292,267.190704 612.319153,270.325500 
	C611.826843,270.375153 610.528687,270.839752 609.410706,270.566681 
	C599.481079,268.141388 592.639282,273.975006 586.419495,279.921967 
	C582.988831,283.202087 580.033142,285.930359 575.114380,286.073334 
	C571.635132,286.174469 568.173523,286.793915 564.697205,287.105438 
	C560.131775,287.514587 556.476074,289.114136 554.089539,293.435059 
	C553.135864,295.161713 551.169434,296.869141 549.306885,297.460663 
	C540.973999,300.106934 533.758789,306.328888 524.173584,305.194641 
	C522.520752,304.999084 520.691345,306.841370 518.859680,307.514282 
	C512.382996,309.893707 506.009460,312.868927 499.314697,314.213623 
	C495.696167,314.940460 493.145264,316.017609 491.070221,318.770660 
	C490.273865,319.827179 489.539886,320.930756 488.126953,322.936340 
	C487.512054,319.633698 487.144043,317.657104 486.713043,315.342316 
	C484.137299,316.360657 482.029419,317.194031 479.921509,318.027374 
z"/>
<path fill="#C62ED2" opacity="1.000000" stroke="none" 
	d="
M479.779175,318.373718 
	C482.029419,317.194031 484.137299,316.360657 486.713043,315.342316 
	C487.144043,317.657104 487.512054,319.633698 488.126953,322.936340 
	C489.539886,320.930756 490.273865,319.827179 491.070221,318.770660 
	C493.145264,316.017609 495.696167,314.940460 499.314697,314.213623 
	C506.009460,312.868927 512.382996,309.893707 518.859680,307.514282 
	C520.691345,306.841370 522.520752,304.999084 524.173584,305.194641 
	C533.758789,306.328888 540.973999,300.106934 549.306885,297.460663 
	C551.169434,296.869141 553.135864,295.161713 554.089539,293.435059 
	C556.476074,289.114136 560.131775,287.514587 564.697205,287.105438 
	C568.173523,286.793915 571.635132,286.174469 575.114380,286.073334 
	C580.033142,285.930359 582.988831,283.202087 586.419495,279.921967 
	C592.639282,273.975006 599.481079,268.141388 609.410706,270.566681 
	C610.528687,270.839752 611.826843,270.375153 612.319153,270.325500 
	C612.524292,267.190704 612.683044,264.764557 613.042725,262.040710 
	C621.680420,265.655090 630.925659,268.251251 636.825623,276.791565 
	C635.781433,277.445190 634.250549,278.039703 633.827209,277.590454 
	C630.175232,273.715027 627.011047,275.525146 623.810120,278.141602 
	C621.236938,280.244873 618.928406,282.923370 616.009338,284.303406 
	C608.230164,287.981140 601.009216,293.059265 592.092773,294.126068 
	C590.068420,294.368286 588.031616,295.676239 586.301941,296.914581 
	C584.162170,298.446472 582.349060,300.431183 580.371399,302.193939 
	C578.946655,303.463867 577.483643,304.690796 576.037659,305.936890 
	C570.944153,306.586090 565.850586,307.235321 560.172913,307.916840 
	C559.077454,308.278076 558.566101,308.606995 558.054749,308.935944 
	C557.313416,309.014008 556.572021,309.092072 555.162415,309.025085 
	C551.317505,307.656738 549.931274,309.420135 549.101929,312.112488 
	C544.263672,315.969788 539.425415,319.827087 534.070190,323.707703 
	C532.165466,323.064697 530.777893,322.398407 529.390259,321.732147 
	C529.086792,322.100616 528.783325,322.469116 528.479858,322.837585 
	C529.358887,324.247955 530.237976,325.658295 531.117004,327.068634 
	C530.607605,327.950806 530.098206,328.832977 528.946472,329.925049 
	C525.752686,329.866394 523.206116,329.486115 520.647827,329.374451 
	C519.280396,329.314758 517.582092,329.276459 516.567993,329.989380 
	C512.245239,333.028351 508.160217,336.402649 503.911285,339.550446 
	C501.537415,341.309082 498.996552,342.840607 496.559662,344.516235 
	C493.391327,346.694794 489.918335,348.568390 487.180328,351.201233 
	C483.400665,354.835724 479.846069,354.892670 476.245361,350.939117 
	C475.282959,349.882385 473.387543,349.675385 471.920471,349.078278 
	C474.492584,338.958862 477.064697,328.839478 479.779175,318.373718 
z"/>
<path fill="#8729DC" opacity="1.000000" stroke="none" 
	d="
M548.733765,403.979309 
	C553.173706,405.606537 557.245728,407.259094 561.950073,409.192688 
	C564.648010,409.642242 566.713684,409.810730 568.779358,409.979248 
	C569.637085,410.003082 570.494873,410.026886 572.070496,410.300201 
	C574.196716,410.820679 575.605042,411.091675 576.894287,411.665466 
	C571.920715,415.011902 567.753235,418.472015 567.500244,424.901642 
	C567.337158,429.044067 565.050232,432.018158 561.519897,434.095795 
	C557.809937,436.279083 553.624084,437.967987 550.554688,440.842865 
	C547.040222,444.134583 541.505737,446.954834 543.813660,453.031891 
	C542.403076,454.622070 541.213196,455.963470 540.023315,457.304932 
	C532.704346,453.921600 525.200317,450.878082 518.132080,447.033478 
	C513.534790,444.532928 509.571930,440.865906 505.527557,437.376953 
	C507.781830,436.059052 510.608551,435.632233 511.748291,434.015930 
	C516.238464,427.648041 522.708984,423.995331 528.859741,419.661774 
	C535.320801,415.109589 540.918030,409.331268 546.892761,404.088776 
	C547.383789,404.060730 547.874817,404.032684 548.733765,403.979309 
z"/>
<path fill="#BA2ED5" opacity="1.000000" stroke="none" 
	d="
M471.906372,349.504242 
	C473.387543,349.675385 475.282959,349.882385 476.245361,350.939117 
	C479.846069,354.892670 483.400665,354.835724 487.180328,351.201233 
	C489.918335,348.568390 493.391327,346.694794 496.559662,344.516235 
	C498.996552,342.840607 501.537415,341.309082 503.911285,339.550446 
	C508.160217,336.402649 512.245239,333.028351 516.567993,329.989380 
	C517.582092,329.276459 519.280396,329.314758 520.647827,329.374451 
	C523.206116,329.486115 525.752686,329.866394 528.690918,330.104370 
	C526.307495,339.321136 521.447327,348.044739 521.703247,358.626282 
	C518.166565,360.168640 514.787781,360.851898 511.814026,362.343048 
	C503.254822,366.635071 495.228333,372.404327 486.251678,375.283112 
	C481.385986,376.843506 476.947174,377.532043 474.021729,381.992767 
	C473.493469,380.205841 472.965210,378.418915 472.265625,376.338867 
	C472.026947,367.340576 471.959595,358.635376 471.906372,349.504242 
z"/>
<path fill="#982BDA" opacity="1.000000" stroke="none" 
	d="
M546.634033,403.876465 
	C540.918030,409.331268 535.320801,415.109589 528.859741,419.661774 
	C522.708984,423.995331 516.238464,427.648041 511.748291,434.015930 
	C510.608551,435.632233 507.781830,436.059052 505.357849,437.097351 
	C501.788239,433.891083 498.591034,430.619934 495.105530,426.734802 
	C493.207794,424.097412 491.598389,422.074005 489.988983,420.050598 
	C489.988983,420.050598 489.954163,420.101044 489.926331,420.088745 
	C490.610687,419.177704 491.199066,417.645233 492.054321,417.478027 
	C500.835327,415.761444 505.389618,407.998474 512.272827,403.718750 
	C518.942078,399.572083 525.170654,393.377502 534.645569,394.953125 
	C538.813171,397.865631 542.594238,400.764923 546.634033,403.876465 
z"/>
<path fill="#AF31D6" opacity="1.000000" stroke="none" 
	d="
M645.017090,281.034302 
	C649.502136,286.290558 654.068481,291.482910 658.333069,296.912354 
	C658.715088,297.398834 657.439209,300.240692 656.431824,300.606110 
	C643.041504,305.463440 630.469482,311.686127 619.661438,321.162292 
	C618.886658,321.841583 616.549744,322.184204 616.293701,321.794159 
	C612.299438,315.709961 604.967407,315.202057 599.572144,311.533844 
	C599.163513,311.255981 598.820496,310.881561 598.580994,310.187988 
	C605.673767,306.530914 613.081543,303.926239 619.469604,299.758423 
	C626.354797,295.266235 632.246216,289.406006 640.549744,287.056763 
	C642.454346,286.517883 643.549438,283.117676 645.017090,281.034302 
z"/>
<path fill="#BA2ED5" opacity="1.000000" stroke="none" 
	d="
M644.704956,280.880432 
	C643.549438,283.117676 642.454346,286.517883 640.549744,287.056763 
	C632.246216,289.406006 626.354797,295.266235 619.469604,299.758423 
	C613.081543,303.926239 605.673767,306.530914 598.352783,309.936279 
	C590.963074,308.694733 583.935608,307.340820 576.472900,305.961884 
	C577.483643,304.690796 578.946655,303.463867 580.371399,302.193939 
	C582.349060,300.431183 584.162170,298.446472 586.301941,296.914581 
	C588.031616,295.676239 590.068420,294.368286 592.092773,294.126068 
	C601.009216,293.059265 608.230164,287.981140 616.009338,284.303406 
	C618.928406,282.923370 621.236938,280.244873 623.810120,278.141602 
	C627.011047,275.525146 630.175232,273.715027 633.827209,277.590454 
	C634.250549,278.039703 635.781433,277.445190 636.992249,277.085419 
	C639.588013,278.133026 641.990417,279.429810 644.704956,280.880432 
z"/>
<path fill="#AF31D6" opacity="1.000000" stroke="none" 
	d="
M474.016052,382.382111 
	C476.947174,377.532043 481.385986,376.843506 486.251678,375.283112 
	C495.228333,372.404327 503.254822,366.635071 511.814026,362.343048 
	C514.787781,360.851898 518.166565,360.168640 521.705688,359.067200 
	C522.377380,362.399292 522.703735,365.780579 523.124146,369.838135 
	C523.468628,371.002075 523.719177,371.489746 523.969666,371.977448 
	C523.981323,373.055389 523.992981,374.133362 524.009766,375.616272 
	C522.238037,376.852966 520.451843,377.665283 518.686218,378.520020 
	C512.778992,381.379852 506.874634,384.245850 500.978912,387.129272 
	C499.210876,387.993988 497.384552,388.786163 495.747192,389.859161 
	C493.808838,391.129486 492.104218,392.751556 490.197052,394.075256 
	C482.045441,399.733002 480.854156,399.426361 476.463135,390.830933 
	C476.016327,389.956299 475.375153,389.180939 474.509460,387.808136 
	C474.126404,386.799316 474.058044,386.341827 473.989685,385.884369 
	C473.996552,384.846741 474.003448,383.809082 474.016052,382.382111 
z"/>
<path fill="#BA2ED5" opacity="1.000000" stroke="none" 
	d="
M531.348694,326.880371 
	C530.237976,325.658295 529.358887,324.247955 528.479858,322.837585 
	C528.783325,322.469116 529.086792,322.100616 529.390259,321.732147 
	C530.777893,322.398407 532.165466,323.064697 533.812744,323.925476 
	C533.241699,324.977356 532.411072,325.834717 531.348694,326.880371 
z"/>
<path fill="#BA2ED5" opacity="1.000000" stroke="none" 
	d="
M549.451660,312.072479 
	C549.931274,309.420135 551.317505,307.656738 554.790649,309.051880 
	C553.325195,310.159973 551.563354,311.096222 549.451660,312.072479 
z"/>
<path fill="#BA2ED5" opacity="1.000000" stroke="none" 
	d="
M558.307495,308.859436 
	C558.566101,308.606995 559.077454,308.278076 559.779602,308.008789 
	C559.500366,308.306580 559.030334,308.544769 558.307495,308.859436 
z"/>
<path fill="#A22ED3" opacity="1.000000" stroke="none" 
	d="
M523.877258,371.719147 
	C523.719177,371.489746 523.468628,371.002075 523.130493,370.253723 
	C523.290161,370.482330 523.537537,370.971588 523.877258,371.719147 
z"/>
<path fill="#7825E1" opacity="1.000000" stroke="none" 
	d="
M540.355103,457.435852 
	C541.213196,455.963470 542.403076,454.622070 543.813660,453.031891 
	C541.505737,446.954834 547.040222,444.134583 550.554688,440.842865 
	C553.624084,437.967987 557.809937,436.279083 561.519897,434.095795 
	C565.050232,432.018158 567.337158,429.044067 567.500244,424.901642 
	C567.753235,418.472015 571.920715,415.011902 576.901306,411.375061 
	C577.009644,410.590485 576.991821,410.399139 576.973999,410.207764 
	C577.438782,410.157166 577.903564,410.106537 578.719727,410.096680 
	C581.125061,410.412445 583.179016,410.687469 585.682739,411.361847 
	C588.289062,418.107819 590.220337,424.544312 592.699829,430.762207 
	C593.890747,433.748505 596.822754,436.113586 597.713074,439.129913 
	C599.118774,443.892242 601.694885,447.177277 605.697632,449.983704 
	C608.236023,451.763428 609.976868,454.680695 612.075378,457.087799 
	C600.945679,462.493561 588.822449,463.269775 576.284424,464.475433 
	C575.169006,464.218414 574.598328,464.138184 574.027710,464.057922 
	C570.637146,464.012573 567.246521,463.967194 563.241638,463.662415 
	C562.005127,463.030762 561.382874,462.658508 560.760681,462.286316 
	C554.069397,460.713135 547.378174,459.139984 540.355103,457.435852 
z"/>
<path fill="#6921D8" opacity="1.000000" stroke="none" 
	d="
M612.451782,457.068115 
	C609.976868,454.680695 608.236023,451.763428 605.697632,449.983704 
	C601.694885,447.177277 599.118774,443.892242 597.713074,439.129913 
	C596.822754,436.113586 593.890747,433.748505 592.699829,430.762207 
	C590.220337,424.544312 588.289062,418.107819 586.091492,411.366669 
	C591.249695,409.345276 596.397522,407.505341 601.681335,406.228729 
	C603.155823,405.872467 605.041138,407.155304 606.714355,407.752350 
	C606.952454,407.837311 607.117920,408.279541 607.213318,408.588470 
	C610.885010,420.475372 619.833313,429.016754 626.540344,438.973572 
	C627.518311,440.425262 628.980408,441.643066 630.434204,442.660950 
	C632.781250,444.304321 633.385132,446.151245 630.742493,447.642792 
	C624.871704,450.956329 618.811279,453.933899 612.451782,457.068115 
z"/>
<path fill="#A22ED3" opacity="1.000000" stroke="none" 
	d="
M490.054016,420.388123 
	C491.598389,422.074005 493.207794,424.097412 494.930969,426.431671 
	C493.402893,424.736877 491.760986,422.731262 490.054016,420.388123 
z"/>
<path fill="#6921D8" opacity="1.000000" stroke="none" 
	d="
M574.255920,464.172272 
	C574.598328,464.138184 575.169006,464.218414 575.852051,464.441101 
	C575.471008,464.484589 574.977600,464.385590 574.255920,464.172272 
z"/>
<path fill="#6921D8" opacity="1.000000" stroke="none" 
	d="
M560.931030,462.502869 
	C561.382874,462.658508 562.005127,463.030762 562.779541,463.629974 
	C562.321655,463.477814 561.711487,463.098633 560.931030,462.502869 
z"/>
<path fill="#9D36CC" opacity="1.000000" stroke="none" 
	d="
M473.796173,385.880676 
	C474.058044,386.341827 474.126404,386.799316 474.261505,387.596924 
	C474.242218,388.209961 474.169159,388.486298 474.059937,388.967651 
	C474.010773,389.169220 473.879456,389.227020 473.808136,389.231323 
	C473.520599,388.542206 473.304382,387.848846 472.988708,386.803406 
	C472.889282,386.451385 472.862488,386.437805 472.862488,386.437805 
	C472.862488,386.437805 473.042725,386.149963 473.129456,386.002625 
	C473.216187,385.855255 473.602661,385.876953 473.796173,385.880676 
z"/>
<path fill="#4C49D7" opacity="1.000000" stroke="none" 
	d="
M651.976440,433.729858 
	C651.759644,433.724731 651.512451,433.556976 651.133606,433.190125 
	C651.291992,433.219391 651.606689,433.411438 651.976440,433.729858 
z"/>
<path fill="#A22ED3" opacity="1.000000" stroke="none" 
	d="
M472.837769,386.459015 
	C472.862488,386.437805 472.889282,386.451385 472.874878,386.454651 
	C472.860504,386.457947 472.813019,386.480225 472.837769,386.459015 
z"/>
<path fill="#531CB9" opacity="1.000000" stroke="none" 
	d="
M568.531677,409.775208 
	C566.713684,409.810730 564.648010,409.642242 562.324463,409.251587 
	C564.139099,409.209991 566.211548,409.390564 568.531677,409.775208 
z"/>
<path fill="#531CB9" opacity="1.000000" stroke="none" 
	d="
M576.584778,410.086670 
	C576.991821,410.399139 577.009644,410.590485 577.020386,411.072266 
	C575.605042,411.091675 574.196716,410.820679 572.494141,410.371338 
	C573.531799,410.117157 574.863708,410.041351 576.584778,410.086670 
z"/>
</svg>