<?xml version="1.0" encoding="UTF-8"?>
<!DOCTYPE svg PUBLIC "-//W3C//DTD SVG 1.1//EN" "http://www.w3.org/Graphics/SVG/1.1/DTD/svg11.dtd">
<svg xmlns="http://www.w3.org/2000/svg" version="1.1" width="200px" height="200px" style="shape-rendering:geometricPrecision; text-rendering:geometricPrecision; image-rendering:optimizeQuality; fill-rule:evenodd; clip-rule:evenodd" xmlns:xlink="http://www.w3.org/1999/xlink">
<g><path style="opacity:1" fill="#ded6c7" d="M -0.5,-0.5 C 54.8333,-0.5 110.167,-0.5 165.5,-0.5C 167.006,4.84807 169.34,9.84807 172.5,14.5C 173.325,15.3857 174.325,15.719 175.5,15.5C 175.333,29.504 175.5,43.504 176,57.5C 177.663,59.1579 178.496,61.1579 178.5,63.5C 180.5,63.5 182.5,63.5 184.5,63.5C 184.337,65.8568 184.503,68.1902 185,70.5C 186.381,72.6349 187.381,74.9682 188,77.5C 188.71,78.9733 189.876,79.6399 191.5,79.5C 191.665,84.9945 192.665,90.3279 194.5,95.5C 195.5,95.5 196.5,95.5 197.5,95.5C 197.334,99.8461 197.501,104.179 198,108.5C 198.232,109.737 198.732,110.737 199.5,111.5C 199.5,130.167 199.5,148.833 199.5,167.5C 197.876,167.64 196.71,166.973 196,165.5C 194.503,163.041 194.336,160.541 195.5,158C 192.866,151.529 188.866,146.029 183.5,141.5C 182.159,137.616 181.325,133.616 181,129.5C 180.355,128.354 179.522,127.354 178.5,126.5C 182.024,118.948 182.69,111.282 180.5,103.5C 177.886,103.277 176.219,104.444 175.5,107C 172.833,107.667 170.167,107.667 167.5,107C 165.173,101.002 164.84,94.8351 166.5,88.5C 165.1,80.8998 164.266,73.2332 164,65.5C 161.259,60.48 160.426,55.1467 161.5,49.5C 159.983,42.2538 159.15,34.9205 159,27.5C 158.186,25.7183 157.019,24.2183 155.5,23C 156.059,22.2753 156.392,21.4419 156.5,20.5C 154.926,18.578 153.093,16.9113 151,15.5C 148.715,17.9066 146.549,20.4066 144.5,23C 145.833,23.3333 147.167,23.6667 148.5,24C 146.527,24.4955 144.527,24.6621 142.5,24.5C 142.33,23.1779 142.663,22.0113 143.5,21C 143.167,20.8333 142.833,20.6667 142.5,20.5C 141.702,22.0777 141.202,23.7444 141,25.5C 140.426,23.508 139.259,22.008 137.5,21C 137.833,20.6667 138.167,20.3333 138.5,20C 137.584,19.6258 136.75,19.1258 136,18.5C 135.326,15.74 134.493,13.0733 133.5,10.5C 129.513,11.8594 125.513,12.526 121.5,12.5C 120.918,11.0689 120.085,9.73556 119,8.5C 113.4,9.14644 107.9,9.8131 102.5,10.5C 97.8186,11.4567 93.4853,13.4567 89.5,16.5C 86.7354,16.7976 84.2354,17.7976 82,19.5C 81.6667,19.1667 81.3333,18.8333 81,18.5C 80.5078,19.549 80.6744,20.549 81.5,21.5C 79.4332,22.1341 77.5998,23.1341 76,24.5C 74.6667,21.8333 73.3333,21.8333 72,24.5C 69.9471,16.3758 65.9471,15.3758 60,21.5C 59.6667,23.1667 59.3333,24.8333 59,26.5C 56.8282,27.5089 55.6615,29.1756 55.5,31.5C 56.5,31.5 57.5,31.5 58.5,31.5C 58.5,34.1667 58.5,36.8333 58.5,39.5C 57.5,39.5 56.5,39.5 55.5,39.5C 55.5,40.5 55.5,41.5 55.5,42.5C 56.552,42.3505 57.552,42.5172 58.5,43C 62.4394,46.0245 63.1061,49.5245 60.5,53.5C 62.9358,59.8488 61.4358,64.8488 56,68.5C 55.586,68.0426 55.086,67.7093 54.5,67.5C 51.4467,71.2721 47.4467,72.9387 42.5,72.5C 38.8333,72.5 35.1667,72.5 31.5,72.5C 31.5,69.5 31.5,66.5 31.5,63.5C 26.1667,63.5 20.8333,63.5 15.5,63.5C 15.7146,57.1088 14.7146,56.9422 12.5,63C 10.8659,63.4935 9.19919,63.6602 7.5,63.5C 8.21862,60.9275 9.21862,58.4275 10.5,56C 8.86586,55.5065 7.19919,55.3398 5.5,55.5C 6.1828,49.9659 4.84947,44.9659 1.5,40.5C 2.39458,38.6552 1.72791,37.3218 -0.5,36.5C -0.5,24.1667 -0.5,11.8333 -0.5,-0.5 Z"/></g>
<g><path style="opacity:1" fill="#e6ded1" d="M 165.5,-0.5 C 176.833,-0.5 188.167,-0.5 199.5,-0.5C 199.5,36.8333 199.5,74.1667 199.5,111.5C 198.732,110.737 198.232,109.737 198,108.5C 197.501,104.179 197.334,99.8461 197.5,95.5C 196.5,95.5 195.5,95.5 194.5,95.5C 192.665,90.3279 191.665,84.9945 191.5,79.5C 189.876,79.6399 188.71,78.9733 188,77.5C 187.381,74.9682 186.381,72.6349 185,70.5C 184.503,68.1902 184.337,65.8568 184.5,63.5C 182.5,63.5 180.5,63.5 178.5,63.5C 178.496,61.1579 177.663,59.1579 176,57.5C 175.5,43.504 175.333,29.504 175.5,15.5C 174.325,15.719 173.325,15.3857 172.5,14.5C 169.34,9.84807 167.006,4.84807 165.5,-0.5 Z"/></g>
<g><path style="opacity:1" fill="#bcafa1" d="M 121.5,12.5 C 115.332,10.7482 108.998,10.0815 102.5,10.5C 107.9,9.8131 113.4,9.14644 119,8.5C 120.085,9.73556 120.918,11.0689 121.5,12.5 Z"/></g>
<g><path style="opacity:1" fill="#41271a" d="M 102.5,10.5 C 108.998,10.0815 115.332,10.7482 121.5,12.5C 124.661,13.9131 127.661,15.5797 130.5,17.5C 133.58,21.7753 136.08,26.4419 138,31.5C 137.648,36.933 137.815,42.2663 138.5,47.5C 137.512,46.205 136.512,44.8717 135.5,43.5C 135.5,42.8333 135.5,42.1667 135.5,41.5C 135.666,37.4862 135.499,33.4862 135,29.5C 133.97,27.6536 132.804,25.9869 131.5,24.5C 130.424,20.2553 127.758,17.4219 123.5,16C 119.514,15.5012 115.514,15.3345 111.5,15.5C 111.719,14.325 111.386,13.325 110.5,12.5C 108.958,13.7468 107.458,13.7468 106,12.5C 104.307,13.1845 102.807,14.1845 101.5,15.5C 99.7367,15.6938 97.9033,15.6938 96,15.5C 95.5204,17.133 94.6871,18.4664 93.5,19.5C 92.8333,19.5 92.5,19.8333 92.5,20.5C 91.391,20.5569 90.391,20.8902 89.5,21.5C 90.3543,19.965 90.3543,18.6316 89.5,17.5C 89.5,17.1667 89.5,16.8333 89.5,16.5C 93.4853,13.4567 97.8186,11.4567 102.5,10.5 Z"/></g>
<g><path style="opacity:1" fill="#dad2c2" d="M 199.5,167.5 C 199.5,173.167 199.5,178.833 199.5,184.5C 197.533,184.739 195.699,184.406 194,183.5C 192.424,178.459 191.091,173.459 190,168.5C 190.333,168.833 190.667,169.167 191,169.5C 191.167,168.5 191.333,167.5 191.5,166.5C 189.94,163.674 188.107,161.007 186,158.5C 184.523,154.57 183.356,150.57 182.5,146.5C 181.5,146.5 180.5,146.5 179.5,146.5C 178.123,141.614 177.289,136.614 177,131.5C 176.102,128.931 174.935,126.598 173.5,124.5C 168.833,122.167 164.167,119.833 159.5,117.5C 161.113,116.162 161.613,114.495 161,112.5C 158.077,113.621 157.911,113.287 160.5,111.5C 160.833,110.167 161.167,108.833 161.5,107.5C 161.348,92.7363 160.015,78.0696 157.5,63.5C 158.5,63.5 159.5,63.5 160.5,63.5C 160.66,61.8008 160.494,60.1341 160,58.5C 158.984,59.6341 158.317,59.3008 158,57.5C 157.001,48.8423 156.168,40.1757 155.5,31.5C 152.71,31.7776 150.21,31.1109 148,29.5C 146.022,30.9056 143.855,31.9056 141.5,32.5C 139.018,26.4965 135.352,21.4965 130.5,17.5C 127.661,15.5797 124.661,13.9131 121.5,12.5C 125.513,12.526 129.513,11.8594 133.5,10.5C 134.493,13.0733 135.326,15.74 136,18.5C 136.75,19.1258 137.584,19.6258 138.5,20C 138.167,20.3333 137.833,20.6667 137.5,21C 139.259,22.008 140.426,23.508 141,25.5C 141.202,23.7444 141.702,22.0777 142.5,20.5C 142.833,20.6667 143.167,20.8333 143.5,21C 142.663,22.0113 142.33,23.1779 142.5,24.5C 144.527,24.6621 146.527,24.4955 148.5,24C 147.167,23.6667 145.833,23.3333 144.5,23C 146.549,20.4066 148.715,17.9066 151,15.5C 153.093,16.9113 154.926,18.578 156.5,20.5C 156.392,21.4419 156.059,22.2753 155.5,23C 157.019,24.2183 158.186,25.7183 159,27.5C 159.15,34.9205 159.983,42.2538 161.5,49.5C 160.426,55.1467 161.259,60.48 164,65.5C 164.266,73.2332 165.1,80.8998 166.5,88.5C 164.84,94.8351 165.173,101.002 167.5,107C 170.167,107.667 172.833,107.667 175.5,107C 176.219,104.444 177.886,103.277 180.5,103.5C 182.69,111.282 182.024,118.948 178.5,126.5C 179.522,127.354 180.355,128.354 181,129.5C 181.325,133.616 182.159,137.616 183.5,141.5C 188.866,146.029 192.866,151.529 195.5,158C 194.336,160.541 194.503,163.041 196,165.5C 196.71,166.973 197.876,167.64 199.5,167.5 Z"/></g>
<g><path style="opacity:1" fill="#5c3423" d="M 131.5,24.5 C 129.855,23.5213 128.521,22.188 127.5,20.5C 124.463,19.2588 121.463,19.2588 118.5,20.5C 116.473,20.6621 114.473,20.4955 112.5,20C 113.167,19.3333 113.833,18.6667 114.5,18C 113,17.8333 111.5,17.6667 110,17.5C 104.592,18.9849 99.0924,19.6516 93.5,19.5C 94.6871,18.4664 95.5204,17.133 96,15.5C 97.9033,15.6938 99.7367,15.6938 101.5,15.5C 102.807,14.1845 104.307,13.1845 106,12.5C 107.458,13.7468 108.958,13.7468 110.5,12.5C 111.386,13.325 111.719,14.325 111.5,15.5C 115.514,15.3345 119.514,15.5012 123.5,16C 127.758,17.4219 130.424,20.2553 131.5,24.5 Z"/></g>
<g><path style="opacity:1" fill="#7f462e" d="M 118.5,20.5 C 118.5,20.8333 118.5,21.1667 118.5,21.5C 109.798,20.5713 101.131,20.238 92.5,20.5C 92.5,19.8333 92.8333,19.5 93.5,19.5C 99.0924,19.6516 104.592,18.9849 110,17.5C 111.5,17.6667 113,17.8333 114.5,18C 113.833,18.6667 113.167,19.3333 112.5,20C 114.473,20.4955 116.473,20.6621 118.5,20.5 Z"/></g>
<g><path style="opacity:1" fill="#331a10" d="M 89.5,17.5 C 90.3543,18.6316 90.3543,19.965 89.5,21.5C 84.9017,27.2481 83.235,33.9147 84.5,41.5C 82.9475,45.9854 82.1141,50.6521 82,55.5C 81.6174,56.056 81.1174,56.3893 80.5,56.5C 79.4706,54.4832 78.4706,52.4832 77.5,50.5C 79.4095,49.0254 80.5762,47.0254 81,44.5C 81.3365,38.4611 82.0032,32.4611 83,26.5C 83.7845,24.714 84.9512,23.214 86.5,22C 85.9056,21.5357 85.2389,21.369 84.5,21.5C 85.5794,19.457 87.246,18.1237 89.5,17.5 Z"/></g>
<g><path style="opacity:1" fill="#c78158" d="M 118.5,21.5 C 125.721,21.5652 130.888,24.8985 134,31.5C 134.179,35.0252 134.679,38.3586 135.5,41.5C 135.5,42.1667 135.5,42.8333 135.5,43.5C 135.151,46.6417 134.984,49.975 135,53.5C 134.008,50.6771 132.175,48.6771 129.5,47.5C 127.377,44.4382 124.377,42.9382 120.5,43C 122.394,41.9207 122.727,40.5874 121.5,39C 125.318,38.3873 126.318,36.3873 124.5,33C 120.841,32.2057 117.341,31.039 114,29.5C 113.833,29.1667 113.667,28.8333 113.5,28.5C 114.729,27.7189 116.062,27.2189 117.5,27C 114.57,26.3937 111.737,25.5604 109,24.5C 106.239,26.8275 103.073,28.4942 99.5,29.5C 98.6143,30.325 98.281,31.325 98.5,32.5C 97.5,32.5 96.5,32.5 95.5,32.5C 94.6006,36.7048 94.6006,40.7048 95.5,44.5C 94.8333,46.5 93.5,47.8333 91.5,48.5C 91.1336,46.095 90.4669,43.7617 89.5,41.5C 90.7687,36.1369 92.7687,31.1369 95.5,26.5C 96.5,25.8333 97.5,25.1667 98.5,24.5C 98.2907,23.914 97.9574,23.414 97.5,23C 104.606,22.2567 111.606,21.7567 118.5,21.5 Z"/></g>
<g><path style="opacity:1" fill="#9b684e" d="M 131.5,24.5 C 132.804,25.9869 133.97,27.6536 135,29.5C 135.499,33.4862 135.666,37.4862 135.5,41.5C 134.679,38.3586 134.179,35.0252 134,31.5C 130.888,24.8985 125.721,21.5652 118.5,21.5C 118.5,21.1667 118.5,20.8333 118.5,20.5C 121.463,19.2588 124.463,19.2588 127.5,20.5C 128.521,22.188 129.855,23.5213 131.5,24.5 Z"/></g>
<g><path style="opacity:1" fill="#231a16" d="M 84.5,21.5 C 85.2389,21.369 85.9056,21.5357 86.5,22C 84.9512,23.214 83.7845,24.714 83,26.5C 82.0032,32.4611 81.3365,38.4611 81,44.5C 80.5762,47.0254 79.4095,49.0254 77.5,50.5C 77.5,48.1667 77.5,45.8333 77.5,43.5C 77.0931,35.2067 79.4264,27.8733 84.5,21.5 Z"/></g>
<g><path style="opacity:1" fill="#6b412a" d="M 92.5,20.5 C 86.8145,26.2223 84.4811,33.2223 85.5,41.5C 85.1667,41.5 84.8333,41.5 84.5,41.5C 83.235,33.9147 84.9017,27.2481 89.5,21.5C 90.391,20.8902 91.391,20.5569 92.5,20.5 Z"/></g>
<g><path style="opacity:1" fill="#d7cdbd" d="M 159.5,117.5 C 152.592,115.046 145.925,112.046 139.5,108.5C 137.703,107.27 135.703,106.604 133.5,106.5C 132.132,105.694 130.799,104.694 129.5,103.5C 128.505,109.128 128.171,114.794 128.5,120.5C 128.167,120.5 127.833,120.5 127.5,120.5C 127.5,115.167 127.5,109.833 127.5,104.5C 127.5,101.5 127.5,98.5 127.5,95.5C 128.496,95.5858 129.329,95.2524 130,94.5C 131.939,90.5657 134.272,86.899 137,83.5C 137.498,80.1832 137.665,76.8499 137.5,73.5C 140.082,73.9746 142.082,73.3079 143.5,71.5C 144.117,71.3893 144.617,71.056 145,70.5C 145.781,66.0311 146.281,61.5311 146.5,57C 146.419,54.3746 145.752,52.0413 144.5,50C 145.712,48.8932 145.379,48.3932 143.5,48.5C 143.802,45.9407 143.468,43.6074 142.5,41.5C 142.492,38.4552 142.159,35.4552 141.5,32.5C 143.855,31.9056 146.022,30.9056 148,29.5C 150.21,31.1109 152.71,31.7776 155.5,31.5C 156.168,40.1757 157.001,48.8423 158,57.5C 158.317,59.3008 158.984,59.6341 160,58.5C 160.494,60.1341 160.66,61.8008 160.5,63.5C 159.5,63.5 158.5,63.5 157.5,63.5C 160.015,78.0696 161.348,92.7363 161.5,107.5C 161.167,108.833 160.833,110.167 160.5,111.5C 157.911,113.287 158.077,113.621 161,112.5C 161.613,114.495 161.113,116.162 159.5,117.5 Z"/></g>
<g><path style="opacity:1" fill="#a96744" d="M 92.5,20.5 C 101.131,20.238 109.798,20.5713 118.5,21.5C 111.606,21.7567 104.606,22.2567 97.5,23C 97.9574,23.414 98.2907,23.914 98.5,24.5C 97.5,25.1667 96.5,25.8333 95.5,26.5C 92.7687,31.1369 90.7687,36.1369 89.5,41.5C 90.4669,43.7617 91.1336,46.095 91.5,48.5C 88.5081,49.1319 87.8414,50.7985 89.5,53.5C 88.675,54.3857 87.675,54.719 86.5,54.5C 86.7535,56.4008 86.4202,57.0674 85.5,56.5C 85.7728,51.6666 85.7728,46.6666 85.5,41.5C 84.4811,33.2223 86.8145,26.2223 92.5,20.5 Z"/></g>
<g><path style="opacity:1" fill="#e69e76" d="M 127.5,50.5 C 126.142,50.8222 124.475,50.8222 122.5,50.5C 118.849,47.0461 114.849,46.7128 110.5,49.5C 107.432,47.5434 104.099,47.0434 100.5,48C 99.3157,49.1455 99.3157,50.3121 100.5,51.5C 98.4727,51.6621 96.4727,51.4955 94.5,51C 92.8807,50.7645 91.8807,49.9311 91.5,48.5C 93.5,47.8333 94.8333,46.5 95.5,44.5C 96.7206,43.9717 97.8873,43.305 99,42.5C 99.2362,40.236 99.7362,38.0693 100.5,36C 104.623,34.9636 108.79,34.1302 113,33.5C 113.112,34.9715 114.279,36.1381 116.5,37C 113.956,39.2221 113.956,41.3888 116.5,43.5C 120.142,44.1559 123.475,45.4892 126.5,47.5C 127.386,48.325 127.719,49.325 127.5,50.5 Z"/></g>
<g><path style="opacity:1" fill="#dcd6c8" d="M -0.5,36.5 C 1.72791,37.3218 2.39458,38.6552 1.5,40.5C 4.84947,44.9659 6.1828,49.9659 5.5,55.5C 7.19919,55.3398 8.86586,55.5065 10.5,56C 9.21862,58.4275 8.21862,60.9275 7.5,63.5C 9.19919,63.6602 10.8659,63.4935 12.5,63C 14.7146,56.9422 15.7146,57.1088 15.5,63.5C 20.8333,63.5 26.1667,63.5 31.5,63.5C 31.5,66.5 31.5,69.5 31.5,72.5C 35.1667,72.5 38.8333,72.5 42.5,72.5C 42.4226,73.7498 41.756,74.5831 40.5,75C 34.8431,75.4994 29.1764,75.6661 23.5,75.5C 23.5,76.8333 23.5,78.1667 23.5,79.5C 29.8333,79.5 36.1667,79.5 42.5,79.5C 42.0463,86.1393 39.213,87.4727 34,83.5C 32.1667,83.6667 30.3333,83.8333 28.5,84C 28.0598,86.1623 27.7265,88.329 27.5,90.5C 25.7701,92.8361 24.2701,92.8361 23,90.5C 22.0853,91.3279 21.4186,92.3279 21,93.5C 20.7297,97.3728 20.2297,101.206 19.5,105C 19.6301,106.059 20.1301,106.892 21,107.5C 22.5971,107.36 24.0971,107.36 25.5,107.5C 26.6309,109.074 26.7975,110.741 26,112.5C 25.6667,112.167 25.3333,111.833 25,111.5C 24.3551,112.646 23.5217,113.646 22.5,114.5C 23.4719,114.593 24.4719,114.926 25.5,115.5C 18.7321,118.657 14.5654,123.991 13,131.5C 11.1254,139.748 9.79205,148.081 9,156.5C 6.19563,160.443 4.19563,164.777 3,169.5C 2.58083,179.543 1.7475,189.543 0.5,199.5C 0.166667,199.5 -0.166667,199.5 -0.5,199.5C -0.5,145.167 -0.5,90.8333 -0.5,36.5 Z"/></g>
<g><path style="opacity:1" fill="#322119" d="M 130.5,17.5 C 135.352,21.4965 139.018,26.4965 141.5,32.5C 142.159,35.4552 142.492,38.4552 142.5,41.5C 142.5,43.5 142.5,45.5 142.5,47.5C 141.167,47.5 139.833,47.5 138.5,47.5C 137.815,42.2663 137.648,36.933 138,31.5C 136.08,26.4419 133.58,21.7753 130.5,17.5 Z"/></g>
<g><path style="opacity:1" fill="#dc9368" d="M 129.5,47.5 C 129.715,49.1788 129.048,50.1788 127.5,50.5C 127.719,49.325 127.386,48.325 126.5,47.5C 123.475,45.4892 120.142,44.1559 116.5,43.5C 113.956,41.3888 113.956,39.2221 116.5,37C 114.279,36.1381 113.112,34.9715 113,33.5C 108.79,34.1302 104.623,34.9636 100.5,36C 99.7362,38.0693 99.2362,40.236 99,42.5C 97.8873,43.305 96.7206,43.9717 95.5,44.5C 94.6006,40.7048 94.6006,36.7048 95.5,32.5C 96.5,32.5 97.5,32.5 98.5,32.5C 98.281,31.325 98.6143,30.325 99.5,29.5C 103.073,28.4942 106.239,26.8275 109,24.5C 111.737,25.5604 114.57,26.3937 117.5,27C 116.062,27.2189 114.729,27.7189 113.5,28.5C 113.667,28.8333 113.833,29.1667 114,29.5C 117.341,31.039 120.841,32.2057 124.5,33C 126.318,36.3873 125.318,38.3873 121.5,39C 122.727,40.5874 122.394,41.9207 120.5,43C 124.377,42.9382 127.377,44.4382 129.5,47.5 Z"/></g>
<g><path style="opacity:1" fill="#4e2d1f" d="M 142.5,41.5 C 143.468,43.6074 143.802,45.9407 143.5,48.5C 142.5,51.1667 141.5,53.8333 140.5,56.5C 139.833,55.5 139.167,54.5 138.5,53.5C 138.5,51.5 138.5,49.5 138.5,47.5C 139.833,47.5 141.167,47.5 142.5,47.5C 142.5,45.5 142.5,43.5 142.5,41.5 Z"/></g>
<g><path style="opacity:1" fill="#f4b392" d="M 122.5,50.5 C 118.437,50.616 117.77,51.9493 120.5,54.5C 119.469,55.355 118.303,56.0217 117,56.5C 112.941,56.2169 108.774,56.2169 104.5,56.5C 103.5,56.1667 102.833,55.5 102.5,54.5C 106.088,52.7965 105.422,51.7965 100.5,51.5C 99.3157,50.3121 99.3157,49.1455 100.5,48C 104.099,47.0434 107.432,47.5434 110.5,49.5C 114.849,46.7128 118.849,47.0461 122.5,50.5 Z"/></g>
<g><path style="opacity:1" fill="#c89070" d="M 135.5,43.5 C 136.512,44.8717 137.512,46.205 138.5,47.5C 138.5,49.5 138.5,51.5 138.5,53.5C 138.5,57.5 138.5,61.5 138.5,65.5C 137.778,65.9175 137.278,66.5842 137,67.5C 136.617,66.944 136.117,66.6107 135.5,66.5C 134.449,65.7777 133.782,64.7777 133.5,63.5C 135.308,62.0821 135.975,60.0821 135.5,57.5C 134.167,57.5 132.833,57.5 131.5,57.5C 130.942,56.2101 129.942,55.3768 128.5,55C 125.854,54.5026 123.187,54.3359 120.5,54.5C 117.77,51.9493 118.437,50.616 122.5,50.5C 124.475,50.8222 126.142,50.8222 127.5,50.5C 129.048,50.1788 129.715,49.1788 129.5,47.5C 132.175,48.6771 134.008,50.6771 135,53.5C 134.984,49.975 135.151,46.6417 135.5,43.5 Z"/></g>
<g><path style="opacity:1" fill="#925d40" d="M 84.5,41.5 C 84.8333,41.5 85.1667,41.5 85.5,41.5C 85.7728,46.6666 85.7728,51.6666 85.5,56.5C 84.6787,53.3586 84.1787,50.0252 84,46.5C 83.7661,53.056 82.9328,59.3893 81.5,65.5C 81.0371,62.5176 80.7038,59.5176 80.5,56.5C 81.1174,56.3893 81.6174,56.056 82,55.5C 82.1141,50.6521 82.9475,45.9854 84.5,41.5 Z"/></g>
<g><path style="opacity:1" fill="#8e5840" d="M 102.5,54.5 C 102.833,55.5 103.5,56.1667 104.5,56.5C 104.167,57.1667 103.833,57.8333 103.5,58.5C 101.473,58.6621 99.4727,58.4955 97.5,58C 98.6956,57.3457 98.6956,56.8457 97.5,56.5C 96.8076,57.0253 96.3076,57.6919 96,58.5C 95.6924,57.6919 95.1924,57.0253 94.5,56.5C 93.5,57.1667 92.5,57.8333 91.5,58.5C 90.5424,55.5583 91.7091,53.5583 95,52.5C 95.3678,53.91 96.2011,54.91 97.5,55.5C 99.0709,54.6906 100.738,54.3573 102.5,54.5 Z"/></g>
<g><path style="opacity:1" fill="#804e37" d="M 120.5,54.5 C 123.187,54.3359 125.854,54.5026 128.5,55C 129.942,55.3768 130.942,56.2101 131.5,57.5C 129.549,57.7733 128.049,57.1066 127,55.5C 124.402,58.1985 122.235,57.8652 120.5,54.5 Z"/></g>
<g><path style="opacity:1" fill="#996a50" d="M 138.5,53.5 C 139.167,54.5 139.833,55.5 140.5,56.5C 140.488,60.3465 139.822,63.3465 138.5,65.5C 138.5,61.5 138.5,57.5 138.5,53.5 Z"/></g>
<g><path style="opacity:1" fill="#c57c55" d="M 120.5,54.5 C 122.235,57.8652 124.402,58.1985 127,55.5C 128.049,57.1066 129.549,57.7733 131.5,57.5C 132.833,57.5 134.167,57.5 135.5,57.5C 135.975,60.0821 135.308,62.0821 133.5,63.5C 133.167,63.5 132.833,63.5 132.5,63.5C 129.012,59.4419 125.012,58.7753 120.5,61.5C 119.281,60.7366 118.281,59.7366 117.5,58.5C 117.523,61.4262 119.19,63.5928 122.5,65C 120.833,65.3333 119.167,65.6667 117.5,66C 118.527,66.5133 119.527,67.0133 120.5,67.5C 120.5,67.8333 120.5,68.1667 120.5,68.5C 119.577,69.3029 118.577,69.4696 117.5,69C 115.684,66.6831 113.684,64.5165 111.5,62.5C 109.24,64.1768 107.573,66.3434 106.5,69C 104.843,69.7252 103.843,69.2252 103.5,67.5C 102.737,66.7321 101.737,66.2321 100.5,66C 101.571,65.1482 102.571,64.3149 103.5,63.5C 106.048,61.7044 106.048,60.0378 103.5,58.5C 103.833,57.8333 104.167,57.1667 104.5,56.5C 108.774,56.2169 112.941,56.2169 117,56.5C 118.303,56.0217 119.469,55.355 120.5,54.5 Z"/></g>
<g><path style="opacity:1" fill="#df956d" d="M 132.5,63.5 C 131.375,64.3478 131.375,65.3478 132.5,66.5C 130.063,66.7563 127.729,67.4229 125.5,68.5C 124.167,67.8333 122.833,67.1667 121.5,66.5C 120.893,66.6236 120.56,66.9569 120.5,67.5C 119.527,67.0133 118.527,66.5133 117.5,66C 119.167,65.6667 120.833,65.3333 122.5,65C 119.19,63.5928 117.523,61.4262 117.5,58.5C 118.281,59.7366 119.281,60.7366 120.5,61.5C 125.012,58.7753 129.012,59.4419 132.5,63.5 Z"/></g>
<g><path style="opacity:1" fill="#d38e6e" d="M 143.5,48.5 C 145.379,48.3932 145.712,48.8932 144.5,50C 145.752,52.0413 146.419,54.3746 146.5,57C 146.281,61.5311 145.781,66.0311 145,70.5C 144.617,71.056 144.117,71.3893 143.5,71.5C 141.076,71.8076 138.743,71.4742 136.5,70.5C 135.754,69.2638 135.421,67.9305 135.5,66.5C 136.117,66.6107 136.617,66.944 137,67.5C 137.278,66.5842 137.778,65.9175 138.5,65.5C 139.822,63.3465 140.488,60.3465 140.5,56.5C 141.5,53.8333 142.5,51.1667 143.5,48.5 Z"/></g>
<g><path style="opacity:1" fill="#dba584" d="M 132.5,63.5 C 132.833,63.5 133.167,63.5 133.5,63.5C 133.782,64.7777 134.449,65.7777 135.5,66.5C 135.421,67.9305 135.754,69.2638 136.5,70.5C 138.743,71.4742 141.076,71.8076 143.5,71.5C 142.082,73.3079 140.082,73.9746 137.5,73.5C 137.665,76.8499 137.498,80.1832 137,83.5C 134.272,86.899 131.939,90.5657 130,94.5C 129.329,95.2524 128.496,95.5858 127.5,95.5C 127.215,93.712 127.548,92.0453 128.5,90.5C 131.074,88.355 132.907,85.6883 134,82.5C 134.182,78.0822 134.348,73.7488 134.5,69.5C 134.058,68.2613 133.391,67.2613 132.5,66.5C 131.375,65.3478 131.375,64.3478 132.5,63.5 Z"/></g>
<g><path style="opacity:1" fill="#d8d1c3" d="M 89.5,16.5 C 89.5,16.8333 89.5,17.1667 89.5,17.5C 87.246,18.1237 85.5794,19.457 84.5,21.5C 79.4264,27.8733 77.0931,35.2067 77.5,43.5C 76.5489,44.9187 76.2155,46.5853 76.5,48.5C 73.1075,48.3753 71.7741,50.042 72.5,53.5C 73.7715,59.4806 74.9381,65.4806 76,71.5C 78.1239,72.9455 80.2905,74.2788 82.5,75.5C 82.6458,79.5191 82.9791,83.5191 83.5,87.5C 80.0648,91.4379 76.3981,95.2712 72.5,99C 58.5934,104.468 44.5934,109.635 30.5,114.5C 28.7839,114.629 27.1172,114.962 25.5,115.5C 24.4719,114.926 23.4719,114.593 22.5,114.5C 23.5217,113.646 24.3551,112.646 25,111.5C 25.3333,111.833 25.6667,112.167 26,112.5C 26.7975,110.741 26.6309,109.074 25.5,107.5C 24.0971,107.36 22.5971,107.36 21,107.5C 20.1301,106.892 19.6301,106.059 19.5,105C 20.2297,101.206 20.7297,97.3728 21,93.5C 21.4186,92.3279 22.0853,91.3279 23,90.5C 24.2701,92.8361 25.7701,92.8361 27.5,90.5C 27.7265,88.329 28.0598,86.1623 28.5,84C 30.3333,83.8333 32.1667,83.6667 34,83.5C 39.213,87.4727 42.0463,86.1393 42.5,79.5C 36.1667,79.5 29.8333,79.5 23.5,79.5C 23.5,78.1667 23.5,76.8333 23.5,75.5C 29.1764,75.6661 34.8431,75.4994 40.5,75C 41.756,74.5831 42.4226,73.7498 42.5,72.5C 47.4467,72.9387 51.4467,71.2721 54.5,67.5C 55.086,67.7093 55.586,68.0426 56,68.5C 61.4358,64.8488 62.9358,59.8488 60.5,53.5C 63.1061,49.5245 62.4394,46.0245 58.5,43C 57.552,42.5172 56.552,42.3505 55.5,42.5C 55.5,41.5 55.5,40.5 55.5,39.5C 56.5,39.5 57.5,39.5 58.5,39.5C 58.5,36.8333 58.5,34.1667 58.5,31.5C 57.5,31.5 56.5,31.5 55.5,31.5C 55.6615,29.1756 56.8282,27.5089 59,26.5C 59.3333,24.8333 59.6667,23.1667 60,21.5C 65.9471,15.3758 69.9471,16.3758 72,24.5C 73.3333,21.8333 74.6667,21.8333 76,24.5C 77.5998,23.1341 79.4332,22.1341 81.5,21.5C 80.6744,20.549 80.5078,19.549 81,18.5C 81.3333,18.8333 81.6667,19.1667 82,19.5C 84.2354,17.7976 86.7354,16.7976 89.5,16.5 Z"/></g>
<g><path style="opacity:1" fill="#cc8f70" d="M 77.5,43.5 C 77.5,45.8333 77.5,48.1667 77.5,50.5C 78.4706,52.4832 79.4706,54.4832 80.5,56.5C 80.7038,59.5176 81.0371,62.5176 81.5,65.5C 82.3242,68.7644 82.6576,72.0977 82.5,75.5C 80.2905,74.2788 78.1239,72.9455 76,71.5C 74.9381,65.4806 73.7715,59.4806 72.5,53.5C 71.7741,50.042 73.1075,48.3753 76.5,48.5C 76.2155,46.5853 76.5489,44.9187 77.5,43.5 Z"/></g>
<g><path style="opacity:1" fill="#b97d5b" d="M 85.5,56.5 C 86.4202,57.0674 86.7535,56.4008 86.5,54.5C 87.675,54.719 88.675,54.3857 89.5,53.5C 87.8414,50.7985 88.5081,49.1319 91.5,48.5C 91.8807,49.9311 92.8807,50.7645 94.5,51C 96.4727,51.4955 98.4727,51.6621 100.5,51.5C 105.422,51.7965 106.088,52.7965 102.5,54.5C 100.738,54.3573 99.0709,54.6906 97.5,55.5C 96.2011,54.91 95.3678,53.91 95,52.5C 91.7091,53.5583 90.5424,55.5583 91.5,58.5C 92.5,57.8333 93.5,57.1667 94.5,56.5C 95.1924,57.0253 95.6924,57.6919 96,58.5C 96.3076,57.6919 96.8076,57.0253 97.5,56.5C 98.6956,56.8457 98.6956,57.3457 97.5,58C 99.4727,58.4955 101.473,58.6621 103.5,58.5C 106.048,60.0378 106.048,61.7044 103.5,63.5C 102.048,62.6981 100.382,62.1981 98.5,62C 98.9574,61.586 99.2907,61.086 99.5,60.5C 97.2351,59.3526 94.9018,59.1859 92.5,60C 92.9574,60.414 93.2907,60.914 93.5,61.5C 90.8453,61.9752 88.8453,63.3085 87.5,65.5C 85.8588,66.8705 84.8588,68.7039 84.5,71C 85.1495,72.6895 85.1495,74.5229 84.5,76.5C 83.8333,76.1667 83.1667,75.8333 82.5,75.5C 82.6576,72.0977 82.3242,68.7644 81.5,65.5C 82.9328,59.3893 83.7661,53.056 84,46.5C 84.1787,50.0252 84.6787,53.3586 85.5,56.5 Z"/></g>
<g><path style="opacity:1" fill="#db9f77" d="M 87.5,65.5 C 92.3685,72.2844 94.8685,79.951 95,88.5C 95.2492,87.376 95.7492,86.376 96.5,85.5C 97.4168,86.1272 98.4168,86.4606 99.5,86.5C 99.8871,89.1591 99.3871,91.8257 98,94.5C 97.0853,93.6721 96.4186,92.6721 96,91.5C 95.8195,93.4884 95.9862,95.4884 96.5,97.5C 95.6981,98.9516 95.1981,100.618 95,102.5C 94.34,100.676 93.1733,99.343 91.5,98.5C 90.8783,97.3734 90.045,96.3734 89,95.5C 86.2852,89.4203 84.7852,83.087 84.5,76.5C 85.1495,74.5229 85.1495,72.6895 84.5,71C 84.8588,68.7039 85.8588,66.8705 87.5,65.5 Z"/></g>
<g><path style="opacity:1" fill="#edaa84" d="M 132.5,66.5 C 133.391,67.2613 134.058,68.2613 134.5,69.5C 134.348,73.7488 134.182,78.0822 134,82.5C 132.907,85.6883 131.074,88.355 128.5,90.5C 127.548,92.0453 127.215,93.712 127.5,95.5C 126.5,95.5 125.5,95.5 124.5,95.5C 124.666,90.4889 124.499,85.4889 124,80.5C 122.554,78.0585 121.721,75.3919 121.5,72.5C 119.473,72.3379 117.473,72.5045 115.5,73C 114.62,74.3561 114.286,75.8561 114.5,77.5C 113.07,77.5792 111.736,77.2458 110.5,76.5C 109.526,74.2573 109.192,71.924 109.5,69.5C 112.193,69.5715 114.86,69.9049 117.5,70.5C 119.03,70.3601 120.03,69.6935 120.5,68.5C 120.5,68.1667 120.5,67.8333 120.5,67.5C 120.56,66.9569 120.893,66.6236 121.5,66.5C 122.833,67.1667 124.167,67.8333 125.5,68.5C 127.729,67.4229 130.063,66.7563 132.5,66.5 Z"/></g>
<g><path style="opacity:1" fill="#eaa680" d="M 103.5,63.5 C 102.571,64.3149 101.571,65.1482 100.5,66C 101.737,66.2321 102.737,66.7321 103.5,67.5C 102.418,69.3272 102.418,71.3272 103.5,73.5C 101.991,75.1804 100.657,77.0138 99.5,79C 99.9054,79.9454 100.572,80.6121 101.5,81C 98.0847,82.1433 97.7514,83.81 100.5,86C 100.272,86.3988 99.9382,86.5654 99.5,86.5C 98.4168,86.4606 97.4168,86.1272 96.5,85.5C 95.7492,86.376 95.2492,87.376 95,88.5C 94.8685,79.951 92.3685,72.2844 87.5,65.5C 88.8453,63.3085 90.8453,61.9752 93.5,61.5C 93.2907,60.914 92.9574,60.414 92.5,60C 94.9018,59.1859 97.2351,59.3526 99.5,60.5C 99.2907,61.086 98.9574,61.586 98.5,62C 100.382,62.1981 102.048,62.6981 103.5,63.5 Z"/></g>
<g><path style="opacity:1" fill="#d9946e" d="M 120.5,68.5 C 120.03,69.6935 119.03,70.3601 117.5,70.5C 114.86,69.9049 112.193,69.5715 109.5,69.5C 109.192,71.924 109.526,74.2573 110.5,76.5C 111.736,77.2458 113.07,77.5792 114.5,77.5C 114.286,75.8561 114.62,74.3561 115.5,73C 117.473,72.5045 119.473,72.3379 121.5,72.5C 121.721,75.3919 122.554,78.0585 124,80.5C 124.499,85.4889 124.666,90.4889 124.5,95.5C 122.616,96.3816 121.283,97.8816 120.5,100C 118.866,100.494 117.199,100.66 115.5,100.5C 114.962,98.8828 114.629,97.2161 114.5,95.5C 116.308,95.5086 117.975,95.0086 119.5,94C 118.167,92.6667 118.167,91.3333 119.5,90C 117.264,89.921 115.93,89.421 115.5,88.5C 116.978,88.762 118.311,88.4287 119.5,87.5C 120.711,85.5781 122.044,83.7448 123.5,82C 121.505,81.3872 119.838,81.8872 118.5,83.5C 117.207,82.8418 115.707,82.5085 114,82.5C 111.179,82.4078 108.679,83.0744 106.5,84.5C 104.742,84.1231 103.075,83.4565 101.5,82.5C 101.167,82.8333 100.833,83.1667 100.5,83.5C 101.994,84.9047 102.994,86.5713 103.5,88.5C 104.509,89.9391 104.176,91.2724 102.5,92.5C 103.329,95.5465 105.329,97.2131 108.5,97.5C 107.873,98.4168 107.539,99.4168 107.5,100.5C 103.114,102.14 99.4469,101.14 96.5,97.5C 95.9862,95.4884 95.8195,93.4884 96,91.5C 96.4186,92.6721 97.0853,93.6721 98,94.5C 99.3871,91.8257 99.8871,89.1591 99.5,86.5C 99.9382,86.5654 100.272,86.3988 100.5,86C 97.7514,83.81 98.0847,82.1433 101.5,81C 100.572,80.6121 99.9054,79.9454 99.5,79C 100.657,77.0138 101.991,75.1804 103.5,73.5C 102.418,71.3272 102.418,69.3272 103.5,67.5C 103.843,69.2252 104.843,69.7252 106.5,69C 107.573,66.3434 109.24,64.1768 111.5,62.5C 113.684,64.5165 115.684,66.6831 117.5,69C 118.577,69.4696 119.577,69.3029 120.5,68.5 Z"/></g>
<g><path style="opacity:1" fill="#ab604c" d="M 115.5,88.5 C 111.658,87.4608 107.658,87.4608 103.5,88.5C 102.994,86.5713 101.994,84.9047 100.5,83.5C 100.833,83.1667 101.167,82.8333 101.5,82.5C 103.075,83.4565 104.742,84.1231 106.5,84.5C 110.733,85.899 114.733,85.5657 118.5,83.5C 119.838,81.8872 121.505,81.3872 123.5,82C 122.044,83.7448 120.711,85.5781 119.5,87.5C 118.311,88.4287 116.978,88.762 115.5,88.5 Z"/></g>
<g><path style="opacity:1" fill="#fcdbc9" d="M 118.5,83.5 C 114.733,85.5657 110.733,85.899 106.5,84.5C 108.679,83.0744 111.179,82.4078 114,82.5C 115.707,82.5085 117.207,82.8418 118.5,83.5 Z"/></g>
<g><path style="opacity:1" fill="#a9876c" d="M 82.5,75.5 C 83.1667,75.8333 83.8333,76.1667 84.5,76.5C 84.7852,83.087 86.2852,89.4203 89,95.5C 90.045,96.3734 90.8783,97.3734 91.5,98.5C 91.8333,99.8333 92.1667,101.167 92.5,102.5C 91.5,102.167 90.8333,101.5 90.5,100.5C 88.5919,97.6884 86.9252,94.6884 85.5,91.5C 85.0431,90.7025 84.3764,90.3691 83.5,90.5C 84.625,89.3478 84.625,88.3478 83.5,87.5C 82.9791,83.5191 82.6458,79.5191 82.5,75.5 Z"/></g>
<g><path style="opacity:1" fill="#eda884" d="M 115.5,88.5 C 115.93,89.421 117.264,89.921 119.5,90C 118.167,91.3333 118.167,92.6667 119.5,94C 117.975,95.0086 116.308,95.5086 114.5,95.5C 114.629,97.2161 114.962,98.8828 115.5,100.5C 112.833,100.5 110.167,100.5 107.5,100.5C 107.539,99.4168 107.873,98.4168 108.5,97.5C 105.329,97.2131 103.329,95.5465 102.5,92.5C 104.176,91.2724 104.509,89.9391 103.5,88.5C 107.658,87.4608 111.658,87.4608 115.5,88.5 Z"/></g>
<g><path style="opacity:1" fill="#cc9875" d="M 124.5,95.5 C 125.5,95.5 126.5,95.5 127.5,95.5C 127.5,98.5 127.5,101.5 127.5,104.5C 124.787,109.388 121.12,113.554 116.5,117C 114.975,118.009 113.308,118.509 111.5,118.5C 113.611,117.264 115.611,115.764 117.5,114C 116.606,111.932 115.94,109.765 115.5,107.5C 116.695,105.106 116.695,102.773 115.5,100.5C 117.199,100.66 118.866,100.494 120.5,100C 121.283,97.8816 122.616,96.3816 124.5,95.5 Z"/></g>
<g><path style="opacity:1" fill="#e1af8e" d="M 96.5,97.5 C 99.4469,101.14 103.114,102.14 107.5,100.5C 110.167,100.5 112.833,100.5 115.5,100.5C 116.695,102.773 116.695,105.106 115.5,107.5C 115.94,109.765 116.606,111.932 117.5,114C 115.611,115.764 113.611,117.264 111.5,118.5C 110.833,118.167 110.167,117.833 109.5,117.5C 102.918,113.587 97.2509,108.587 92.5,102.5C 92.1667,101.167 91.8333,99.8333 91.5,98.5C 93.1733,99.343 94.34,100.676 95,102.5C 95.1981,100.618 95.6981,98.9516 96.5,97.5 Z"/></g>
<g><path style="opacity:1" fill="#3f3734" d="M 83.5,87.5 C 84.625,88.3478 84.625,89.3478 83.5,90.5C 83.5,90.8333 83.5,91.1667 83.5,91.5C 82.6862,93.631 82.1862,95.9644 82,98.5C 79.4331,99.27 76.9331,100.27 74.5,101.5C 73.2888,102.274 73.2888,103.107 74.5,104C 71.6667,104.167 70.1667,105.667 70,108.5C 70.0036,113.34 68.837,117.84 66.5,122C 68.7167,123.723 71.05,125.223 73.5,126.5C 77.5,127.833 77.5,129.167 73.5,130.5C 72.1576,126.786 69.6576,125.453 66,126.5C 65.3109,125.643 64.4776,124.977 63.5,124.5C 62.8333,121.167 62.1667,117.833 61.5,114.5C 60.4826,117.028 59.3159,117.028 58,114.5C 56.8403,116.797 55.8403,116.464 55,113.5C 53.6502,120.028 52.4835,120.028 51.5,113.5C 50.5298,116.774 49.0298,119.774 47,122.5C 46.5172,121.552 46.3505,120.552 46.5,119.5C 43.1667,119.833 39.8333,120.167 36.5,120.5C 36.728,118.645 36.0613,117.812 34.5,118C 35.8729,119.861 36.2062,121.694 35.5,123.5C 33.9112,126.092 32.2445,126.092 30.5,123.5C 29.914,123.709 29.414,124.043 29,124.5C 28.3162,123.216 28.4829,122.049 29.5,121C 27.1076,118.613 27.441,116.446 30.5,114.5C 44.5934,109.635 58.5934,104.468 72.5,99C 76.3981,95.2712 80.0648,91.4379 83.5,87.5 Z"/></g>
<g><path style="opacity:1" fill="#faf8f9" d="M 90.5,100.5 C 90.8333,101.5 91.5,102.167 92.5,102.5C 97.2509,108.587 102.918,113.587 109.5,117.5C 109.5,118.5 109.5,119.5 109.5,120.5C 108.087,123.661 106.42,126.661 104.5,129.5C 102.497,132.688 99.8302,134.855 96.5,136C 96.8333,135.667 97.1667,135.333 97.5,135C 96.3358,133.006 95.6692,130.839 95.5,128.5C 97.2126,126.081 97.8793,123.581 97.5,121C 96.5509,120.383 95.7175,120.549 95,121.5C 93.9062,118.308 92.0728,115.642 89.5,113.5C 92.4621,110.612 91.7954,109.279 87.5,109.5C 87.3367,107.143 87.5034,104.81 88,102.5C 88.7083,101.619 89.5416,100.953 90.5,100.5 Z"/></g>
<g><path style="opacity:1" fill="#4b4341" d="M 73.5,130.5 C 72.7974,132.716 71.4641,134.549 69.5,136C 70.4506,136.718 70.6172,137.551 70,138.5C 69.3457,137.304 68.8457,137.304 68.5,138.5C 70.5649,142.206 72.5649,145.872 74.5,149.5C 74.5,150.167 74.5,150.833 74.5,151.5C 72.3852,149.109 69.7186,147.776 66.5,147.5C 66.6567,146.127 66.49,144.793 66,143.5C 65.6667,143.833 65.3333,144.167 65,144.5C 61.8082,143.308 59.9748,140.975 59.5,137.5C 57.9411,138.074 56.4411,138.74 55,139.5C 54.3333,138.167 53.6667,136.833 53,135.5C 52.4382,140.097 51.2715,140.43 49.5,136.5C 49.8627,135.817 50.1961,135.15 50.5,134.5C 50.5153,130.44 50.0153,126.44 49,122.5C 48.7167,125.742 47.8834,126.076 46.5,123.5C 45.332,126.469 43.9987,126.802 42.5,124.5C 41.6721,125.415 40.6721,126.081 39.5,126.5C 37.9589,125.714 36.6256,124.714 35.5,123.5C 36.2062,121.694 35.8729,119.861 34.5,118C 36.0613,117.812 36.728,118.645 36.5,120.5C 39.8333,120.167 43.1667,119.833 46.5,119.5C 46.3505,120.552 46.5172,121.552 47,122.5C 49.0298,119.774 50.5298,116.774 51.5,113.5C 52.4835,120.028 53.6502,120.028 55,113.5C 55.8403,116.464 56.8403,116.797 58,114.5C 59.3159,117.028 60.4826,117.028 61.5,114.5C 62.1667,117.833 62.8333,121.167 63.5,124.5C 64.4776,124.977 65.3109,125.643 66,126.5C 69.6576,125.453 72.1576,126.786 73.5,130.5 Z"/></g>
<g><path style="opacity:1" fill="#4c4442" d="M 83.5,91.5 C 83.4672,95.8689 83.8005,100.202 84.5,104.5C 84.6602,106.199 84.4935,107.866 84,109.5C 83.6667,109.167 83.3333,108.833 83,108.5C 82.0975,109.701 80.9308,110.535 79.5,111C 80.3081,111.308 80.9747,111.808 81.5,112.5C 79.4453,113.187 77.7786,114.354 76.5,116C 77.7441,116.456 78.5774,115.956 79,114.5C 80.7277,116.194 80.2277,117.361 77.5,118C 80.5443,118.359 80.8776,119.026 78.5,120C 79.1667,120.667 79.8333,121.333 80.5,122C 78.7536,122.471 77.087,123.138 75.5,124C 76.1667,124.333 76.8333,124.667 77.5,125C 75.9419,125.21 74.6085,125.71 73.5,126.5C 71.05,125.223 68.7167,123.723 66.5,122C 68.837,117.84 70.0036,113.34 70,108.5C 70.1667,105.667 71.6667,104.167 74.5,104C 73.2888,103.107 73.2888,102.274 74.5,101.5C 76.9331,100.27 79.4331,99.27 82,98.5C 82.1862,95.9644 82.6862,93.631 83.5,91.5 Z"/></g>
<g><path style="opacity:1" fill="#efe8e1" d="M 127.5,104.5 C 127.5,109.833 127.5,115.167 127.5,120.5C 127.5,122.833 127.5,125.167 127.5,127.5C 126.673,131.363 125.839,135.363 125,139.5C 123.141,136.436 121.308,133.436 119.5,130.5C 118.389,124.721 115.055,121.388 109.5,120.5C 109.5,119.5 109.5,118.5 109.5,117.5C 110.167,117.833 110.833,118.167 111.5,118.5C 113.308,118.509 114.975,118.009 116.5,117C 121.12,113.554 124.787,109.388 127.5,104.5 Z"/></g>
<g><path style="opacity:1" fill="#3b3331" d="M 133.5,106.5 C 135.703,106.604 137.703,107.27 139.5,108.5C 139.281,109.675 139.614,110.675 140.5,111.5C 143.651,112.972 146.317,114.972 148.5,117.5C 148.154,118.696 147.654,118.696 147,117.5C 146.54,120.304 147.04,122.971 148.5,125.5C 147.846,127.115 147.346,128.782 147,130.5C 145.529,128.128 144.363,128.128 143.5,130.5C 144.36,132.272 145.693,133.605 147.5,134.5C 146.318,138.952 144.818,139.286 143,135.5C 142.333,138.5 142.333,141.5 143,144.5C 144.678,145.466 145.345,146.799 145,148.5C 142.856,147.354 141.023,145.854 139.5,144C 141.893,140.866 141.893,137.866 139.5,135C 140.669,131.36 139.669,128.36 136.5,126C 137.5,125.667 138.5,125.333 139.5,125C 138.224,122.834 138.557,120.834 140.5,119C 137.469,115.237 134.803,111.237 132.5,107C 132.728,106.601 133.062,106.435 133.5,106.5 Z"/></g>
<g><path style="opacity:1" fill="#5a5252" d="M 84.5,104.5 C 86.8526,112.565 89.5193,120.565 92.5,128.5C 92.631,129.239 92.4643,129.906 92,130.5C 90.0843,130.645 88.251,130.145 86.5,129C 88.4305,133.202 90.4305,136.702 92.5,139.5C 91.132,140.594 89.9653,140.26 89,138.5C 88.541,141.192 88.2077,143.858 88,146.5C 84.7195,145.901 81.2195,145.234 77.5,144.5C 77.2785,146.664 76.2785,148.33 74.5,149.5C 72.5649,145.872 70.5649,142.206 68.5,138.5C 68.8457,137.304 69.3457,137.304 70,138.5C 70.6172,137.551 70.4506,136.718 69.5,136C 71.4641,134.549 72.7974,132.716 73.5,130.5C 77.5,129.167 77.5,127.833 73.5,126.5C 74.6085,125.71 75.9419,125.21 77.5,125C 76.8333,124.667 76.1667,124.333 75.5,124C 77.087,123.138 78.7536,122.471 80.5,122C 79.8333,121.333 79.1667,120.667 78.5,120C 80.8776,119.026 80.5443,118.359 77.5,118C 80.2277,117.361 80.7277,116.194 79,114.5C 78.5774,115.956 77.7441,116.456 76.5,116C 77.7786,114.354 79.4453,113.187 81.5,112.5C 80.9747,111.808 80.3081,111.308 79.5,111C 80.9308,110.535 82.0975,109.701 83,108.5C 83.3333,108.833 83.6667,109.167 84,109.5C 84.4935,107.866 84.6602,106.199 84.5,104.5 Z"/></g>
<g><path style="opacity:1" fill="#615a59" d="M 50.5,134.5 C 50.1961,135.15 49.8627,135.817 49.5,136.5C 51.2715,140.43 52.4382,140.097 53,135.5C 53.6667,136.833 54.3333,138.167 55,139.5C 56.4411,138.74 57.9411,138.074 59.5,137.5C 59.9748,140.975 61.8082,143.308 65,144.5C 65.3333,144.167 65.6667,143.833 66,143.5C 66.49,144.793 66.6567,146.127 66.5,147.5C 69.7186,147.776 72.3852,149.109 74.5,151.5C 76.0972,150.91 77.4305,149.91 78.5,148.5C 78.8333,149 79.1667,149.5 79.5,150C 76.8548,153.076 76.8548,156.076 79.5,159C 79.1667,159.333 78.8333,159.667 78.5,160C 79.8136,163.465 81.4803,166.632 83.5,169.5C 84.5912,172.272 85.5912,175.105 86.5,178C 85.02,177.942 84.1867,179.109 84,181.5C 83.0766,180.241 82.2432,178.908 81.5,177.5C 80.8333,178.167 80.1667,178.833 79.5,179.5C 79.7036,178.471 79.2036,177.471 78,176.5C 77.0255,178.878 76.3589,178.544 76,175.5C 75.3333,179.5 74.6667,179.5 74,175.5C 72.6764,176.88 71.3431,177.214 70,176.5C 69.6667,177.5 69.3333,178.5 69,179.5C 68.1597,176.536 67.1597,176.203 66,178.5C 63.9091,175.155 62.5758,171.488 62,167.5C 61.6667,169.167 61.3333,170.833 61,172.5C 60.8866,168.539 59.8866,164.539 58,160.5C 57.2231,170.189 56.2231,170.522 55,161.5C 53.8861,165.456 53.0527,165.456 52.5,161.5C 51.5,161.5 50.5,161.5 49.5,161.5C 49.6567,160.127 49.49,158.793 49,157.5C 48.6667,159.833 48.3333,162.167 48,164.5C 46.2559,163.351 46.0892,162.017 47.5,160.5C 46.9851,158.775 46.3184,157.108 45.5,155.5C 43.8469,163.727 44.5135,171.727 47.5,179.5C 47.3764,180.107 47.0431,180.44 46.5,180.5C 45.205,179.512 43.8717,178.512 42.5,177.5C 42.3739,175.8 41.7073,174.3 40.5,173C 41.3881,171.78 42.0548,170.447 42.5,169C 41.744,165.875 41.4107,162.709 41.5,159.5C 41.1552,150.763 40.1552,142.096 38.5,133.5C 38.6667,131.833 38.8333,130.167 39,128.5C 40.0432,130.701 40.8765,133.034 41.5,135.5C 42.3078,133.577 42.8078,131.577 43,129.5C 43.4974,132.146 43.6641,134.813 43.5,137.5C 45.451,137.227 46.951,137.893 48,139.5C 48.4828,138.552 48.6495,137.552 48.5,136.5C 47.5,136.5 46.5,136.5 45.5,136.5C 45.3309,131.959 45.9975,131.626 47.5,135.5C 48.4168,134.873 49.4168,134.539 50.5,134.5 Z"/></g>
<g><path style="opacity:1" fill="#e9e2e1" d="M 83.5,90.5 C 84.3764,90.3691 85.0431,90.7025 85.5,91.5C 86.9252,94.6884 88.5919,97.6884 90.5,100.5C 89.5416,100.953 88.7083,101.619 88,102.5C 87.5034,104.81 87.3367,107.143 87.5,109.5C 91.7954,109.279 92.4621,110.612 89.5,113.5C 92.0728,115.642 93.9062,118.308 95,121.5C 95.7175,120.549 96.5509,120.383 97.5,121C 97.8793,123.581 97.2126,126.081 95.5,128.5C 95.6692,130.839 96.3358,133.006 97.5,135C 97.1667,135.333 96.8333,135.667 96.5,136C 99.8302,134.855 102.497,132.688 104.5,129.5C 111.407,133.123 112.241,137.79 107,143.5C 106.333,142.833 105.667,142.167 105,141.5C 103.648,144.72 102.814,148.053 102.5,151.5C 101.91,152.766 101.41,154.099 101,155.5C 100.722,154.584 100.222,153.918 99.5,153.5C 97.3554,144.946 95.0221,136.613 92.5,128.5C 89.5193,120.565 86.8526,112.565 84.5,104.5C 83.8005,100.202 83.4672,95.8689 83.5,91.5C 83.5,91.1667 83.5,90.8333 83.5,90.5 Z"/></g>
<g><path style="opacity:1" fill="#49413e" d="M 133.5,106.5 C 133.062,106.435 132.728,106.601 132.5,107C 134.803,111.237 137.469,115.237 140.5,119C 138.557,120.834 138.224,122.834 139.5,125C 138.5,125.333 137.5,125.667 136.5,126C 139.669,128.36 140.669,131.36 139.5,135C 141.893,137.866 141.893,140.866 139.5,144C 141.023,145.854 142.856,147.354 145,148.5C 145.345,146.799 144.678,145.466 143,144.5C 142.333,141.5 142.333,138.5 143,135.5C 144.818,139.286 146.318,138.952 147.5,134.5C 145.693,133.605 144.36,132.272 143.5,130.5C 144.363,128.128 145.529,128.128 147,130.5C 147.346,128.782 147.846,127.115 148.5,125.5C 147.04,122.971 146.54,120.304 147,117.5C 147.654,118.696 148.154,118.696 148.5,117.5C 146.317,114.972 143.651,112.972 140.5,111.5C 139.614,110.675 139.281,109.675 139.5,108.5C 145.925,112.046 152.592,115.046 159.5,117.5C 164.167,119.833 168.833,122.167 173.5,124.5C 175.562,137.549 174.562,150.216 170.5,162.5C 170.5,160.833 170.5,159.167 170.5,157.5C 171.641,154.36 171.808,151.027 171,147.5C 169.395,153.272 167.562,153.605 165.5,148.5C 165.167,150.5 164.833,152.5 164.5,154.5C 163.749,153.624 163.249,152.624 163,151.5C 163.454,155.188 163.287,158.855 162.5,162.5C 161.749,161.624 161.249,160.624 161,159.5C 160.676,161.569 159.842,161.902 158.5,160.5C 157.232,158.696 156.565,156.696 156.5,154.5C 154.799,154.966 153.299,154.966 152,154.5C 149.977,162.402 148.477,170.402 147.5,178.5C 150.545,178.492 153.545,178.159 156.5,177.5C 153.466,179.404 150.133,180.738 146.5,181.5C 146.828,176.685 146.828,171.685 146.5,166.5C 147.489,165.532 148.156,164.365 148.5,163C 146.493,160.964 145.327,158.464 145,155.5C 144.489,157.878 143.822,160.212 143,162.5C 142.667,158.5 142.333,154.5 142,150.5C 141.798,152.256 141.298,153.922 140.5,155.5C 138.916,152.484 138.249,149.484 138.5,146.5C 137.104,148.972 136.27,151.638 136,154.5C 134.823,152.824 133.323,151.491 131.5,150.5C 133.401,149.065 133.734,147.398 132.5,145.5C 132.167,146 131.833,146.5 131.5,147C 130.724,153.463 130.224,159.963 130,166.5C 129.617,165.944 129.117,165.611 128.5,165.5C 128.5,150.5 128.5,135.5 128.5,120.5C 128.171,114.794 128.505,109.128 129.5,103.5C 130.799,104.694 132.132,105.694 133.5,106.5 Z"/></g>
<g><path style="opacity:1" fill="#a09b96" d="M 102.5,151.5 C 103.249,152.531 103.915,153.698 104.5,155C 102.709,157.106 102.042,159.606 102.5,162.5C 102.5,163.167 102.5,163.833 102.5,164.5C 101.267,160.994 100.267,157.327 99.5,153.5C 100.222,153.918 100.722,154.584 101,155.5C 101.41,154.099 101.91,152.766 102.5,151.5 Z"/></g>
<g><path style="opacity:1" fill="#4f4a48" d="M 30.5,114.5 C 27.441,116.446 27.1076,118.613 29.5,121C 28.4829,122.049 28.3162,123.216 29,124.5C 29.414,124.043 29.914,123.709 30.5,123.5C 32.2445,126.092 33.9112,126.092 35.5,123.5C 36.6256,124.714 37.9589,125.714 39.5,126.5C 40.6721,126.081 41.6721,125.415 42.5,124.5C 43.9987,126.802 45.332,126.469 46.5,123.5C 47.8834,126.076 48.7167,125.742 49,122.5C 50.0153,126.44 50.5153,130.44 50.5,134.5C 49.4168,134.539 48.4168,134.873 47.5,135.5C 45.9975,131.626 45.3309,131.959 45.5,136.5C 46.5,136.5 47.5,136.5 48.5,136.5C 48.6495,137.552 48.4828,138.552 48,139.5C 46.951,137.893 45.451,137.227 43.5,137.5C 43.6641,134.813 43.4974,132.146 43,129.5C 42.8078,131.577 42.3078,133.577 41.5,135.5C 40.8765,133.034 40.0432,130.701 39,128.5C 38.8333,130.167 38.6667,131.833 38.5,133.5C 40.1552,142.096 41.1552,150.763 41.5,159.5C 40.5655,158.432 40.2322,157.099 40.5,155.5C 39.5403,149.411 38.3736,143.411 37,137.5C 36.5,136.333 35.6667,135.5 34.5,135C 34.9574,134.586 35.2907,134.086 35.5,133.5C 34.7261,132.289 33.8928,132.289 33,133.5C 32.6667,135.167 32.3333,136.833 32,138.5C 30.8333,137 29.6667,135.5 28.5,134C 29.731,132.817 29.731,131.651 28.5,130.5C 26.6569,136.912 25.4902,143.245 25,149.5C 22.5394,143.557 21.5394,144.223 22,151.5C 21.6667,151.167 21.3333,150.833 21,150.5C 17.9474,158.066 17.4474,165.4 19.5,172.5C 18.7376,172.911 17.7376,173.077 16.5,173C 17.2524,173.671 17.5858,174.504 17.5,175.5C 17.5,175.833 17.5,176.167 17.5,176.5C 16.8826,176.389 16.3826,176.056 16,175.5C 15.5604,177.076 14.727,178.41 13.5,179.5C 14.3914,180.59 15.3914,180.59 16.5,179.5C 16.877,185.23 19.5436,189.397 24.5,192C 20.1188,197.397 15.6188,197.563 11,192.5C 8.76211,194.309 7.59544,196.642 7.5,199.5C 5.16667,199.5 2.83333,199.5 0.5,199.5C 1.7475,189.543 2.58083,179.543 3,169.5C 4.19563,164.777 6.19563,160.443 9,156.5C 9.79205,148.081 11.1254,139.748 13,131.5C 14.5654,123.991 18.7321,118.657 25.5,115.5C 27.1172,114.962 28.7839,114.629 30.5,114.5 Z"/></g>
<g><path style="opacity:1" fill="#625c5c" d="M 40.5,155.5 C 39.1779,155.67 38.0113,155.337 37,154.5C 35.9651,152.109 35.7985,149.776 36.5,147.5C 35.8333,146.167 35.1667,146.167 34.5,147.5C 34.0289,151.244 32.6955,154.578 30.5,157.5C 30.8178,158.647 31.4844,159.481 32.5,160C 30.3033,163.309 30.6367,166.476 33.5,169.5C 32.6618,169.842 32.3284,170.508 32.5,171.5C 29.8881,169.948 28.5548,167.614 28.5,164.5C 27.5,164.5 26.5,164.5 25.5,164.5C 25.162,166.854 24.662,169.187 24,171.5C 21.7162,172.69 19.5495,174.024 17.5,175.5C 17.5858,174.504 17.2524,173.671 16.5,173C 17.7376,173.077 18.7376,172.911 19.5,172.5C 17.4474,165.4 17.9474,158.066 21,150.5C 21.3333,150.833 21.6667,151.167 22,151.5C 21.5394,144.223 22.5394,143.557 25,149.5C 25.4902,143.245 26.6569,136.912 28.5,130.5C 29.731,131.651 29.731,132.817 28.5,134C 29.6667,135.5 30.8333,137 32,138.5C 32.3333,136.833 32.6667,135.167 33,133.5C 33.8928,132.289 34.7261,132.289 35.5,133.5C 35.2907,134.086 34.9574,134.586 34.5,135C 35.6667,135.5 36.5,136.333 37,137.5C 38.3736,143.411 39.5403,149.411 40.5,155.5 Z"/></g>
<g><path style="opacity:1" fill="#726c6c" d="M 40.5,155.5 C 40.2322,157.099 40.5655,158.432 41.5,159.5C 41.4107,162.709 41.744,165.875 42.5,169C 42.0548,170.447 41.3881,171.78 40.5,173C 41.7073,174.3 42.3739,175.8 42.5,177.5C 39.4744,174.805 36.4744,172.138 33.5,169.5C 30.6367,166.476 30.3033,163.309 32.5,160C 31.4844,159.481 30.8178,158.647 30.5,157.5C 32.6955,154.578 34.0289,151.244 34.5,147.5C 35.1667,146.167 35.8333,146.167 36.5,147.5C 35.7985,149.776 35.9651,152.109 37,154.5C 38.0113,155.337 39.1779,155.67 40.5,155.5 Z"/></g>
<g><path style="opacity:1" fill="#665f5f" d="M 92.5,128.5 C 95.0221,136.613 97.3554,144.946 99.5,153.5C 100.267,157.327 101.267,160.994 102.5,164.5C 103.338,164.842 103.672,165.508 103.5,166.5C 103.833,169.167 104.167,171.833 104.5,174.5C 104.631,175.239 104.464,175.906 104,176.5C 103.226,174.657 101.726,172.824 99.5,171C 97.4259,171.227 95.4259,171.061 93.5,170.5C 91.5604,172.045 90.3938,174.045 90,176.5C 88.6966,174.06 87.53,171.56 86.5,169C 87.4091,167.211 87.5758,165.377 87,163.5C 85.6914,165.891 84.6914,165.891 84,163.5C 83.9605,165.724 83.7938,167.724 83.5,169.5C 81.4803,166.632 79.8136,163.465 78.5,160C 78.8333,159.667 79.1667,159.333 79.5,159C 76.8548,156.076 76.8548,153.076 79.5,150C 79.1667,149.5 78.8333,149 78.5,148.5C 77.4305,149.91 76.0972,150.91 74.5,151.5C 74.5,150.833 74.5,150.167 74.5,149.5C 76.2785,148.33 77.2785,146.664 77.5,144.5C 81.2195,145.234 84.7195,145.901 88,146.5C 88.2077,143.858 88.541,141.192 89,138.5C 89.9653,140.26 91.132,140.594 92.5,139.5C 90.4305,136.702 88.4305,133.202 86.5,129C 88.251,130.145 90.0843,130.645 92,130.5C 92.4643,129.906 92.631,129.239 92.5,128.5 Z"/></g>
<g><path style="opacity:1" fill="#534a48" d="M 146.5,181.5 C 144.857,187.409 143.523,193.409 142.5,199.5C 141.833,199.5 141.167,199.5 140.5,199.5C 141.092,194.258 142.425,189.258 144.5,184.5C 141.763,181.308 139.93,177.641 139,173.5C 137.684,174.974 136.684,176.641 136,178.5C 135.71,176.048 135.044,173.715 134,171.5C 133.667,171.833 133.333,172.167 133,172.5C 132.529,170.754 131.862,169.087 131,167.5C 130.583,168.756 129.75,169.423 128.5,169.5C 128.5,168.167 128.5,166.833 128.5,165.5C 129.117,165.611 129.617,165.944 130,166.5C 130.224,159.963 130.724,153.463 131.5,147C 131.833,146.5 132.167,146 132.5,145.5C 133.734,147.398 133.401,149.065 131.5,150.5C 133.323,151.491 134.823,152.824 136,154.5C 136.27,151.638 137.104,148.972 138.5,146.5C 138.249,149.484 138.916,152.484 140.5,155.5C 141.298,153.922 141.798,152.256 142,150.5C 142.333,154.5 142.667,158.5 143,162.5C 143.822,160.212 144.489,157.878 145,155.5C 145.327,158.464 146.493,160.964 148.5,163C 148.156,164.365 147.489,165.532 146.5,166.5C 146.828,171.685 146.828,176.685 146.5,181.5 Z"/></g>
<g><path style="opacity:1" fill="#5f5652" d="M 173.5,124.5 C 174.935,126.598 176.102,128.931 177,131.5C 177.289,136.614 178.123,141.614 179.5,146.5C 180.31,150.629 180.977,154.796 181.5,159C 181.494,161.033 181.161,162.866 180.5,164.5C 180.663,162.143 180.497,159.81 180,157.5C 177.928,161.208 175.761,164.875 173.5,168.5C 172.833,168.833 172.167,169.167 171.5,169.5C 170.526,167.257 170.192,164.924 170.5,162.5C 174.562,150.216 175.562,137.549 173.5,124.5 Z"/></g>
<g><path style="opacity:1" fill="#d7d9df" d="M 127.5,170.5 C 127.5,171.833 127.5,173.167 127.5,174.5C 126.71,175.609 126.21,176.942 126,178.5C 118.087,170.658 117.754,170.991 125,179.5C 125.667,181.5 125.667,183.5 125,185.5C 124.346,184.304 123.846,184.304 123.5,185.5C 124.167,186.5 124.833,187.5 125.5,188.5C 124.5,188.5 123.5,188.5 122.5,188.5C 123.002,189.716 123.335,190.883 123.5,192C 122.072,192.579 120.738,192.412 119.5,191.5C 115.568,186.393 111.401,181.393 107,176.5C 106.685,175.092 107.018,173.759 108,172.5C 108.654,173.696 109.154,173.696 109.5,172.5C 107.812,170.146 105.812,168.146 103.5,166.5C 103.672,165.508 103.338,164.842 102.5,164.5C 102.5,163.833 102.5,163.167 102.5,162.5C 105.215,164.902 107.715,167.568 110,170.5C 109.973,168.583 109.139,166.916 107.5,165.5C 107.968,163.866 108.968,162.7 110.5,162C 108.602,159.612 106.935,157.112 105.5,154.5C 105.833,153.833 106.167,153.167 106.5,152.5C 107.451,153.326 108.451,153.492 109.5,153C 107.699,151.613 107.032,150.113 107.5,148.5C 113.848,156.178 120.515,163.512 127.5,170.5 Z"/></g>
<g><path style="opacity:1" fill="#b8b6ba" d="M 109.5,120.5 C 115.055,121.388 118.389,124.721 119.5,130.5C 119.005,132.482 118.505,134.482 118,136.5C 117.088,131.636 115.255,131.469 112.5,136C 114.542,137.937 116.209,140.104 117.5,142.5C 117.997,140.784 118.331,139.117 118.5,137.5C 119.968,141.77 121.968,145.77 124.5,149.5C 124.376,150.107 124.043,150.44 123.5,150.5C 124.836,152.01 126.003,153.677 127,155.5C 127.5,146.173 127.666,136.839 127.5,127.5C 127.5,125.167 127.5,122.833 127.5,120.5C 127.833,120.5 128.167,120.5 128.5,120.5C 128.5,135.5 128.5,150.5 128.5,165.5C 128.5,166.833 128.5,168.167 128.5,169.5C 128.5,170.167 128.167,170.5 127.5,170.5C 120.515,163.512 113.848,156.178 107.5,148.5C 107.032,150.113 107.699,151.613 109.5,153C 108.451,153.492 107.451,153.326 106.5,152.5C 106.167,153.167 105.833,153.833 105.5,154.5C 106.935,157.112 108.602,159.612 110.5,162C 108.968,162.7 107.968,163.866 107.5,165.5C 109.139,166.916 109.973,168.583 110,170.5C 107.715,167.568 105.215,164.902 102.5,162.5C 102.042,159.606 102.709,157.106 104.5,155C 103.915,153.698 103.249,152.531 102.5,151.5C 102.814,148.053 103.648,144.72 105,141.5C 105.667,142.167 106.333,142.833 107,143.5C 112.241,137.79 111.407,133.123 104.5,129.5C 106.42,126.661 108.087,123.661 109.5,120.5 Z"/></g>
<g><path style="opacity:1" fill="#d1d2d8" d="M 124.5,159.5 C 125.511,161.506 126.511,163.506 127.5,165.5C 127.267,166.932 126.6,167.432 125.5,167C 123.023,165.625 122.189,163.791 123,161.5C 122.667,161.833 122.333,162.167 122,162.5C 118.623,160.226 116.789,157.393 116.5,154C 117.167,153.333 117.833,153.333 118.5,154C 120.37,156.04 122.37,157.873 124.5,159.5 Z"/></g>
<g><path style="opacity:1" fill="#cfced3" d="M 123.5,150.5 C 122.957,150.56 122.624,150.893 122.5,151.5C 124.203,154.191 125.87,156.857 127.5,159.5C 127.333,160.167 127.167,160.833 127,161.5C 126.583,160.244 125.75,159.577 124.5,159.5C 124.631,158.761 124.464,158.094 124,157.5C 120.855,154.266 117.522,151.266 114,148.5C 113.517,147.552 113.351,146.552 113.5,145.5C 115.095,144.638 116.762,144.138 118.5,144C 120.765,145.758 122.432,147.925 123.5,150.5 Z"/></g>
<g><path style="opacity:1" fill="#dad1ce" d="M 127.5,127.5 C 127.666,136.839 127.5,146.173 127,155.5C 126.003,153.677 124.836,152.01 123.5,150.5C 124.043,150.44 124.376,150.107 124.5,149.5C 121.968,145.77 119.968,141.77 118.5,137.5C 118.331,139.117 117.997,140.784 117.5,142.5C 116.209,140.104 114.542,137.937 112.5,136C 115.255,131.469 117.088,131.636 118,136.5C 118.505,134.482 119.005,132.482 119.5,130.5C 121.308,133.436 123.141,136.436 125,139.5C 125.839,135.363 126.673,131.363 127.5,127.5 Z"/></g>
<g><path style="opacity:1" fill="#5a514f" d="M 170.5,157.5 C 170.631,156.761 170.464,156.094 170,155.5C 169.271,159.657 168.104,163.657 166.5,167.5C 165.719,166.271 165.219,164.938 165,163.5C 164.587,166.232 163.92,168.899 163,171.5C 162.333,168.833 161.667,168.833 161,171.5C 160.667,171.167 160.333,170.833 160,170.5C 159.598,171.872 159.098,173.205 158.5,174.5C 160.936,175.332 163.103,174.665 165,172.5C 165.667,173.167 165.667,173.833 165,174.5C 162.507,176.336 159.674,177.336 156.5,177.5C 153.545,178.159 150.545,178.492 147.5,178.5C 148.477,170.402 149.977,162.402 152,154.5C 153.299,154.966 154.799,154.966 156.5,154.5C 156.565,156.696 157.232,158.696 158.5,160.5C 159.842,161.902 160.676,161.569 161,159.5C 161.249,160.624 161.749,161.624 162.5,162.5C 163.287,158.855 163.454,155.188 163,151.5C 163.249,152.624 163.749,153.624 164.5,154.5C 164.833,152.5 165.167,150.5 165.5,148.5C 167.562,153.605 169.395,153.272 171,147.5C 171.808,151.027 171.641,154.36 170.5,157.5 Z"/></g>
<g><path style="opacity:1" fill="#433b38" d="M 180.5,164.5 C 180.567,165.959 180.234,167.292 179.5,168.5C 178.5,169.833 177.5,171.167 176.5,172.5C 176.472,170.418 177.139,168.584 178.5,167C 177.833,166.333 177.167,166.333 176.5,167C 174.721,172.273 171.387,176.107 166.5,178.5C 167.262,172.908 168.595,167.574 170.5,162.5C 170.192,164.924 170.526,167.257 171.5,169.5C 172.167,169.167 172.833,168.833 173.5,168.5C 175.761,164.875 177.928,161.208 180,157.5C 180.497,159.81 180.663,162.143 180.5,164.5 Z"/></g>
<g><path style="opacity:1" fill="#615955" d="M 179.5,168.5 C 179.833,170.5 180.167,172.5 180.5,174.5C 179.518,176.406 178.518,178.406 177.5,180.5C 176.476,181.853 175.143,182.52 173.5,182.5C 172.673,187.249 170.673,188.083 167.5,185C 168.252,184.329 168.586,183.496 168.5,182.5C 170.817,178.854 173.484,175.52 176.5,172.5C 177.5,171.167 178.5,169.833 179.5,168.5 Z"/></g>
<g><path style="opacity:1" fill="#6b6565" d="M 83.5,169.5 C 83.7938,167.724 83.9605,165.724 84,163.5C 84.6914,165.891 85.6914,165.891 87,163.5C 87.5758,165.377 87.4091,167.211 86.5,169C 87.53,171.56 88.6966,174.06 90,176.5C 90.3938,174.045 91.5604,172.045 93.5,170.5C 95.4259,171.061 97.4259,171.227 99.5,171C 101.726,172.824 103.226,174.657 104,176.5C 104.464,175.906 104.631,175.239 104.5,174.5C 106.047,179.784 107.38,185.118 108.5,190.5C 108.264,193.609 108.597,196.609 109.5,199.5C 91.5,199.5 73.5,199.5 55.5,199.5C 57.5441,193.748 55.7108,191.081 50,191.5C 48.3262,187.979 47.1596,184.313 46.5,180.5C 47.0431,180.44 47.3764,180.107 47.5,179.5C 44.5135,171.727 43.8469,163.727 45.5,155.5C 46.3184,157.108 46.9851,158.775 47.5,160.5C 46.0892,162.017 46.2559,163.351 48,164.5C 48.3333,162.167 48.6667,159.833 49,157.5C 49.49,158.793 49.6567,160.127 49.5,161.5C 50.5,161.5 51.5,161.5 52.5,161.5C 53.0527,165.456 53.8861,165.456 55,161.5C 56.2231,170.522 57.2231,170.189 58,160.5C 59.8866,164.539 60.8866,168.539 61,172.5C 61.3333,170.833 61.6667,169.167 62,167.5C 62.5758,171.488 63.9091,175.155 66,178.5C 67.1597,176.203 68.1597,176.536 69,179.5C 69.3333,178.5 69.6667,177.5 70,176.5C 71.3431,177.214 72.6764,176.88 74,175.5C 74.6667,179.5 75.3333,179.5 76,175.5C 76.3589,178.544 77.0255,178.878 78,176.5C 79.2036,177.471 79.7036,178.471 79.5,179.5C 80.1667,178.833 80.8333,178.167 81.5,177.5C 82.2432,178.908 83.0766,180.241 84,181.5C 84.1867,179.109 85.02,177.942 86.5,178C 85.5912,175.105 84.5912,172.272 83.5,169.5 Z"/></g>
<g><path style="opacity:1" fill="#d2c9ba" d="M 179.5,146.5 C 180.5,146.5 181.5,146.5 182.5,146.5C 183.356,150.57 184.523,154.57 186,158.5C 188.107,161.007 189.94,163.674 191.5,166.5C 191.333,167.5 191.167,168.5 191,169.5C 190.667,169.167 190.333,168.833 190,168.5C 191.091,173.459 192.424,178.459 194,183.5C 195.699,184.406 197.533,184.739 199.5,184.5C 199.5,189.5 199.5,194.5 199.5,199.5C 193.833,199.5 188.167,199.5 182.5,199.5C 182.584,195.669 181.917,192.002 180.5,188.5C 181.678,183.688 181.678,179.021 180.5,174.5C 180.167,172.5 179.833,170.5 179.5,168.5C 180.234,167.292 180.567,165.959 180.5,164.5C 181.161,162.866 181.494,161.033 181.5,159C 180.977,154.796 180.31,150.629 179.5,146.5 Z"/></g>
<g><path style="opacity:1" fill="#706969" d="M 32.5,171.5 C 33.404,172.209 33.7373,173.209 33.5,174.5C 33.8134,177.247 33.48,179.914 32.5,182.5C 31.8333,181.833 31.1667,181.167 30.5,180.5C 30.1667,181 29.8333,181.5 29.5,182C 30.7653,183.656 32.0987,185.323 33.5,187C 33,187.5 32.5,188 32,188.5C 29.8524,187.195 28.3524,185.362 27.5,183C 24.2145,180.539 20.8812,178.372 17.5,176.5C 17.5,176.167 17.5,175.833 17.5,175.5C 19.5495,174.024 21.7162,172.69 24,171.5C 24.662,169.187 25.162,166.854 25.5,164.5C 26.5,164.5 27.5,164.5 28.5,164.5C 28.5548,167.614 29.8881,169.948 32.5,171.5 Z"/></g>
<g><path style="opacity:1" fill="#1d1715" d="M 176.5,172.5 C 173.484,175.52 170.817,178.854 168.5,182.5C 167.504,182.414 166.671,182.748 166,183.5C 165.536,182.906 165.369,182.239 165.5,181.5C 165.557,180.391 165.89,179.391 166.5,178.5C 171.387,176.107 174.721,172.273 176.5,167C 177.167,166.333 177.833,166.333 178.5,167C 177.139,168.584 176.472,170.418 176.5,172.5 Z"/></g>
<g><path style="opacity:1" fill="#645e5d" d="M 33.5,174.5 C 37.0592,177.238 40.7259,179.738 44.5,182C 43.0997,183.438 41.433,184.271 39.5,184.5C 38.7611,184.369 38.0944,184.536 37.5,185C 39.6829,187.35 42.0163,189.517 44.5,191.5C 45.4822,194.096 46.1489,196.762 46.5,199.5C 33.5,199.5 20.5,199.5 7.5,199.5C 7.59544,196.642 8.76211,194.309 11,192.5C 15.6188,197.563 20.1188,197.397 24.5,192C 19.5436,189.397 16.877,185.23 16.5,179.5C 15.3914,180.59 14.3914,180.59 13.5,179.5C 14.727,178.41 15.5604,177.076 16,175.5C 16.3826,176.056 16.8826,176.389 17.5,176.5C 20.8812,178.372 24.2145,180.539 27.5,183C 28.3524,185.362 29.8524,187.195 32,188.5C 32.5,188 33,187.5 33.5,187C 32.0987,185.323 30.7653,183.656 29.5,182C 29.8333,181.5 30.1667,181 30.5,180.5C 31.1667,181.167 31.8333,181.833 32.5,182.5C 33.48,179.914 33.8134,177.247 33.5,174.5 Z"/></g>
<g><path style="opacity:1" fill="#bfbfc2" d="M 103.5,166.5 C 105.812,168.146 107.812,170.146 109.5,172.5C 109.154,173.696 108.654,173.696 108,172.5C 107.018,173.759 106.685,175.092 107,176.5C 111.401,181.393 115.568,186.393 119.5,191.5C 116.203,188.704 113.036,185.704 110,182.5C 110.194,185.396 111.36,187.896 113.5,190C 111.779,191.437 110.279,190.937 109,188.5C 108.536,189.094 108.369,189.761 108.5,190.5C 107.38,185.118 106.047,179.784 104.5,174.5C 104.167,171.833 103.833,169.167 103.5,166.5 Z"/></g>
<g><path style="opacity:1" fill="#423a36" d="M 180.5,174.5 C 181.678,179.021 181.678,183.688 180.5,188.5C 178.192,188.914 175.858,189.247 173.5,189.5C 171.307,189.674 169.473,189.007 168,187.5C 165.18,189.125 164.847,191.125 167,193.5C 167.333,192.833 167.667,192.167 168,191.5C 168.645,192.646 169.478,193.646 170.5,194.5C 168.793,195.873 167.46,197.539 166.5,199.5C 164.5,199.5 162.5,199.5 160.5,199.5C 161.674,193.256 163.341,187.256 165.5,181.5C 165.369,182.239 165.536,182.906 166,183.5C 166.671,182.748 167.504,182.414 168.5,182.5C 168.586,183.496 168.252,184.329 167.5,185C 170.673,188.083 172.673,187.249 173.5,182.5C 175.143,182.52 176.476,181.853 177.5,180.5C 178.518,178.406 179.518,176.406 180.5,174.5 Z"/></g>
<g><path style="opacity:1" fill="#2d2624" d="M 39.5,184.5 C 40.8333,185.933 42.3333,187.267 44,188.5C 44.2189,187.062 44.7189,185.729 45.5,184.5C 48.0199,189.131 49.0199,194.131 48.5,199.5C 47.8333,199.5 47.1667,199.5 46.5,199.5C 46.1489,196.762 45.4822,194.096 44.5,191.5C 42.0163,189.517 39.6829,187.35 37.5,185C 38.0944,184.536 38.7611,184.369 39.5,184.5 Z"/></g>
<g><path style="opacity:1" fill="#524c4b" d="M 33.5,169.5 C 36.4744,172.138 39.4744,174.805 42.5,177.5C 43.8717,178.512 45.205,179.512 46.5,180.5C 47.1596,184.313 48.3262,187.979 50,191.5C 55.7108,191.081 57.5441,193.748 55.5,199.5C 53.1667,199.5 50.8333,199.5 48.5,199.5C 49.0199,194.131 48.0199,189.131 45.5,184.5C 44.7189,185.729 44.2189,187.062 44,188.5C 42.3333,187.267 40.8333,185.933 39.5,184.5C 41.433,184.271 43.0997,183.438 44.5,182C 40.7259,179.738 37.0592,177.238 33.5,174.5C 33.7373,173.209 33.404,172.209 32.5,171.5C 32.3284,170.508 32.6618,169.842 33.5,169.5 Z"/></g>
<g><path style="opacity:1" fill="#b7b5bc" d="M 127.5,174.5 C 126.96,182.897 125.96,191.23 124.5,199.5C 124.167,199.5 123.833,199.5 123.5,199.5C 122.618,196.615 121.284,193.948 119.5,191.5C 120.738,192.412 122.072,192.579 123.5,192C 123.335,190.883 123.002,189.716 122.5,188.5C 123.5,188.5 124.5,188.5 125.5,188.5C 124.833,187.5 124.167,186.5 123.5,185.5C 123.846,184.304 124.346,184.304 125,185.5C 125.667,183.5 125.667,181.5 125,179.5C 117.754,170.991 118.087,170.658 126,178.5C 126.21,176.942 126.71,175.609 127.5,174.5 Z"/></g>
<g><path style="opacity:1" fill="#5e5554" d="M 140.5,199.5 C 135.167,199.5 129.833,199.5 124.5,199.5C 125.96,191.23 126.96,182.897 127.5,174.5C 127.5,173.167 127.5,171.833 127.5,170.5C 128.167,170.5 128.5,170.167 128.5,169.5C 129.75,169.423 130.583,168.756 131,167.5C 131.862,169.087 132.529,170.754 133,172.5C 133.333,172.167 133.667,171.833 134,171.5C 135.044,173.715 135.71,176.048 136,178.5C 136.684,176.641 137.684,174.974 139,173.5C 139.93,177.641 141.763,181.308 144.5,184.5C 142.425,189.258 141.092,194.258 140.5,199.5 Z"/></g>
<g><path style="opacity:1" fill="#645b58" d="M 170.5,157.5 C 170.5,159.167 170.5,160.833 170.5,162.5C 168.595,167.574 167.262,172.908 166.5,178.5C 165.89,179.391 165.557,180.391 165.5,181.5C 163.341,187.256 161.674,193.256 160.5,199.5C 154.5,199.5 148.5,199.5 142.5,199.5C 143.523,193.409 144.857,187.409 146.5,181.5C 150.133,180.738 153.466,179.404 156.5,177.5C 159.674,177.336 162.507,176.336 165,174.5C 165.667,173.833 165.667,173.167 165,172.5C 163.103,174.665 160.936,175.332 158.5,174.5C 159.098,173.205 159.598,171.872 160,170.5C 160.333,170.833 160.667,171.167 161,171.5C 161.667,168.833 162.333,168.833 163,171.5C 163.92,168.899 164.587,166.232 165,163.5C 165.219,164.938 165.719,166.271 166.5,167.5C 168.104,163.657 169.271,159.657 170,155.5C 170.464,156.094 170.631,156.761 170.5,157.5 Z"/></g>
<g><path style="opacity:1" fill="#d3d4da" d="M 119.5,191.5 C 121.284,193.948 122.618,196.615 123.5,199.5C 118.833,199.5 114.167,199.5 109.5,199.5C 108.597,196.609 108.264,193.609 108.5,190.5C 108.369,189.761 108.536,189.094 109,188.5C 110.279,190.937 111.779,191.437 113.5,190C 111.36,187.896 110.194,185.396 110,182.5C 113.036,185.704 116.203,188.704 119.5,191.5 Z"/></g>
<g><path style="opacity:1" fill="#5f5651" d="M 180.5,188.5 C 181.917,192.002 182.584,195.669 182.5,199.5C 177.167,199.5 171.833,199.5 166.5,199.5C 167.46,197.539 168.793,195.873 170.5,194.5C 169.478,193.646 168.645,192.646 168,191.5C 167.667,192.167 167.333,192.833 167,193.5C 164.847,191.125 165.18,189.125 168,187.5C 169.473,189.007 171.307,189.674 173.5,189.5C 175.858,189.247 178.192,188.914 180.5,188.5 Z"/></g>
</svg>
