<?xml version="1.0" encoding="UTF-8"?>
<svg version="1.1" xmlns="http://www.w3.org/2000/svg" width="200" height="200">
<path d="M0 0 C4.44218116 4.57679271 7.17942142 9.01645847 7.3125 15.4375 C7.24297279 19.72732901 6.52589376 22.51202249 4.0625 26.125 C-0.7048908 30.68511294 -4.29997469 33.125 -10.9375 33.125 C-12.9365225 29.31911028 -14.93020521 25.51048744 -16.91894531 21.69921875 C-17.59651244 20.40255146 -18.27554339 19.10664801 -18.95605469 17.81152344 C-19.932881 15.95185118 -20.90444285 14.0895126 -21.875 12.2265625 C-22.75478516 10.54554443 -22.75478516 10.54554443 -23.65234375 8.83056641 C-24.9375 6.125 -24.9375 6.125 -24.9375 4.125 C-32.38864948 6.10386611 -38.35787123 7.69617201 -43.9375 13.125 C-44.5975 13.125 -45.2575 13.125 -45.9375 13.125 C-46.20691406 13.69089844 -46.47632813 14.25679687 -46.75390625 14.83984375 C-47.99266465 17.23150601 -49.41153429 19.42713439 -50.875 21.6875 C-57.61549163 33.00954828 -58.62080083 46.14296471 -56.25 59 C-53.47812711 69.20908115 -48.15293511 77.42493613 -39.1953125 83.046875 C-30.63831814 87.13291383 -20.05723783 87.64513974 -10.88671875 85.3671875 C-3.53233925 82.53257082 1.94753078 78.65708753 6.86328125 72.515625 C7.25902344 72.05671875 7.65476562 71.5978125 8.0625 71.125 C8.3925 71.125 8.7225 71.125 9.0625 71.125 C9.23263078 81.67310846 4.13596044 92.96099636 -3.16015625 100.60546875 C-13.08053903 109.08685095 -23.52033434 112.82859074 -36.53515625 112.47265625 C-46.55130256 111.44919239 -55.05525058 108.35557475 -62.9375 102.125 C-63.96875 101.3825 -65 100.64 -66.0625 99.875 C-77.88932688 88.56238298 -82.98050673 73.73132737 -83.8984375 57.76953125 C-84.08703736 40.17316406 -77.29050108 23.69203276 -65.3125 10.9375 C-48.3049612 -5.24667838 -21.07927767 -13.45485809 0 0 Z " fill="#212020" transform="translate(167.9375,44.875)"/>
<path d="M0 0 C0 16.5 0 33 0 50 C6.93 50.495 6.93 50.495 14 51 C14 54.63 14 58.26 14 62 C-4.81 62 -23.62 62 -43 62 C-43 58.37 -43 54.74 -43 51 C-38.38 51 -33.76 51 -29 51 C-27.91536084 40.48287715 -27.91536084 40.48287715 -31.48730469 30.90380859 C-35.08012757 27.1657924 -39.14332668 24.06330584 -43.41186523 21.13476562 C-45 20 -45 20 -47 18 C-38.54609723 14.00699166 -29.93187702 10.49004237 -21.23583984 7.06860352 C-18.97388549 6.17720875 -16.71545347 5.27725364 -14.45703125 4.37695312 C-13.01322569 3.80677266 -11.56922252 3.23709227 -10.125 2.66796875 C-9.45315674 2.39929489 -8.78131348 2.13062103 -8.08911133 1.85380554 C-5.22879205 0.73645299 -3.10166831 0 0 0 Z " fill="#222121" transform="translate(75,92)"/>
<path d="M0 0 C5.13726494 2.52193006 7.73123207 5.53972383 9.6875 10.875 C11.76411213 24.99596246 4.28001631 36.58528883 -3 48 C-3.495 48.99 -3.495 48.99 -4 50 C-7.95807715 50.11761144 -11.91569621 50.18771882 -15.875 50.25 C-17.53789063 50.30027344 -17.53789063 50.30027344 -19.234375 50.3515625 C-27.94086617 50.45399181 -35.1068407 49.23049389 -41.9375 43.5625 C-42.618125 42.716875 -43.29875 41.87125 -44 41 C-44.598125 40.278125 -45.19625 39.55625 -45.8125 38.8125 C-47.61490535 34.54364522 -47.66528947 30.56198492 -47 26 C-44.38679161 20.86691209 -41.46062759 17.8202092 -36 16 C-34.35720783 15.88207001 -32.70947306 15.82488326 -31.0625 15.8125 C-30.20785156 15.79832031 -29.35320313 15.78414062 -28.47265625 15.76953125 C-25.86090697 16.01296444 -24.24499348 16.6821732 -22 18 C-21.76925781 17.26394531 -21.53851563 16.52789062 -21.30078125 15.76953125 C-17.57192843 4.6124499 -12.26577265 -1.54755076 0 0 Z " fill="#FD5252" transform="translate(74,39)"/>
<path d="M0 0 C0.66 0 1.32 0 2 0 C2.06058594 0.67546875 2.12117188 1.3509375 2.18359375 2.046875 C2.26738281 2.93890625 2.35117187 3.8309375 2.4375 4.75 C2.55931641 6.07257813 2.55931641 6.07257813 2.68359375 7.421875 C2.96238465 9.69350452 3.38790577 11.79851823 4 14 C4.66 14 5.32 14 6 14 C6 14.66 6 15.32 6 16 C6.66 16 7.32 16 8 16 C8 16.66 8 17.32 8 18 C8.66 18 9.32 18 10 18 C10 18.66 10 19.32 10 20 C11.98 20 13.96 20 16 20 C16 20.66 16 21.32 16 22 C24.91 22 33.82 22 43 22 C43 22.66 43 23.32 43 24 C39.04192285 24.11761144 35.08430379 24.18771882 31.125 24.25 C29.46210937 24.30027344 29.46210937 24.30027344 27.765625 24.3515625 C19.05913383 24.45399181 11.8931593 23.23049389 5.0625 17.5625 C4.381875 16.716875 3.70125 15.87125 3 15 C2.401875 14.278125 1.80375 13.55625 1.1875 12.8125 C-0.59259451 8.59648669 -0.23665462 4.51396782 0 0 Z " fill="#E44F50" transform="translate(27,65)"/>
<path d="M0 0 C1.64453125 1.015625 1.64453125 1.015625 4.01953125 3.203125 C4.01953125 4.193125 4.01953125 5.183125 4.01953125 6.203125 C3.21515625 5.543125 2.41078125 4.883125 1.58203125 4.203125 C-2.43953635 1.51572674 -6.29248577 1.5998919 -10.98046875 2.203125 C-13.91127549 3.06965914 -13.91127549 3.06965914 -15.98046875 4.203125 C-15.65046875 5.193125 -15.32046875 6.183125 -14.98046875 7.203125 C-15.64046875 7.203125 -16.30046875 7.203125 -16.98046875 7.203125 C-17.31046875 8.193125 -17.64046875 9.183125 -17.98046875 10.203125 C-18.64046875 10.203125 -19.30046875 10.203125 -19.98046875 10.203125 C-20.31046875 13.173125 -20.64046875 16.143125 -20.98046875 19.203125 C-21.31046875 19.203125 -21.64046875 19.203125 -21.98046875 19.203125 C-22.62060094 13.05785596 -22.02847899 8.94541984 -18.38671875 3.8671875 C-13.7886077 -1.57391057 -6.59453044 -2.65342053 0 0 Z " fill="#EB5353" transform="translate(75.98046875,39.796875)"/>
<path d="M0 0 C2.84745269 2.84745269 2.89257567 4.9902113 3.3125 8.9375 C3.1556679 18.03376153 -0.85403539 26.70988347 -6 34 C-7.26339822 30.20980534 -6.49719015 28.62477616 -5 25 C-4.34 24.67 -3.68 24.34 -3 24 C-0.7861039 18.95104271 -0.58245918 14.04487117 -0.375 8.625 C-0.33632812 7.79355469 -0.29765625 6.96210937 -0.2578125 6.10546875 C-0.16425754 4.07064844 -0.08107287 2.03535584 0 0 Z " fill="#E44E4F" transform="translate(81,46)"/>
<path d="M0 0 C0.33 0 0.66 0 1 0 C0.22095672 10.55808656 0.22095672 10.55808656 -2 15 C-2.28875 14.38125 -2.5775 13.7625 -2.875 13.125 C-3.93720042 10.86674235 -3.93720042 10.86674235 -6 9 C-4.47300326 5.56425733 -2.44973747 2.84485642 0 0 Z " fill="#1D1D1D" transform="translate(176,116)"/>
<path d="M0 0 C0.33 0 0.66 0 1 0 C0.67 3.3 0.34 6.6 0 10 C-0.66 8.68 -1.32 7.36 -2 6 C-3.98 6.99 -3.98 6.99 -6 8 C-5.02471263 6.66382648 -4.04466681 5.3311249 -3.0625 4 C-2.24458984 2.88625 -2.24458984 2.88625 -1.41015625 1.75 C-0.94480469 1.1725 -0.47945312 0.595 0 0 Z " fill="#0A0606" transform="translate(176,116)"/>
<path d="M0 0 C0 3.10551666 -0.5393715 4.35261084 -2 7 C-2.66 7 -3.32 7 -4 7 C-4 5.35 -4 3.7 -4 2 C-2.68 1.34 -1.36 0.68 0 0 Z " fill="#E55151" transform="translate(73,80)"/>
</svg>
