<?xml version="1.0" encoding="UTF-8"?>
<svg version="1.1" xmlns="http://www.w3.org/2000/svg" width="200" height="200">
<path d="M0 0 C9.64490777 7.41534861 15.62040226 17.72462337 17.28125 29.75390625 C17.46875 32.75390625 17.46875 32.75390625 17.28125 34.75390625 C15.5560708 36.47908545 13.24721004 35.89927081 10.89453125 35.91503906 C9.74243164 35.92464661 8.59033203 35.93425415 7.40332031 35.94415283 C5.51758301 35.95052765 5.51758301 35.95052765 3.59375 35.95703125 C1.66354004 35.96558136 1.66354004 35.96558136 -0.30566406 35.9743042 C-3.0395548 35.98483047 -5.77341605 35.99066066 -8.50732422 35.99414062 C-11.98953851 35.99959121 -15.47135498 36.02353724 -18.95344543 36.05211258 C-22.2918716 36.0753846 -25.63024703 36.07720022 -28.96875 36.08203125 C-30.83019653 36.10055145 -30.83019653 36.10055145 -32.72924805 36.1194458 C-42.00214344 36.09580826 -50.19592001 35.1793194 -57.2109375 28.62109375 C-60.87577903 24.08276668 -62.46605457 18.84766842 -63.15625 13.12890625 C-62.24937037 6.13297771 -60.23395635 1.37128831 -54.71875 -3.24609375 C-39.91599116 -14.12159004 -14.56777188 -9.43594315 0 0 Z " fill="#FDFEFE" transform="translate(104.71875,86.24609375)"/>
<path d="M0 0 C5.06871986 3.77207059 7.78980302 8.14311185 9.0625 14.375 C9.14598775 17.13925233 9.17875686 19.87713712 9.16015625 22.640625 C9.1587413 23.43402283 9.15732635 24.22742065 9.15586853 25.04486084 C9.15028415 27.57161272 9.13773454 30.09827504 9.125 32.625 C9.11998298 34.34114455 9.11542043 36.05729049 9.11132812 37.7734375 C9.10031984 41.97399269 9.08306596 46.17448117 9.0625 50.375 C8.27488281 49.58480469 7.48726562 48.79460937 6.67578125 47.98046875 C5.22031371 46.52935238 3.7542379 45.08799735 2.25 43.6875 C1.0625 42.375 1.0625 42.375 1.0625 40.375 C0.48628906 40.10429688 -0.08992188 39.83359375 -0.68359375 39.5546875 C-2.95712393 38.3647289 -4.92067563 37.00022282 -7 35.5 C-15.58925361 29.74576147 -24.80412722 27.71904246 -34.9375 26.375 C-35.33335146 17.57830092 -35.49212107 10.58441969 -29.5625 3.5625 C-20.68332215 -3.83681487 -10.29144985 -6.35148885 0 0 Z " fill="#FCFDFD" transform="translate(112.9375,45.625)"/>
<path d="M0 0 C17.14739807 0 17.14739807 0 23.875 6.4375 C28.89275666 11.65363309 30.06294527 16.8662022 30 24 C28.91651041 30.54342734 25.92974258 35.59673478 21 40 C13.76488563 44.42966186 8.71793005 44 0 44 C0 29.48 0 14.96 0 0 Z " fill="#FCFDFD" transform="translate(128,78)"/>
<path d="M0 0 C14.52 0 29.04 0 44 0 C44 16.2293578 44 16.2293578 37.046875 24.203125 C31.28996793 29.25689838 25.80159717 29.58144361 18.421875 29.41796875 C12.2961655 28.66973711 8.9318843 25.9318843 4.6875 21.6875 C0.02179816 14.25693781 0 9.3609564 0 0 Z " fill="#FCFDFD" transform="translate(78,128)"/>
<path d="M0 0 C0.66 0.33 1.32 0.66 2 1 C1.278125 1.598125 0.55625 2.19625 -0.1875 2.8125 C-4.28748507 6.93598069 -7.9670631 13.29130483 -8.01953125 19.19921875 C-7.73253116 20.8097957 -7.37280723 22.40709638 -7 24 C-7.66 24.66 -8.32 25.32 -9 26 C-10.90467744 20.04788301 -10.30806536 14.54981775 -7.9921875 8.859375 C-6.48186472 6.02900633 -4.39856041 4.09105266 -2 2 C-1.34 1.34 -0.68 0.68 0 0 Z " fill="#F2F9F9" transform="translate(52,81)"/>
<path d="M0 0 C0.99 0.66 1.98 1.32 3 2 C-2.41538462 5.07692308 -2.41538462 5.07692308 -5.375 4.6875 C-5.91125 4.460625 -6.4475 4.23375 -7 4 C-4.69 2.68 -2.38 1.36 0 0 Z " fill="#EEF3F9" transform="translate(146,116)"/>
</svg>
