<?xml version="1.0" encoding="UTF-8"?>
<svg version="1.1" xmlns="http://www.w3.org/2000/svg" width="200" height="200">
<path d="M0 0 C2.13437127 1.62033134 2.91397242 2.45222037 3.33416748 5.12780762 C3.15226215 11.15472581 2.65475967 17.05866369 1.828125 23.03125 C1.70443542 23.94781372 1.58074585 24.86437744 1.45330811 25.80871582 C1.19116669 27.73185043 0.92543668 29.65449904 0.65625 31.57666016 C0.25128335 34.49076513 -0.13264055 37.40715386 -0.515625 40.32421875 C-0.77476059 42.20590603 -1.03513631 44.08742304 -1.296875 45.96875 C-1.4627713 47.25513367 -1.4627713 47.25513367 -1.63201904 48.56750488 C-3.25764158 59.7990291 -7.39132832 68.46072853 -16 76 C-25.49922122 81.98505846 -34.91530207 83.54991618 -46.015625 81.421875 C-53.3373591 79.12075857 -59.00518747 74.79632844 -64 69 C-65.27734375 66.21484375 -65.27734375 66.21484375 -66 64 C-60.30761523 58.15781563 -60.30761523 58.15781563 -55.375 57.5625 C-50.70806464 57.57950159 -48.20897131 59.6320591 -44.76171875 62.58984375 C-40.33929484 66.12974404 -34.357971 65.52965616 -29 65 C-23.23979015 62.48645388 -21.29372406 58.55890773 -19 53 C-20.25103516 53.25136719 -20.25103516 53.25136719 -21.52734375 53.5078125 C-30.1411891 55.06679024 -36.37326737 55.44944669 -44.1875 51.3125 C-50.15763261 46.40372429 -54.36825926 41.67579574 -55.25 33.75390625 C-55.70566939 24.6262788 -52.42867564 16.89782472 -46.76953125 9.8203125 C-41.32409587 4.21860634 -34.64750604 0.43908953 -26.81640625 -0.30078125 C-20.42903336 -0.32378499 -15.62309627 -0.13847234 -10 3 C-10 2.34 -10 1.68 -10 1 C-6.42704846 -1.33616062 -4.05773972 -1.12235354 0 0 Z M-35 19 C-37.46089257 22.19512609 -38.83263464 25.08878862 -39.5625 29.0625 C-38.80542719 33.01610244 -37.199356 35.6255382 -34 38 C-29.92675768 39.50551051 -26.84552344 39.27642113 -22.75 37.9375 C-19.39486659 35.57365601 -17.81168887 33.69305808 -16 30 C-15.44489215 26.39873785 -15.64462711 23.1253475 -16.75 19.625 C-18.40525278 17.47317138 -19.38639757 16.82534814 -22 16 C-27.27477536 15.58136704 -30.82706164 15.40663641 -35 19 Z " fill="#581058" transform="translate(197,74)"/>
<path d="M0 0 C1.47118538 0.00022659 1.47118538 0.00022659 2.97209167 0.00045776 C4.028423 0.01078033 5.08475433 0.02110291 6.1730957 0.03173828 C7.25645706 0.03456818 8.33981842 0.03739807 9.45600891 0.04031372 C12.92041003 0.05151987 16.3845538 0.07662544 19.84887695 0.10205078 C22.19587843 0.11208001 24.54288396 0.12120596 26.88989258 0.12939453 C32.64714203 0.15146062 38.40424111 0.18494251 44.16137695 0.22705078 C43.53627285 6.74695378 43.05596119 9.65877216 38.16137695 14.22705078 C33.81131047 16.0449085 30.14123234 16.46539808 25.45043945 16.42236328 C24.20649414 16.41591797 22.96254883 16.40947266 21.6809082 16.40283203 C20.39571289 16.38607422 19.11051758 16.36931641 17.78637695 16.35205078 C16.47797852 16.34302734 15.16958008 16.33400391 13.8215332 16.32470703 C10.60140237 16.30120243 7.38136601 16.26533335 4.16137695 16.22705078 C3.83137695 20.18705078 3.50137695 24.14705078 3.16137695 28.22705078 C16.52637695 28.72205078 16.52637695 28.72205078 30.16137695 29.22705078 C28.98490636 38.63881549 28.98490636 38.63881549 25.16137695 43.22705078 C22.0965389 45.16122761 19.76917129 45.46617022 16.17700195 45.42236328 C15.24243164 45.41591797 14.30786133 45.40947266 13.3449707 45.40283203 C11.8928418 45.37769531 11.8928418 45.37769531 10.41137695 45.35205078 C9.42782227 45.34302734 8.44426758 45.33400391 7.4309082 45.32470703 C5.00748288 45.30117863 2.58455474 45.26830446 0.16137695 45.22705078 C0.04020508 46.37560547 -0.0809668 47.52416016 -0.20581055 48.70751953 C-0.7235805 53.55049909 -1.27710561 58.38897646 -1.83862305 63.22705078 C-1.98299805 64.50708984 -2.12737305 65.78712891 -2.27612305 67.10595703 C-3.66707672 77.82375189 -3.66707672 77.82375189 -7.83862305 82.22705078 C-12.24633081 85.16552262 -15.59852663 85.54145657 -20.83862305 85.22705078 C-20.97329787 79.43315938 -20.49770852 74.05800797 -19.55737305 68.34814453 C-19.27820551 66.57483042 -19.00095818 64.80121326 -18.7253418 63.02734375 C-18.5795166 62.08896667 -18.43369141 61.1505896 -18.28344727 60.18377686 C-17.49883932 54.96852403 -16.81392806 49.74013931 -16.11987305 44.51220703 C-15.82468782 42.32139955 -15.5291125 40.1306446 -15.2331543 37.93994141 C-14.77999004 34.58330668 -14.3303559 31.22637516 -13.89086914 27.86791992 C-13.4568175 24.56035155 -13.00843436 21.25499287 -12.55737305 17.94970703 C-12.42915161 16.94456558 -12.30093018 15.93942413 -12.16882324 14.90382385 C-10.9387729 6.0624803 -10.9387729 6.0624803 -7.83862305 2.22705078 C-4.59577526 0.06515226 -3.73766084 -0.01921677 0 0 Z " fill="#580F57" transform="translate(20.838623046875,43.77294921875)"/>
<path d="M0 0 C3.00186155 0.91361004 3.97739201 1.46350479 5.875 3.875 C6.96090752 10.01057612 5.49683335 16.80594073 4.59765625 22.90625 C4.46685165 23.82337769 4.33604706 24.74050537 4.20127869 25.6854248 C3.92603301 27.60517303 3.6477198 29.52448377 3.36645508 31.44335938 C2.93480366 34.39342781 2.51457467 37.34496767 2.09570312 40.296875 C1.82618925 42.16676313 1.55603047 44.03655845 1.28515625 45.90625 C1.15907486 46.79155396 1.03299347 47.67685791 0.90309143 48.58898926 C-0.0094571 54.7594571 -0.0094571 54.7594571 -1.125 55.875 C-7.41567611 56.35889816 -7.41567611 56.35889816 -10.47265625 54.2734375 C-14.01989566 52.40316989 -15.53523436 53.09979731 -19.3125 54.25 C-26.98860822 56.24266918 -33.30978001 56.78345262 -40.375 52.75 C-46.0760195 48.74543772 -50.75379292 43.86815608 -52.125 36.875 C-53.08835024 26.64597197 -50.70007755 18.87131471 -44.15234375 10.953125 C-38.58648137 5.24784796 -31.94792532 1.2730084 -23.90625 0.609375 C-22.28203125 0.61710937 -22.28203125 0.61710937 -20.625 0.625 C-19.5421875 0.61984375 -18.459375 0.6146875 -17.34375 0.609375 C-14.125 0.875 -14.125 0.875 -10.875 1.98046875 C-9.9675 2.27566406 -9.06 2.57085937 -8.125 2.875 C-2.92174797 -0.11686992 -2.92174797 -0.11686992 0 0 Z M-33.125 20.875 C-35.75195123 24.90299188 -36.9233253 28.0850482 -36.125 32.875 C-33.71177095 36.7507921 -32.16319278 38.52240622 -27.8125 40 C-23.10160855 39.84030876 -19.89804986 38.69628954 -16.125 35.875 C-13.07144604 31.58093974 -12.64349106 28.07529659 -13.125 22.875 C-13.95548047 20.31435188 -14.62890694 19.25661004 -16.75 17.625 C-23.29115336 15.55937262 -27.99800723 16.34416918 -33.125 20.875 Z " fill="#590F58" transform="translate(134.125,73.125)"/>
<path d="M0 0 C2.2578125 2.04101563 2.2578125 2.04101563 4 5 C4.04581708 7.81164132 3.88689229 10.04844031 3.4375 12.78125 C3.27880936 13.91891312 3.27880936 13.91891312 3.11691284 15.07955933 C2.76626913 17.556722 2.38361006 20.02774713 2 22.5 C1.75067443 24.21014546 1.50345761 25.92059962 1.25830078 27.63134766 C0.75973382 31.0934211 0.24959503 34.5535015 -0.26855469 38.01269531 C-0.94421672 42.56197793 -1.55303212 47.11731497 -2.1328125 51.6796875 C-2.30167969 52.98744141 -2.47054687 54.29519531 -2.64453125 55.64257812 C-2.95638791 58.06517194 -3.2639352 60.48832584 -3.56640625 62.91210938 C-5.53974453 77.659757 -5.53974453 77.659757 -10.5625 82.4375 C-15.05031372 85.31430366 -17.71679771 85.08521294 -23 85 C-22.34747286 75.89080614 -21.27140829 66.86729831 -20.0390625 57.8203125 C-19.94443096 57.12168972 -19.84979942 56.42306694 -19.75230026 55.70327377 C-19.25312601 52.01946423 -18.7502408 48.33618449 -18.24414062 44.65332031 C-17.72481533 40.86875894 -17.21846989 37.08257624 -16.71494484 33.29588509 C-16.32228499 30.36086418 -15.92009772 27.42720508 -15.51533127 24.49383163 C-15.32441478 23.09815316 -15.13703844 21.70198537 -14.95338821 20.30533218 C-14.69599128 18.35470108 -14.42371896 16.40605057 -14.15087891 14.45751953 C-14.00067291 13.35231964 -13.85046692 12.24711975 -13.69570923 11.10842896 C-11.87430449 2.97039229 -8.70489586 -1.0690223 0 0 Z " fill="#590F59" transform="translate(81,44)"/>
<path d="M0 0 C2.4375 2.5 2.4375 2.5 4 5 C3.34 6.32 2.68 7.64 2 9 C1.9175 8.21625 1.835 7.4325 1.75 6.625 C1.25057606 3.91201618 1.25057606 3.91201618 -0.8125 2.5625 C-2.98760326 1.80137635 -2.98760326 1.80137635 -5.0625 2.625 C-8.41332126 5.00300218 -9.80699397 7.12171414 -10.6953125 11.1640625 C-10.83710937 12.30617188 -10.97890625 13.44828125 -11.125 14.625 C-11.92145015 20.8429003 -11.92145015 20.8429003 -13 23 C-13.28085531 25.15126347 -13.51201259 27.3091033 -13.71875 29.46875 C-13.91017578 31.40814453 -13.91017578 31.40814453 -14.10546875 33.38671875 C-14.23743274 34.75776892 -14.36893784 36.12886333 -14.5 37.5 C-14.75593987 40.17757345 -15.01704044 42.85446021 -15.28125 45.53125 C-15.39533203 46.72298828 -15.50941406 47.91472656 -15.62695312 49.14257812 C-16 52 -16 52 -17 54 C-17.36168513 56.17378455 -17.67830169 58.35514153 -17.97265625 60.5390625 C-18.23852539 62.49199219 -18.23852539 62.49199219 -18.50976562 64.484375 C-18.69408695 65.86457311 -18.87833074 67.24478159 -19.0625 68.625 C-19.25032557 70.01306491 -19.43847265 71.40108636 -19.62695312 72.7890625 C-20.08780725 76.19229299 -20.54534554 79.59593664 -21 83 C-19.35 83 -17.7 83 -16 83 C-15.505 82.01 -15.505 82.01 -15 81 C-14 79 -14 79 -12.046875 78.1640625 C-9.33599299 76.62237769 -9.09272928 75.32455246 -8.25 72.375 C-8.00765625 71.55773437 -7.7653125 70.74046875 -7.515625 69.8984375 C-7.34546875 69.27195312 -7.1753125 68.64546875 -7 68 C-6.67 68 -6.34 68 -6 68 C-5.58186716 74.06292614 -5.86725478 77.19707988 -10 82 C-14.2395515 85.53295958 -17.71438056 85.26876031 -23 85 C-22.34747286 75.89080614 -21.27140829 66.86729831 -20.0390625 57.8203125 C-19.94443096 57.12168972 -19.84979942 56.42306694 -19.75230026 55.70327377 C-19.25312601 52.01946423 -18.7502408 48.33618449 -18.24414062 44.65332031 C-17.72481533 40.86875894 -17.21846989 37.08257624 -16.71494484 33.29588509 C-16.32228499 30.36086418 -15.92009772 27.42720508 -15.51533127 24.49383163 C-15.32441478 23.09815316 -15.13703844 21.70198537 -14.95338821 20.30533218 C-14.69599128 18.35470108 -14.42371896 16.40605057 -14.15087891 14.45751953 C-14.00067291 13.35231964 -13.85046692 12.24711975 -13.69570923 11.10842896 C-11.87430449 2.97039229 -8.70489586 -1.0690223 0 0 Z " fill="#57124D" transform="translate(81,44)"/>
<path d="M0 0 C0.99 0.99 1.98 1.98 3 3 C2.67 3.66 2.34 4.32 2 5 C2.99 5.33 3.98 5.66 5 6 C5.639375 6.825 6.27875 7.65 6.9375 8.5 C9.14685193 11.17800234 9.73257636 11.48946506 13 12 C13.57234375 12.32355469 14.1446875 12.64710937 14.734375 12.98046875 C17.60994253 14.27447414 20.11107729 14.42028765 23.25 14.625 C24.32765625 14.69976562 25.4053125 14.77453125 26.515625 14.8515625 C27.33546875 14.90054688 28.1553125 14.94953125 29 15 C29.33 14.01 29.66 13.02 30 12 C31.65 12 33.3 12 35 12 C35 12.66 35 13.32 35 14 C29.11592546 16.94203727 22.16748035 17.70439113 15.75 16.3125 C9.12248893 13.99287113 3.72563217 10.02442649 0 4 C0 2.68 0 1.36 0 0 Z " fill="#52134D" transform="translate(84,112)"/>
<path d="M0 0 C0.89267578 0.00644531 1.78535156 0.01289062 2.70507812 0.01953125 C4.09823242 0.04466797 4.09823242 0.04466797 5.51953125 0.0703125 C6.45990234 0.07933594 7.40027344 0.08835937 8.36914062 0.09765625 C10.69036093 0.12122194 13.01106769 0.15412134 15.33203125 0.1953125 C11.26254256 2.48341023 7.65094173 2.42525214 3.08203125 2.3203125 C2.33695313 2.31128906 1.591875 2.30226563 0.82421875 2.29296875 C-1.00664934 2.26949608 -2.83735113 2.23362775 -4.66796875 2.1953125 C-4.78914063 3.48308594 -4.9103125 4.77085938 -5.03515625 6.09765625 C-5.2039374 7.77609098 -5.37323488 9.45447385 -5.54296875 11.1328125 C-5.62160156 11.98294922 -5.70023438 12.83308594 -5.78125 13.70898438 C-5.86503906 14.51787109 -5.94882812 15.32675781 -6.03515625 16.16015625 C-6.10847168 16.909021 -6.18178711 17.65788574 -6.25732422 18.42944336 C-6.39283691 19.01218018 -6.52834961 19.59491699 -6.66796875 20.1953125 C-7.32796875 20.5253125 -7.98796875 20.8553125 -8.66796875 21.1953125 C-8.58729874 18.06923809 -8.47444585 14.94514499 -8.35546875 11.8203125 C-8.33291016 10.93085937 -8.31035156 10.04140625 -8.28710938 9.125 C-8.25166016 8.27421875 -8.21621094 7.4234375 -8.1796875 6.546875 C-8.15350342 5.76135254 -8.12731934 4.97583008 -8.1003418 4.16650391 C-7.16596538 -0.09332398 -3.64783807 -0.04646927 0 0 Z " fill="#541751" transform="translate(25.66796875,86.8046875)"/>
<path d="M0 0 C8.60304865 -1.05241178 8.60304865 -1.05241178 11.7421875 1.3125 C14.70189763 5.2354294 16 9.0419177 16 14 C14.75 17.375 14.75 17.375 13 20 C12.01 20.33 11.02 20.66 10 21 C10.495 19.7315625 10.495 19.7315625 11 18.4375 C12.42891356 13.52560963 12.56843322 8.90135381 11 4 C9.68 3.67 8.36 3.34 7 3 C7 2.34 7 1.68 7 1 C4.69 1 2.38 1 0 1 C0 0.67 0 0.34 0 0 Z " fill="#53114D" transform="translate(108,88)"/>
<path d="M0 0 C0.495 1.98 0.495 1.98 1 4 C-3.97166856 8.83449601 -3.97166856 8.83449601 -8.52685547 9.56762695 C-9.79416504 9.54144287 -11.06147461 9.51525879 -12.3671875 9.48828125 C-13.38656906 9.47766914 -13.38656906 9.47766914 -14.42654419 9.46684265 C-16.57719461 9.43906147 -18.72514957 9.37636888 -20.875 9.3125 C-22.34110797 9.28739541 -23.80725715 9.26458602 -25.2734375 9.24414062 C-28.84982023 9.18929288 -32.42464664 9.1031413 -36 9 C-32.60757748 6.73838499 -31.58503575 6.78816584 -27.6328125 6.91015625 C-26.05693359 6.94012695 -26.05693359 6.94012695 -24.44921875 6.97070312 C-22.24076784 7.03168855 -20.03242592 7.09676416 -17.82421875 7.16601562 C-16.77105469 7.18470703 -15.71789062 7.20339844 -14.6328125 7.22265625 C-13.67262207 7.25109619 -12.71243164 7.27953613 -11.72314453 7.30883789 C-6.58354065 6.72594396 -3.41715043 3.67027269 0 0 Z " fill="#4F164C" transform="translate(62,50)"/>
<path d="M0 0 C0.33 0 0.66 0 1 0 C-0.1801848 19.81468172 -0.1801848 19.81468172 -4 28 C-4.33 28 -4.66 28 -5 28 C-5.66 25.69 -6.32 23.38 -7 21 C-6.04673828 20.24589844 -6.04673828 20.24589844 -5.07421875 19.4765625 C-2.39995944 16.28356739 -2.1538547 13.37920572 -1.8125 9.375 C-1.08179929 2.16359857 -1.08179929 2.16359857 0 0 Z " fill="#50124C" transform="translate(195,110)"/>
<path d="M0 0 C0.33 0 0.66 0 1 0 C0.22095672 13.6332574 0.22095672 13.6332574 -2 20 C-9.42857143 20.28571429 -9.42857143 20.28571429 -13 18 C-13 17.34 -13 16.68 -13 16 C-12.01 16 -11.02 16 -10 16 C-10 16.66 -10 17.32 -10 18 C-8.02 18 -6.04 18 -4 18 C-2.68 12.06 -1.36 6.12 0 0 Z " fill="#56124C" transform="translate(135,109)"/>
<path d="M0 0 C6.51454139 -0.25055928 6.51454139 -0.25055928 8.9375 1 C14.27955165 3.59008565 20.56641141 1.8165293 26.01953125 0.33984375 C28 0 28 0 31 1 C22.38282846 5.13624234 12.72189785 5.5179282 3.625 2.5 C2.42875 2.005 1.2325 1.51 0 1 C0 0.67 0 0.34 0 0 Z " fill="#4F1145" transform="translate(145,152)"/>
<path d="M0 0 C0.33 0 0.66 0 1 0 C0.27247184 9.03666554 -0.83834968 18.0113077 -2 27 C-2.66 27 -3.32 27 -4 27 C-4.40097556 17.92607165 -3.64629865 9.7204453 -1 1 C-0.67 0.67 -0.34 0.34 0 0 Z " fill="#52134E" transform="translate(199,82)"/>
<path d="M0 0 C0.99 0 1.98 0 3 0 C2.7525 0.70125 2.505 1.4025 2.25 2.125 C1.89101912 6.25328012 3.4082053 7.86256431 6 11 C8.60024049 12.86310322 8.60024049 12.86310322 11 14 C10.67 14.99 10.34 15.98 10 17 C8.36525411 15.61559342 6.74254338 14.21696755 5.125 12.8125 C4.22007812 12.03519531 3.31515625 11.25789062 2.3828125 10.45703125 C-0.02528452 7.97392793 -1.21951986 6.35826313 -2 3 C-1.34 2.01 -0.68 1.02 0 0 Z " fill="#52134B" transform="translate(133,135)"/>
<path d="M0 0 C0.99 0 1.98 0 3 0 C1.56314321 5.26847488 -1.90781296 8.5927713 -6 12 C-8.9375 13.4375 -8.9375 13.4375 -11 14 C-10.505 13.1028125 -10.505 13.1028125 -10 12.1875 C-8.79212012 9.94613529 -8.79212012 9.94613529 -9 7 C-8.34 7.33 -7.68 7.66 -7 8 C-3.64977049 7.02735272 -2.98865883 5.9797479 -1.25 2.875 C-0.8375 1.92625 -0.425 0.9775 0 0 Z " fill="#4F114A" transform="translate(187,138)"/>
<path d="M0 0 C1.87212947 1.778523 3.22894488 3.36102847 4.625 5.5625 C7.9613755 8.98667486 11.38352596 9.33909453 16 10 C15.67 10.66 15.34 11.32 15 12 C9.27633055 11.60526418 5.37721002 11.05692636 1 7 C0.125 3.25 0.125 3.25 0 0 Z " fill="#531452" transform="translate(156,103)"/>
<path d="M0 0 C0.33 0 0.66 0 1 0 C1 3.96 1 7.92 1 12 C-0.65 12.66 -2.3 13.32 -4 14 C-3.68160156 13.43667969 -3.36320312 12.87335938 -3.03515625 12.29296875 C-1.93294941 9.85147661 -1.64397458 7.9703111 -1.4375 5.3125 C-1.09964413 1.09964413 -1.09964413 1.09964413 0 0 Z " fill="#53134F" transform="translate(23,60)"/>
<path d="M0 0 C0.33 0 0.66 0 1 0 C1 3.63 1 7.26 1 11 C0.01 11.495 0.01 11.495 -1 12 C-1.22162329 10.37675914 -1.42689803 8.751279 -1.625 7.125 C-1.74101563 6.22007813 -1.85703125 5.31515625 -1.9765625 4.3828125 C-1.98429687 3.59648438 -1.99203125 2.81015625 -2 2 C-1.34 1.34 -0.68 0.68 0 0 Z " fill="#521350" transform="translate(78,84)"/>
<path d="M0 0 C-2.88406243 3.40843742 -4.3708265 4.86591384 -8.8125 5.8125 C-10.3903125 5.9053125 -10.3903125 5.9053125 -12 6 C-11.38125 5.7525 -10.7625 5.505 -10.125 5.25 C-7.84998472 4.17603789 -7.84998472 4.17603789 -7 1.9375 C-6 0 -6 0 -4 -0.8125 C-2 -1 -2 -1 0 0 Z " fill="#571049" transform="translate(49,83)"/>
</svg>
